# 3ds Max Wavefront OBJ Exporter v0.97b - (c)2007 guruware
# File Created: 30.03.2019 18:02:56

mtllib 1.mtl

#
# object crystal1_photo
#

v  5.7264 -9.6518 5.1612
v  -2.6731 -6.9830 -9.2503
v  -3.2329 9.6785 -5.8386
v  5.1665 7.0097 8.5729
# 4 vertices

vn -0.8670 -0.1278 0.4817
# 1 vertex normals

vt 0.0000 0.0000 0.0000
vt 1.0000 0.0000 0.0000
vt 1.0000 1.0000 0.0000
vt 0.0000 1.0000 0.0000
# 4 texture coords

g crystal1_photo
usemtl photoMtl
s off
f 1/1/1 2/2/1 3/3/1 
f 3/3/1 4/4/1 1/1/1 
# 2 faces

#
# object crystal1
#

v  -7.2317 -10.5702 1.7484
v  -8.5583 8.1273 3.2114
v  -6.0999 -9.6009 -6.7744
v  -8.1748 9.1875 -0.1411
v  -7.8155 9.5113 -3.5243
v  -9.5720 6.5112 -5.3894
v  -4.2966 8.7028 9.0050
v  -3.4732 7.2053 9.9719
v  -3.3000 9.6054 9.0381
v  -1.6066 8.8848 9.5843
v  1.6453 -16.7014 -2.5049
v  1.9084 -16.5599 -1.7039
v  -2.9918 -8.1404 9.3878
v  6.4522 -8.5617 6.2899
v  1.6202 -9.4928 -8.0087
v  0.8817 -8.7936 -8.6762
v  2.5762 -8.1305 -8.5186
v  1.8541 -7.5218 -8.9163
v  1.3426 -16.4558 -3.1527
v  -5.3230 9.9720 -6.4292
v  -0.4776 10.2573 -7.9092
v  3.4998 9.0215 -9.9719
v  7.6367 -10.4795 -0.9588
v  7.4991 -8.5555 -3.1243
v  9.1658 -8.4393 1.4717
v  9.5719 -4.5037 -0.2967
v  8.8130 7.5434 0.3702
v  2.6539 10.2401 -8.1345
v  -0.9781 16.7014 0.6876
v  1.6114 11.3523 -6.6685
v  0.7544 16.2056 -0.1776
v  -1.2537 16.1273 2.7913
v  5.2707 6.6788 7.5823
# 33 vertices

vn -0.9886 -0.0593 -0.1380
vn -0.9897 -0.0642 -0.1282
vn -0.2195 0.3675 0.9038
vn -0.3059 -0.7808 0.5448
vn 0.1469 -0.7397 0.6567
vn 0.2487 -0.4293 -0.8682
vn -0.6186 -0.7697 -0.1579
vn -0.1200 -0.5853 -0.8019
vn -0.3357 0.0271 -0.9416
vn 0.9101 -0.2589 -0.3235
vn 0.6251 -0.5047 -0.5954
vn 0.7777 0.0627 -0.6256
vn 0.6635 -0.7007 0.2623
vn -0.1613 0.7849 -0.5983
vn 0.6742 0.6591 -0.3332
vn -0.7164 0.6940 -0.0710
vn -0.6780 0.6533 0.3368
vn -0.7540 -0.1262 0.6446
vn 0.3214 0.7010 0.6366
vn 0.2788 -0.0494 0.9591
vn 0.8938 0.0387 0.4468
vn 0.6222 0.6501 0.4360
vn -0.0444 0.7381 -0.6732
vn -0.5610 0.7438 -0.3634
# 24 vertex normals

vt 0.1502 0.4607 0.0000
vt 0.1518 0.1868 0.0000
vt 0.2851 0.4747 0.0000
vt 0.2021 0.1678 0.0000
vt 0.2545 0.1623 0.0000
vt 0.2973 0.2075 0.0000
vt 0.5800 0.1629 0.0000
vt 0.5743 0.1965 0.0000
vt 0.5601 0.1523 0.0000
vt 0.5402 0.1730 0.0000
vt 0.1730 0.6356 0.0000
vt 0.1587 0.6350 0.0000
vt 0.0094 0.4352 0.0000
vt 0.4113 0.4401 0.0000
vt 0.5677 0.4503 0.0000
vt 0.3949 0.6252 0.0000
vt 0.6259 0.1392 0.0000
vt 0.6354 0.1555 0.0000
vt 0.6081 0.1606 0.0000
vt 0.6184 0.1736 0.0000
vt 0.1851 0.6319 0.0000
vt 0.7472 0.1455 0.0000
vt 0.6482 0.0094 0.0000
vt 0.7946 0.4013 0.0000
vt 0.7225 0.4483 0.0000
vt 0.6443 0.4513 0.0000
vt 0.5757 0.4295 0.0000
vt 0.8189 0.1284 0.0000
vt 0.8500 0.1603 0.0000
vt 0.7749 0.1617 0.0000
vt 0.7992 0.2255 0.0000
vt 0.9628 0.1550 0.0000
vt 0.9643 0.1276 0.0000
vt 0.8968 0.0130 0.0000
vt 0.8856 0.0094 0.0000
vt 0.8023 0.4134 0.0000
vt 0.9666 0.4514 0.0000
vt 0.9906 0.4237 0.0000
vt 0.9759 0.1642 0.0000
vt 0.3874 0.6364 0.0000
vt 0.3243 0.5076 0.0000
vt 0.3307 0.4511 0.0000
vt 0.6968 0.6116 0.0000
vt 0.6197 0.4845 0.0000
vt 0.6666 0.6037 0.0000
vt 0.9550 0.4822 0.0000
vt 0.8767 0.5818 0.0000
vt 0.1767 0.0094 0.0000
vt 0.1438 0.0215 0.0000
vt 0.0453 0.1335 0.0000
vt 0.0493 0.1559 0.0000
vt 0.0248 0.1780 0.0000
vt 0.4410 0.0094 0.0000
vt 0.4688 0.0309 0.0000
vt 0.4382 0.2161 0.0000
vt 0.3147 0.1901 0.0000
vt 0.2997 0.3862 0.0000
vt 0.4105 0.0200 0.0000
vt 0.5967 0.4601 0.0000
vt 0.7796 0.4637 0.0000
# 60 texture coords

g crystal1
usemtl crystalMtl
s off
f 5/5/2 6/6/2 7/7/2 
f 6/6/3 8/8/3 7/7/3 
f 8/8/3 9/9/3 7/7/3 
f 9/9/3 10/10/3 7/7/3 
f 11/11/4 12/12/4 13/13/4 
f 13/13/4 12/12/4 14/14/4 
f 15/15/5 16/16/5 5/5/5 
f 17/17/5 5/5/5 16/16/5 
f 18/18/6 17/19/6 16/20/6 
f 19/21/7 20/22/7 21/23/7 
f 21/23/7 20/22/7 22/24/7 
f 15/15/8 5/5/8 23/25/8 
f 5/5/8 7/7/8 23/25/8 
f 20/22/9 19/21/9 7/26/9 
f 7/26/9 19/21/9 23/27/9 
f 7/26/10 10/28/10 20/22/10 
f 20/22/10 10/28/10 22/24/10 
f 10/28/10 24/29/10 22/24/10 
f 24/29/10 25/30/10 22/24/10 
f 25/30/10 26/31/10 22/24/10 
f 27/32/11 28/33/11 29/34/11 
f 29/34/11 28/33/11 30/35/11 
f 21/36/12 28/33/12 19/37/12 
f 19/37/12 28/33/12 23/38/12 
f 23/38/12 28/33/12 15/39/12 
f 28/33/12 27/32/12 15/39/12 
f 31/40/13 30/35/13 32/41/13 
f 32/41/13 30/35/13 26/42/13 
f 30/35/13 28/33/13 26/42/13 
f 26/42/13 28/33/13 22/43/13 
f 28/33/13 21/36/13 22/43/13 
f 15/44/14 27/45/14 16/20/14 
f 18/18/14 16/20/14 29/46/14 
f 27/45/14 29/46/14 16/20/14 
f 24/29/15 33/47/15 25/30/15 
f 25/30/15 33/47/15 34/48/15 
f 34/48/15 33/47/15 35/49/15 
f 32/41/16 34/50/16 31/40/16 
f 31/40/16 34/50/16 35/51/16 
f 9/9/17 8/8/17 33/52/17 
f 33/52/17 8/8/17 36/53/17 
f 36/53/18 8/8/18 13/54/18 
f 8/8/18 6/6/18 13/54/18 
f 11/55/18 13/54/18 6/6/18 
f 5/5/19 17/17/19 6/6/19 
f 17/17/19 12/56/19 6/6/19 
f 11/55/19 6/6/19 12/56/19 
f 33/57/20 36/58/20 37/59/20 
f 13/13/20 14/14/20 36/58/20 
f 14/14/20 37/59/20 36/58/20 
f 18/18/21 37/59/21 17/19/21 
f 17/19/21 37/59/21 12/12/21 
f 14/14/21 12/12/21 37/59/21 
f 37/59/22 18/18/22 31/60/22 
f 29/46/22 30/61/22 18/18/22 
f 18/18/22 30/61/22 31/60/22 
f 31/60/23 35/62/23 37/59/23 
f 37/59/23 35/62/23 33/57/23 
f 26/31/24 25/30/24 32/63/24 
f 32/63/24 25/30/24 34/48/24 
f 33/47/25 24/29/25 9/64/25 
f 9/64/25 24/29/25 10/28/25 
# 62 faces

