# 3ds Max Wavefront OBJ Exporter v0.97b - (c)2007 guruware
# File Created: 21.04.2019 00:57:56

mtllib 1.mtl

#
# object crystal1
#

v  -0.7232 -1.0570 0.1748
v  -0.8558 0.8127 0.3211
v  -0.6100 -0.9601 -0.6774
v  -0.8175 0.9187 -0.0141
v  -0.7815 0.9511 -0.3524
v  -0.7806 0.6511 -0.6129
v  -0.4297 0.8703 0.9005
v  -0.3473 0.7205 0.9972
v  -0.3300 0.9605 0.9038
v  -0.1607 0.8885 0.9584
v  0.1645 -1.6701 -0.2505
v  0.1908 -1.6560 -0.1704
v  -0.2992 -0.8140 0.9388
v  0.6452 -0.8562 0.6290
v  0.1620 -0.9493 -0.8009
v  0.0882 -0.8794 -0.8676
v  0.2576 -0.8130 -0.8519
v  0.1854 -0.7522 -0.8916
v  0.1343 -1.6456 -0.3153
v  -0.5323 0.9972 -0.6429
v  -0.0478 1.0257 -0.7909
v  0.1567 0.7720 -0.9237
v  0.7637 -1.0480 -0.0959
v  0.7499 -0.8555 -0.3124
v  0.9166 -0.8439 0.1472
v  0.9572 -0.4504 -0.0297
v  0.8813 0.7543 0.0370
v  0.2654 1.0240 -0.8134
v  -0.0978 1.6701 0.0688
v  0.1611 1.1352 -0.6668
v  0.0754 1.6206 -0.0178
v  -0.1254 1.6127 0.2791
v  0.5271 0.6679 0.7582
# 33 vertices

vn -0.9886 -0.0593 -0.1380
vn -0.9897 -0.0642 -0.1282
vn -0.2195 0.3675 0.9038
vn -0.3059 -0.7808 0.5448
vn 0.1469 -0.7397 0.6567
vn 0.2487 -0.4293 -0.8682
vn -0.6186 -0.7697 -0.1579
vn -0.1200 -0.5853 -0.8019
vn -0.3357 0.0271 -0.9416
vn 0.9101 -0.2589 -0.3235
vn 0.6251 -0.5047 -0.5954
vn 0.7777 0.0627 -0.6256
vn 0.6635 -0.7007 0.2623
vn -0.1613 0.7849 -0.5983
vn 0.6742 0.6591 -0.3332
vn -0.7164 0.6940 -0.0710
vn -0.6780 0.6533 0.3368
vn -0.7540 -0.1262 0.6446
vn 0.3214 0.7010 0.6366
vn 0.2788 -0.0494 0.9591
vn 0.8938 0.0387 0.4468
vn 0.6222 0.6501 0.4360
vn -0.0444 0.7381 -0.6732
vn -0.5610 0.7438 -0.3634
# 24 vertex normals

vt 0.1502 0.4607 0.0000
vt 0.1518 0.1868 0.0000
vt 0.2851 0.4747 0.0000
vt 0.2021 0.1678 0.0000
vt 0.2545 0.1623 0.0000
vt 0.2973 0.2075 0.0000
vt 0.5800 0.1629 0.0000
vt 0.5743 0.1965 0.0000
vt 0.5601 0.1523 0.0000
vt 0.5402 0.1730 0.0000
vt 0.1730 0.6356 0.0000
vt 0.1587 0.6350 0.0000
vt 0.0094 0.4352 0.0000
vt 0.4113 0.4401 0.0000
vt 0.5677 0.4503 0.0000
vt 0.3949 0.6252 0.0000
vt 0.6259 0.1392 0.0000
vt 0.6354 0.1555 0.0000
vt 0.6081 0.1606 0.0000
vt 0.6184 0.1736 0.0000
vt 0.1851 0.6319 0.0000
vt 0.7472 0.1455 0.0000
vt 0.6482 0.0094 0.0000
vt 0.7946 0.4013 0.0000
vt 0.7225 0.4483 0.0000
vt 0.6443 0.4513 0.0000
vt 0.5757 0.4295 0.0000
vt 0.8189 0.1284 0.0000
vt 0.8500 0.1603 0.0000
vt 0.7749 0.1617 0.0000
vt 0.7992 0.2255 0.0000
vt 0.9628 0.1550 0.0000
vt 0.9643 0.1276 0.0000
vt 0.8968 0.0130 0.0000
vt 0.8856 0.0094 0.0000
vt 0.8023 0.4134 0.0000
vt 0.9666 0.4514 0.0000
vt 0.9906 0.4237 0.0000
vt 0.9759 0.1642 0.0000
vt 0.3874 0.6364 0.0000
vt 0.3243 0.5076 0.0000
vt 0.3307 0.4511 0.0000
vt 0.6968 0.6116 0.0000
vt 0.6197 0.4845 0.0000
vt 0.6666 0.6037 0.0000
vt 0.9550 0.4822 0.0000
vt 0.8767 0.5818 0.0000
vt 0.1767 0.0094 0.0000
vt 0.1438 0.0215 0.0000
vt 0.0453 0.1335 0.0000
vt 0.0493 0.1559 0.0000
vt 0.0248 0.1780 0.0000
vt 0.4410 0.0094 0.0000
vt 0.4688 0.0309 0.0000
vt 0.4382 0.2161 0.0000
vt 0.3147 0.1901 0.0000
vt 0.2997 0.3862 0.0000
vt 0.4105 0.0200 0.0000
vt 0.5967 0.4601 0.0000
vt 0.7796 0.4637 0.0000
# 60 texture coords

g crystal1
usemtl Material__25
s off
f 1/1/1 2/2/1 3/3/1 
f 2/2/2 4/4/2 3/3/2 
f 4/4/2 5/5/2 3/3/2 
f 5/5/2 6/6/2 3/3/2 
f 7/7/3 8/8/3 9/9/3 
f 9/9/3 8/8/3 10/10/3 
f 11/11/4 12/12/4 1/1/4 
f 13/13/4 1/1/4 12/12/4 
f 14/14/5 13/15/5 12/16/5 
f 15/17/6 16/18/6 17/19/6 
f 17/19/6 16/18/6 18/20/6 
f 11/11/7 1/1/7 19/21/7 
f 1/1/7 3/3/7 19/21/7 
f 16/18/8 15/17/8 3/22/8 
f 3/22/8 15/17/8 19/23/8 
f 3/22/9 6/24/9 16/18/9 
f 16/18/9 6/24/9 18/20/9 
f 6/24/9 20/25/9 18/20/9 
f 20/25/9 21/26/9 18/20/9 
f 21/26/9 22/27/9 18/20/9 
f 23/28/10 24/29/10 25/30/10 
f 25/30/10 24/29/10 26/31/10 
f 17/32/11 24/29/11 15/33/11 
f 15/33/11 24/29/11 19/34/11 
f 19/34/11 24/29/11 11/35/11 
f 24/29/11 23/28/11 11/35/11 
f 27/36/12 26/31/12 28/37/12 
f 28/37/12 26/31/12 22/38/12 
f 26/31/12 24/29/12 22/38/12 
f 22/38/12 24/29/12 18/39/12 
f 24/29/12 17/32/12 18/39/12 
f 11/40/13 23/41/13 12/16/13 
f 14/14/13 12/16/13 25/42/13 
f 23/41/13 25/42/13 12/16/13 
f 20/25/14 29/43/14 21/26/14 
f 21/26/14 29/43/14 30/44/14 
f 30/44/14 29/43/14 31/45/14 
f 28/37/15 30/46/15 27/36/15 
f 27/36/15 30/46/15 31/47/15 
f 5/5/16 4/4/16 29/48/16 
f 29/48/16 4/4/16 32/49/16 
f 32/49/17 4/4/17 9/50/17 
f 4/4/17 2/2/17 9/50/17 
f 7/51/17 9/50/17 2/2/17 
f 1/1/18 13/13/18 2/2/18 
f 13/13/18 8/52/18 2/2/18 
f 7/51/18 2/2/18 8/52/18 
f 29/53/19 32/54/19 33/55/19 
f 9/9/19 10/10/19 32/54/19 
f 10/10/19 33/55/19 32/54/19 
f 14/14/20 33/55/20 13/15/20 
f 13/15/20 33/55/20 8/8/20 
f 10/10/20 8/8/20 33/55/20 
f 33/55/21 14/14/21 27/56/21 
f 25/42/21 26/57/21 14/14/21 
f 14/14/21 26/57/21 27/56/21 
f 27/56/22 31/58/22 33/55/22 
f 33/55/22 31/58/22 29/53/22 
f 22/27/23 21/26/23 28/59/23 
f 28/59/23 21/26/23 30/44/23 
f 29/43/24 20/25/24 5/60/24 
f 5/60/24 20/25/24 6/24/24 
# 62 faces

