# 3ds Max Wavefront OBJ Exporter v0.97b - (c)2007 guruware
# File Created: 24.04.2019 15:35:56

mtllib 1.mtl

#
# object crystal_a1
#

v  -2.6746 -21.4443 -16.2127
v  -6.0222 21.3443 -19.2476
v  16.8282 -19.2251 -13.6232
v  1.6488 23.7687 -18.3694
v  9.3899 24.5092 -17.5488
v  13.6582 17.6439 -21.5669
v  -19.2801 22.6603 -9.4950
v  -21.4944 19.2326 -7.6110
v  -19.3577 24.7244 -7.2157
v  -20.6062 23.0756 -3.3401
v  7.0580 -35.4753 4.1007
v  5.2241 -35.1501 4.7037
v  -20.1583 -15.8850 -6.5101
v  -13.0678 -16.8482 15.1019
v  19.6529 -18.9774 4.0457
v  21.1791 -17.3786 2.3543
v  20.8188 -15.8599 6.2324
v  21.7296 -14.4689 4.5786
v  8.5392 -34.9124 3.4102
v  16.0376 25.5651 -11.8443
v  19.4252 26.2181 -0.7556
v  24.1440 23.3884 8.3466
v  3.5203 -21.2367 17.8115
v  8.4742 -16.8332 17.4987
v  -2.0416 -16.5680 21.3117
v  2.0041 -7.5609 22.2400
v  0.4779 20.0057 20.5036
v  19.9407 26.1781 6.4100
v  -0.2477 40.9647 -1.9015
v  16.5855 28.7225 4.0232
v  1.7314 39.8288 2.0641
v  -5.0615 39.6511 -2.5320
v  -16.0251 18.0292 12.3972
# 33 vertices

vn 0.1282 -0.0642 -0.9897
vn -0.9038 0.3675 -0.2195
vn -0.5448 -0.7808 -0.3059
vn -0.6567 -0.7397 0.1469
vn 0.8682 -0.4293 0.2487
vn 0.1579 -0.7697 -0.6186
vn 0.8019 -0.5853 -0.1200
vn 0.9416 0.0270 -0.3357
vn 0.3235 -0.2589 0.9101
vn 0.5954 -0.5047 0.6251
vn 0.6256 0.0627 0.7777
vn -0.2623 -0.7007 0.6635
vn 0.5983 0.7849 -0.1613
vn 0.3332 0.6591 0.6742
vn 0.0710 0.6940 -0.7164
vn -0.3368 0.6533 -0.6780
vn -0.6446 -0.1262 -0.7540
vn -0.6366 0.7010 0.3214
vn -0.9591 -0.0494 0.2788
vn -0.4468 0.0387 0.8938
vn -0.4360 0.6501 0.6222
vn 0.6732 0.7382 -0.0444
vn 0.3634 0.7438 -0.5610
# 23 vertex normals

vt 0.5910 0.1710 0.0000
vt 0.6051 0.4317 0.0000
vt 0.4619 0.1654 0.0000
vt 0.5583 0.4526 0.0000
vt 0.5087 0.4609 0.0000
vt 0.4654 0.4203 0.0000
vt 0.7043 0.4551 0.0000
vt 0.7265 0.4331 0.0000
vt 0.7116 0.4747 0.0000
vt 0.2176 0.4723 0.0000
vt 0.2019 0.4302 0.0000
vt 0.2355 0.4514 0.0000
vt 0.5594 0.0058 0.0000
vt 0.5730 0.0057 0.0000
vt 0.7265 0.1873 0.0000
vt 0.3464 0.1912 0.0000
vt 0.1970 0.1884 0.0000
vt 0.3538 0.0142 0.0000
vt 0.9335 0.4564 0.0000
vt 0.9251 0.4404 0.0000
vt 0.9513 0.4368 0.0000
vt 0.9421 0.4240 0.0000
vt 0.5480 0.0101 0.0000
vt 0.8182 0.4452 0.0000
vt 0.9066 0.5791 0.0000
vt 0.7842 0.1995 0.0000
vt 0.8549 0.1578 0.0000
vt 0.9295 0.1584 0.0000
vt 0.9939 0.1821 0.0000
vt 0.1535 0.4381 0.0000
vt 0.1261 0.4056 0.0000
vt 0.1976 0.4094 0.0000
vt 0.1787 0.3470 0.0000
vt 0.0184 0.4033 0.0000
vt 0.0152 0.4292 0.0000
vt 0.0718 0.5427 0.0000
vt 0.0822 0.5469 0.0000
vt 0.1882 0.1682 0.0000
vt 0.0344 0.1211 0.0000
vt 0.0098 0.1459 0.0000
vt 0.0066 0.3936 0.0000
vt 0.3604 0.0033 0.0000
vt 0.4262 0.1231 0.0000
vt 0.4226 0.1772 0.0000
vt 0.8864 0.0035 0.0000
vt 0.9544 0.1279 0.0000
vt 0.9148 0.0123 0.0000
vt 0.0475 0.0926 0.0000
vt 0.1285 0.0031 0.0000
vt 0.5914 0.6019 0.0000
vt 0.6221 0.5885 0.0000
vt 0.3373 0.6028 0.0000
vt 0.3099 0.5835 0.0000
vt 0.3307 0.4057 0.0000
vt 0.4495 0.4250 0.0000
vt 0.4551 0.2376 0.0000
vt 0.3658 0.5913 0.0000
vt 0.9752 0.1521 0.0000
vt 0.8011 0.1407 0.0000
# 59 texture coords

g crystal_a1
usemtl Material__28
s off
f 1/1/1 2/2/1 3/3/1 
f 2/2/1 4/4/1 3/3/1 
f 4/4/1 5/5/1 3/3/1 
f 5/5/1 6/6/1 3/3/1 
f 7/7/2 8/8/2 9/9/2 
f 9/10/2 8/11/2 10/12/2 
f 11/13/3 12/14/3 1/1/3 
f 13/15/3 1/1/3 12/14/3 
f 14/16/4 13/17/4 12/18/4 
f 15/19/5 16/20/5 17/21/5 
f 17/21/5 16/20/5 18/22/5 
f 11/13/6 1/1/6 19/23/6 
f 1/1/6 3/3/6 19/23/6 
f 16/20/7 15/19/7 3/24/7 
f 3/24/7 15/19/7 19/25/7 
f 3/24/8 6/26/8 16/20/8 
f 16/20/8 6/26/8 18/22/8 
f 6/26/8 20/27/8 18/22/8 
f 20/27/8 21/28/8 18/22/8 
f 21/28/8 22/29/8 18/22/8 
f 23/30/9 24/31/9 25/32/9 
f 25/32/9 24/31/9 26/33/9 
f 17/34/10 24/31/10 15/35/10 
f 15/35/10 24/31/10 19/36/10 
f 19/36/10 24/31/10 11/37/10 
f 24/31/10 23/30/10 11/37/10 
f 27/38/11 26/33/11 28/39/11 
f 28/39/11 26/33/11 22/40/11 
f 26/33/11 24/31/11 22/40/11 
f 22/40/11 24/31/11 18/41/11 
f 24/31/11 17/34/11 18/41/11 
f 11/42/12 23/43/12 12/18/12 
f 14/16/12 12/18/12 25/44/12 
f 23/43/12 25/44/12 12/18/12 
f 20/27/13 29/45/13 21/28/13 
f 21/28/13 29/45/13 30/46/13 
f 30/46/13 29/45/13 31/47/13 
f 28/39/14 30/48/14 27/38/14 
f 27/38/14 30/48/14 31/49/14 
f 5/5/15 4/4/15 29/50/15 
f 29/50/15 4/4/15 32/51/15 
f 32/51/16 4/4/16 9/9/16 
f 4/4/16 2/2/16 9/9/16 
f 7/7/16 9/9/16 2/2/16 
f 1/1/17 13/15/17 2/2/17 
f 13/15/17 8/8/17 2/2/17 
f 7/7/17 2/2/17 8/8/17 
f 29/52/18 32/53/18 33/54/18 
f 9/10/18 10/12/18 32/53/18 
f 10/12/18 33/54/18 32/53/18 
f 14/16/19 33/54/19 13/17/19 
f 13/17/19 33/54/19 8/11/19 
f 10/12/19 8/11/19 33/54/19 
f 33/54/20 14/16/20 27/55/20 
f 25/44/20 26/56/20 14/16/20 
f 14/16/20 26/56/20 27/55/20 
f 27/55/21 31/57/21 33/54/21 
f 33/54/21 31/57/21 29/52/21 
f 22/29/22 21/28/22 28/58/22 
f 28/58/22 21/28/22 30/46/22 
f 29/45/23 20/27/23 5/59/23 
f 5/59/23 20/27/23 6/26/23 
# 62 faces

