# This file uses centimeters as units for non-parametric coordinates.

mtllib small8.mtl
g default
v -0.534732 -1.763876 -0.365255
v 0.531784 -1.704410 -0.339140
v -0.592043 -1.578485 0.189091
v 0.100961 -1.733976 -0.656728
v -0.110789 -2.206892 0.017394
v 0.054787 -2.275060 0.018206
v 0.471351 -1.773013 0.232348
v 0.525627 -1.547675 0.283973
v -0.005518 -1.883102 0.441024
v 0.125167 -1.671195 0.546053
v -0.206825 -1.631583 0.518753
v -0.043090 -1.180673 0.648307
v 0.020292 2.187537 0.128660
v -0.139006 2.177783 -0.241971
v -0.516195 1.532466 -0.467441
v -0.457887 1.840259 -0.416316
v -0.485741 1.943617 0.119001
v -0.599698 1.457109 0.239488
v -0.480550 1.765620 0.403767
v -0.077879 1.847497 0.594541
v -0.084056 1.688499 0.656728
v 0.428900 1.774900 0.458533
v 0.534519 1.770541 0.115045
v 0.599698 1.503181 0.416566
v -0.052089 2.275060 0.014430
v 0.483142 1.702776 -0.367723
v -0.100009 2.051864 -0.358431
v -0.200594 1.744700 -0.592610
v -0.006582 1.659724 -0.646299
vt 0.923428 0.864566
vt 0.975421 0.871353
vt 0.897550 0.550369
vt 0.943943 0.534364
vt 0.664727 0.851643
vt 0.667373 0.879037
vt 0.618757 0.529615
vt 0.686987 0.462671
vt 0.698007 0.483767
vt 0.728006 0.557368
vt 0.681211 0.544790
vt 0.848596 0.544255
vt 0.846130 0.563270
vt 0.863742 0.478779
vt 0.877358 0.868095
vt 0.853115 0.846292
vt 0.807145 0.511379
vt 0.804881 0.542757
vt 0.844157 0.869184
vt 0.788747 0.870726
vt 0.788431 0.588919
vt 0.760907 0.496607
vt 0.771538 0.541938
vt 0.883450 0.957808
vt 0.858020 0.942224
vt 0.791754 0.899475
vt 0.947298 0.934294
vt 0.926364 0.955468
vt 0.633249 0.876440
vt 0.681220 0.930311
vt 0.613653 0.867073
vt 0.721370 0.886245
vt 0.729955 0.841993
vt 0.713883 0.945026
vt 0.746295 0.871739
vt 0.737729 0.945411
vt 0.989577 0.898267
vt 0.658373 0.921920
vn 0.834777 0.162267 -0.526134
vn 0.877485 -0.328449 -0.349488
vn 0.117478 -0.447953 -0.886305
vn 0.117478 -0.447953 -0.886305
vn 0.245547 -0.968712 0.036112
vn -0.551706 -0.821653 0.143204
vn -0.802366 -0.231873 0.549950
vn -0.788408 -0.298851 -0.537681
vn -0.551706 -0.821653 0.143204
vn 0.914703 0.123782 0.384704
vn 0.770709 -0.026337 0.636643
vn 0.877485 -0.328449 -0.349488
vn 0.770709 -0.026337 0.636643
vn 0.909601 -0.358415 0.210153
vn 0.877485 -0.328449 -0.349488
vn -0.009237 -0.619530 0.784919
vn 0.430812 -0.165396 0.887156
vn -0.009382 -0.192079 0.981335
vn 0.655845 -0.334685 0.676648
vn 0.430812 -0.165396 0.887156
vn -0.009237 -0.619530 0.784919
vn 0.617493 -0.563911 0.548368
vn -0.009237 -0.619530 0.784919
vn 0.245547 -0.968712 0.036112
vn 0.630210 0.332112 0.701810
vn 0.241986 0.435817 0.866895
vn -0.023820 0.035304 0.999093
vn -0.023820 0.035304 0.999093
vn -0.008475 -0.001941 0.999962
vn 0.770709 -0.026337 0.636643
vn -0.559811 -0.377786 0.737489
vn -0.802366 -0.231873 0.549950
vn -0.551706 -0.821653 0.143204
vn -0.009237 -0.619530 0.784919
vn -0.551706 -0.821653 0.143204
vn 0.245547 -0.968712 0.036112
vn -0.559811 -0.377786 0.737489
vn -0.247693 -0.444104 0.861057
vn -0.009382 -0.192079 0.981335
vn 0.874864 0.484325 0.006606
vn 0.586189 0.769578 -0.253243
vn 0.200774 0.904336 0.376653
vn 0.874864 0.484325 0.006606
vn 0.752961 0.619066 -0.223175
vn 0.586189 0.769578 -0.253243
vn 0.531532 0.551484 -0.642914
vn 0.272876 0.531619 -0.801823
vn 0.296734 0.708235 -0.640587
vn 0.296734 0.708235 -0.640587
vn -0.164054 0.786157 -0.595855
vn 0.025509 0.994843 -0.098164
vn -0.176068 0.497052 -0.849670
vn -0.680205 0.596747 -0.425692
vn -0.164054 0.786157 -0.595855
vn -0.176068 0.497052 -0.849670
vn -0.613335 0.147940 -0.775844
vn -0.680205 0.596747 -0.425692
vn 0.016555 0.068213 -0.997533
vn 0.117478 -0.447953 -0.886305
vn -0.788408 -0.298851 -0.537681
vn -0.799417 0.575243 0.173285
vn -0.968905 0.246310 -0.023567
vn -0.957875 0.031520 0.285452
vn -0.680205 0.596747 -0.425692
vn -0.799417 0.575243 0.173285
vn 0.025509 0.994843 -0.098164
vn -0.941084 0.243385 -0.234786
vn -0.803893 0.068266 -0.590843
vn -0.957875 0.031520 0.285452
vn -0.788408 -0.298851 -0.537681
vn -0.802366 -0.231873 0.549950
vn -0.957875 0.031520 0.285452
vn -0.802366 -0.231873 0.549950
vn -0.008475 -0.001941 0.999962
vn -0.023820 0.035304 0.999093
vn -0.802366 -0.231873 0.549950
vn -0.559811 -0.377786 0.737489
vn -0.008475 -0.001941 0.999962
vn -0.615529 0.506910 0.603462
vn -0.027826 0.678641 0.733943
vn 0.200774 0.904336 0.376653
vn -0.799417 0.575243 0.173285
vn 0.200774 0.904336 0.376653
vn 0.025509 0.994843 -0.098164
vn -0.615529 0.506910 0.603462
vn -0.297993 0.222580 0.928256
vn -0.027826 0.678641 0.733943
vn -0.176068 0.497052 -0.849670
vn 0.296734 0.708235 -0.640587
vn 0.272876 0.531619 -0.801823
vn 0.016555 0.068213 -0.997533
vn 0.834777 0.162267 -0.526134
vn 0.117478 -0.447953 -0.886305
vn -0.788408 -0.298851 -0.537681
vn 0.117478 -0.447953 -0.886305
vn -0.551706 -0.821653 0.143204
vn 0.117478 -0.447953 -0.886305
vn 0.877485 -0.328449 -0.349488
vn 0.245547 -0.968712 0.036112
vn 0.877485 -0.328449 -0.349488
vn 0.909601 -0.358415 0.210153
vn 0.707684 -0.706197 0.021659
vn 0.914703 0.123782 0.384704
vn 0.834777 0.162267 -0.526134
vn 0.874864 0.484325 0.006606
vn 0.834777 0.162267 -0.526134
vn 0.914703 0.123782 0.384704
vn 0.877485 -0.328449 -0.349488
vn 0.617493 -0.563911 0.548368
vn 0.655845 -0.334685 0.676648
vn -0.009237 -0.619530 0.784919
vn 0.914703 0.123782 0.384704
vn 0.630210 0.332112 0.701810
vn -0.023820 0.035304 0.999093
vn 0.914703 0.123782 0.384704
vn -0.023820 0.035304 0.999093
vn 0.770709 -0.026337 0.636643
vn 0.770709 -0.026337 0.636643
vn -0.008475 -0.001941 0.999962
vn 0.430812 -0.165396 0.887156
vn -0.009237 -0.619530 0.784919
vn -0.559811 -0.377786 0.737489
vn -0.551706 -0.821653 0.143204
vn 0.541059 0.684795 0.488171
vn 0.874864 0.484325 0.006606
vn 0.200774 0.904336 0.376653
vn 0.200774 0.904336 0.376653
vn -0.027826 0.678641 0.733943
vn 0.541059 0.684795 0.488171
vn 0.586189 0.769578 -0.253243
vn 0.531532 0.551484 -0.642914
vn 0.296734 0.708235 -0.640587
vn 0.296734 0.708235 -0.640587
vn -0.176068 0.497052 -0.849670
vn -0.164054 0.786157 -0.595855
vn -0.176068 0.497052 -0.849670
vn 0.016555 0.068213 -0.997533
vn -0.613335 0.147940 -0.775844
vn -0.803893 0.068266 -0.590843
vn 0.016555 0.068213 -0.997533
vn -0.788408 -0.298851 -0.537681
vn -0.615529 0.506910 0.603462
vn -0.799417 0.575243 0.173285
vn -0.957875 0.031520 0.285452
vn -0.164054 0.786157 -0.595855
vn -0.680205 0.596747 -0.425692
vn 0.025509 0.994843 -0.098164
vn -0.803893 0.068266 -0.590843
vn -0.788408 -0.298851 -0.537681
vn -0.957875 0.031520 0.285452
vn -0.615529 0.506910 0.603462
vn -0.957875 0.031520 0.285452
vn -0.297993 0.222580 0.928256
vn -0.957875 0.031520 0.285452
vn -0.802366 -0.231873 0.549950
vn -0.023820 0.035304 0.999093
vn -0.799417 0.575243 0.173285
vn -0.615529 0.506910 0.603462
vn 0.200774 0.904336 0.376653
vn 0.914703 0.123782 0.384704
vn 0.874864 0.484325 0.006606
vn 0.630210 0.332112 0.701810
s off
g crystal_small_001
usemtl crystal_small_003SG
f 26/1/1 2/3/2 4/4/3
f 4/7/4 6/8/5 5/9/6
f 3/10/7 1/11/8 5/9/9
f 24/16/10 8/13/11 2/3/12
f 8/13/13 7/12/14 2/3/15
f 9/17/16 10/18/17 12/21/18
f 8/13/19 10/18/20 9/17/21
f 7/12/22 9/17/23 6/14/24
f 22/19/25 20/26/26 21/20/27
f 21/20/28 12/21/29 8/13/30
f 11/23/31 3/10/32 5/9/33
f 9/22/34 5/9/35 6/8/36
f 11/23/37 9/17/38 12/21/39
f 23/15/40 25/24/41 13/25/42
f 23/15/43 26/1/44 25/24/45
f 26/1/46 29/2/47 27/27/48
f 27/27/49 14/28/50 25/24/51
f 28/29/52 16/6/53 14/30/54
f 28/29/55 15/5/56 16/6/57
f 29/31/58 4/7/59 1/11/60
f 17/32/61 16/6/62 18/33/63
f 16/6/64 17/32/65 25/34/66
f 16/6/67 15/5/68 18/33/69
f 1/11/70 3/10/71 18/33/72
f 3/10/73 12/21/74 21/20/75
f 3/10/76 11/23/77 12/21/78
f 19/35/79 20/26/80 13/36/81
f 17/32/82 13/36/83 25/34/84
f 19/35/85 21/20/86 20/26/87
f 28/37/88 27/27/89 29/2/90
f 29/2/91 26/1/92 4/4/93
f 1/11/94 4/7/95 5/9/96
f 4/4/97 2/3/98 6/14/99
f 2/3/100 7/12/101 6/14/102
f 24/16/103 26/1/104 23/15/105
f 26/1/106 24/16/107 2/3/108
f 7/12/109 8/13/110 9/17/111
f 24/16/112 22/19/113 21/20/114
f 24/16/115 21/20/116 8/13/117
f 8/13/118 12/21/119 10/18/120
f 9/22/121 11/23/122 5/9/123
f 22/19/124 23/15/125 13/25/126
f 13/25/127 20/26/128 22/19/129
f 25/24/130 26/1/131 27/27/132
f 27/38/133 28/29/134 14/30/135
f 28/29/136 29/31/137 15/5/138
f 15/5/139 29/31/140 1/11/141
f 19/35/142 17/32/143 18/33/144
f 14/30/145 16/6/146 25/34/147
f 15/5/148 1/11/149 18/33/150
f 19/35/151 18/33/152 21/20/153
f 18/33/154 3/10/155 21/20/156
f 17/32/157 19/35/158 13/36/159
f 24/16/160 23/15/161 22/19/162
