# 3ds Max Wavefront OBJ Exporter v0.97b - (c)2007 guruware
# File Created: 24.04.2019 15:47:30

mtllib 11.mtl

#
# object mini5
#

v  -7.6618 39.4418 5.9588
v  -10.0418 39.0043 -0.9802
v  -10.0982 -35.6310 -0.8321
v  -10.8246 24.4456 -3.6952
v  -5.4581 -34.8900 -7.5737
v  -3.7657 27.2049 -8.5645
v  3.0534 -30.9099 -6.2373
v  1.1812 33.4645 -9.0863
v  7.9933 17.3039 -9.7562
v  7.4785 -32.8576 -1.2693
v  -6.5864 43.8948 6.1809
v  -7.3339 30.4300 9.7562
v  -4.8270 39.9005 7.5807
v  2.2601 -15.4196 9.5517
v  -5.8389 -36.1109 9.1039
v  -0.2398 -40.1828 5.8707
v  2.8948 -37.7552 -5.2219
v  5.9447 -42.1447 0.9696
v  -0.3914 -56.2164 -1.9005
v  7.1294 -32.8082 3.1592
v  9.0969 21.7004 0.8215
v  2.9970 26.9791 8.7584
v  10.8246 39.9782 -3.4448
v  5.3770 41.7636 -7.7852
v  6.0716 56.2164 -1.5479
v  1.2376 48.5525 6.5159
# 26 vertices

vn -0.9460 0.0028 0.3242
vn -0.9625 0.0026 0.2712
vn -0.8195 -0.0740 -0.5682
vn -0.5683 0.0048 -0.8228
vn 0.1640 -0.0404 -0.9856
vn -0.0479 -0.0909 -0.9947
vn -0.4205 -0.2833 -0.8619
vn 0.7453 -0.0156 -0.6665
vn -0.4698 0.4545 0.7568
vn 0.3776 -0.3335 0.8638
vn 0.7034 -0.2328 -0.6716
vn 0.7299 -0.4465 -0.5176
vn -0.2883 -0.9523 0.1006
vn 0.1866 -0.3911 -0.9012
vn -0.5458 -0.5781 0.6065
vn -0.6603 -0.5726 -0.4860
vn 0.2135 -0.2876 -0.9337
vn 0.9571 -0.2795 0.0768
vn 0.9948 -0.0651 0.0785
vn 0.7922 -0.0048 0.6102
vn 0.7925 -0.0047 0.6099
vn 0.4135 -0.6380 0.6496
vn 0.7052 -0.4836 -0.5185
vn 0.9943 -0.0519 -0.0929
vn 0.9756 -0.2117 -0.0578
vn 0.6281 0.2531 -0.7358
vn 0.4799 -0.3769 0.7923
vn 0.5900 0.4945 -0.6383
vn -0.5781 0.3393 -0.7421
vn -0.4814 0.6657 -0.5702
vn 0.0151 0.0926 -0.9956
vn -0.4577 0.8797 0.1289
vn -0.3774 0.5535 -0.7424
vn -0.3604 0.6295 -0.6884
vn -0.4625 0.8757 0.1386
vn -0.0287 -0.0209 0.9994
vn -0.9902 0.0401 0.1335
vn -0.9184 -0.0490 0.3926
vn 0.0240 0.2075 0.9779
vn 0.7746 0.2477 0.5820
vn 0.7314 0.2836 0.6201
vn 0.8060 0.1183 0.5799
vn -0.1736 0.4586 0.8715
vn 0.1476 0.3477 0.9259
vn 0.1017 0.0337 0.9942
vn 0.1213 0.1832 -0.9756
# 46 vertex normals

vt 0.6371 0.5528 0.0000
vt 0.6355 0.5637 0.0000
vt 0.4217 0.5825 0.0000
vt 0.5854 0.5998 0.0000
vt 0.4155 0.6345 0.0000
vt 0.5667 0.7053 0.0000
vt 0.4100 0.6910 0.0000
vt 0.5991 0.7138 0.0000
vt 0.5589 0.7600 0.0000
vt 0.3931 0.7307 0.0000
vt 0.6403 0.5542 0.0000
vt 0.6172 0.5444 0.0000
vt 0.6377 0.5511 0.0000
vt 0.5166 0.4910 0.0000
vt 0.4532 0.5236 0.0000
vt 0.4424 0.4902 0.0000
vt 0.3893 0.6836 0.0000
vt 0.3485 0.7144 0.0000
vt 0.3313 0.6379 0.0000
vt 0.3583 0.4780 0.0000
vt 0.4343 0.4286 0.0000
vt 0.4860 0.4063 0.0000
vt 0.4791 0.4366 0.0000
vt 0.6492 0.4790 0.0000
vt 0.6306 0.5190 0.0000
vt 0.6719 0.4113 0.0000
vt 0.7166 0.5211 0.0000
vt 0.6469 0.6974 0.0000
vt 0.6936 0.7352 0.0000
vt 0.7051 0.6118 0.0000
vt 0.6620 0.5686 0.0000
# 31 texture coords

g mini5
usemtl Material__26
s off
f 1/1/1 2/2/1 3/3/1 
f 2/2/2 4/4/2 3/3/2 
f 3/3/3 4/4/3 5/5/3 
f 4/4/4 6/6/4 5/5/4 
f 5/5/5 6/6/5 7/7/5 
f 6/6/6 8/8/6 7/7/6 
f 9/9/7 10/10/7 8/8/7 
f 7/7/8 8/8/8 10/10/8 
f 11/11/9 1/1/9 12/12/9 
f 12/12/9 13/13/9 11/11/9 
f 14/14/10 15/15/10 16/16/10 
f 17/17/11 7/7/11 10/10/11 
f 18/18/12 19/19/12 17/17/12 
f 15/15/13 3/3/13 16/16/13 
f 17/17/14 19/19/14 5/5/14 
f 16/16/15 3/3/15 19/20/15 
f 3/3/16 5/5/16 19/19/16 
f 7/7/17 17/17/17 5/5/17 
f 18/21/18 10/22/18 20/23/18 
f 10/22/19 21/24/19 20/23/19 
f 21/24/20 22/25/20 20/23/20 
f 22/25/21 14/14/21 20/23/21 
f 16/16/22 19/20/22 18/21/22 
f 18/18/23 17/17/23 10/10/23 
f 10/22/24 9/26/24 21/24/24 
f 21/24/25 9/26/25 23/27/25 
f 9/9/26 24/28/26 23/29/26 
f 18/21/27 20/23/27 14/14/27 
f 14/14/27 16/16/27 18/21/27 
f 23/29/28 24/28/28 25/30/28 
f 4/4/29 2/2/29 6/6/29 
f 8/8/30 6/6/30 24/28/30 
f 11/11/31 26/31/31 1/1/31 
f 1/1/32 26/31/32 2/2/32 
f 6/6/33 2/2/33 24/28/33 
f 24/28/34 2/2/34 25/30/34 
f 25/30/35 2/2/35 26/31/35 
f 14/14/36 12/12/36 15/15/36 
f 1/1/37 3/3/37 12/12/37 
f 3/3/38 15/15/38 12/12/38 
f 13/13/39 22/25/39 26/31/39 
f 26/31/40 22/25/40 25/30/40 
f 25/30/41 22/25/41 23/27/41 
f 22/25/42 21/24/42 23/27/42 
f 13/13/43 26/31/43 11/11/43 
f 13/13/44 12/12/44 22/25/44 
f 12/12/45 14/14/45 22/25/45 
f 9/9/46 8/8/46 24/28/46 
# 48 faces

