# 3ds Max Wavefront OBJ Exporter v0.97b - (c)2007 guruware
# File Created: 21.04.2019 01:05:08

mtllib 11.mtl

#
# object mini001
#

v  -0.2443 0.7125 0.1436
v  -0.2934 0.7282 -0.0477
v  -0.2260 -0.8167 -0.0322
v  -0.2574 0.5157 -0.1506
v  0.3676 0.4536 0.0206
v  0.2312 -0.5968 0.0890
v  0.2513 -0.7552 -0.0489
v  0.2746 0.4654 -0.2325
v  0.0892 -0.7107 -0.2318
v  -0.1251 -0.7984 -0.2759
v  -0.0958 0.5784 -0.3325
v  0.0984 0.5764 -0.3462
v  0.0298 1.0472 0.2110
v  -0.1294 0.6390 0.2211
v  0.0672 0.5683 0.3177
v  0.0350 -0.6095 0.2746
v  -0.1388 -0.5951 0.1875
v  0.0005 -0.9196 0.2052
v  0.0830 -0.8626 -0.1883
v  -0.0744 -1.1588 -0.0411
v  -0.0342 -1.1542 -0.1104
v  0.0268 -1.1950 -0.0329
v  0.0335 -1.1703 -0.0792
v  0.1653 -0.9617 0.0325
v  0.3231 0.8600 -0.1360
v  0.1192 0.9009 -0.2896
v  0.1149 1.2194 -0.0643
# 27 vertices

vn -0.9685 -0.0414 0.2454
vn -0.9681 -0.0465 -0.2462
vn 0.9584 -0.1115 0.2627
vn 0.9352 -0.0728 -0.3466
vn 0.7289 -0.1198 -0.6740
vn -0.9209 -0.0581 -0.3855
vn -0.7456 -0.0120 -0.6663
vn -0.0709 -0.0912 -0.9933
vn 0.2191 -0.0464 -0.9746
vn 0.5039 -0.0831 -0.8597
vn -0.4562 0.2069 0.8655
vn -0.3834 0.1785 0.9062
vn -0.4527 -0.1519 0.8786
vn 0.7008 -0.2306 -0.6750
vn -0.7497 -0.3007 0.5895
vn -0.2999 -0.9251 -0.2329
vn 0.0071 -0.8898 -0.4564
vn 0.2995 -0.2837 -0.9110
vn 0.8944 -0.2295 0.3838
vn 0.6940 -0.0450 0.7186
vn 0.6879 -0.0470 0.7243
vn 0.7129 -0.5067 -0.4848
vn 0.9378 -0.0317 -0.3458
vn 0.6122 0.1205 -0.7815
vn 0.6735 -0.2402 0.6991
vn 0.6750 -0.2389 0.6980
vn 0.5839 0.4860 -0.6502
vn -0.7642 0.1774 -0.6201
vn -0.0673 0.1820 -0.9810
vn -0.7634 0.5983 0.2434
vn -0.5793 0.4910 -0.6506
vn -0.5796 0.4772 -0.6606
vn -0.7443 0.6483 0.1604
vn -0.4468 -0.0213 0.8944
vn -0.4496 -0.0217 0.8930
vn -0.5987 -0.1023 0.7944
vn -0.9285 -0.0031 0.3713
vn 0.9113 0.1615 0.3788
vn 0.7306 0.3139 0.6064
vn 0.7225 0.3262 0.6095
vn 0.5837 0.1068 -0.8049
vn -0.8350 -0.4027 -0.3749
vn -0.7988 -0.3545 -0.4861
vn 0.3163 -0.3739 -0.8719
vn 0.2693 -0.3601 -0.8932
vn 0.8604 -0.4929 -0.1295
vn 0.8418 -0.3047 -0.4456
vn 0.5494 -0.5274 0.6480
vn -0.7457 -0.3584 0.5617
vn -0.2834 -0.6562 0.6994
# 50 vertex normals

vt 0.9367 0.4432 0.0000
vt 0.9060 0.4483 0.0000
vt 0.9008 0.1864 0.0000
vt 0.8904 0.3967 0.0000
vt 0.7749 0.3932 0.0000
vt 0.7764 0.1885 0.0000
vt 0.8014 0.1946 0.0000
vt 0.8149 0.3752 0.0000
vt 0.8320 0.2081 0.0000
vt 0.8594 0.1959 0.0000
vt 0.8578 0.4053 0.0000
vt 0.8444 0.4262 0.0000
vt 0.9272 0.5039 0.0000
vt 0.9510 0.4212 0.0000
vt 0.9844 0.4137 0.0000
vt 0.9815 0.2519 0.0000
vt 0.9425 0.2393 0.0000
vt 0.9334 0.1487 0.0000
vt 0.8326 0.1854 0.0000
vt 0.8584 0.1383 0.0000
vt 0.8532 0.1453 0.0000
vt 0.8496 0.1338 0.0000
vt 0.8485 0.1416 0.0000
vt 0.8049 0.1588 0.0000
vt 0.7213 0.4181 0.0000
vt 0.7276 0.2515 0.0000
vt 0.8144 0.4514 0.0000
vt 0.8405 0.4532 0.0000
vt 0.7653 0.1459 0.0000
vt 0.8427 0.5134 0.0000
vt 0.7741 0.4986 0.0000
# 31 texture coords

g mini001
usemtl Material__25
s off
f 1/1/1 2/2/1 3/3/1 
f 2/2/2 4/4/2 3/3/2 
f 5/5/3 6/6/3 7/7/3 
f 7/7/4 8/8/4 5/5/4 
f 7/7/5 9/9/5 8/8/5 
f 3/3/6 4/4/6 10/10/6 
f 4/4/7 11/11/7 10/10/7 
f 11/11/8 12/12/8 9/9/8 
f 9/9/9 10/10/9 11/11/9 
f 12/12/10 8/8/10 9/9/10 
f 13/13/11 1/1/11 14/14/11 
f 13/13/12 14/14/12 15/15/12 
f 16/16/13 17/17/13 18/18/13 
f 19/19/14 9/9/14 7/7/14 
f 17/17/15 3/3/15 18/18/15 
f 20/20/16 21/21/16 22/22/16 
f 21/21/17 23/23/17 22/22/17 
f 9/9/18 19/19/18 10/10/18 
f 24/24/19 7/7/19 6/6/19 
f 5/5/20 15/25/20 6/6/20 
f 15/25/21 16/26/21 6/6/21 
f 24/24/22 19/19/22 7/7/22 
f 5/5/23 8/8/23 25/27/23 
f 8/8/24 26/28/24 25/27/24 
f 16/26/25 18/29/25 24/24/25 
f 24/24/26 6/6/26 16/26/26 
f 25/27/27 26/28/27 27/30/27 
f 4/4/28 2/2/28 11/11/28 
f 12/12/29 11/11/29 26/28/29 
f 1/1/30 13/13/30 2/2/30 
f 11/11/31 2/2/31 26/28/31 
f 26/28/32 2/2/32 27/30/32 
f 27/30/33 2/2/33 13/13/33 
f 16/16/34 15/15/34 14/14/34 
f 14/14/35 17/17/35 16/16/35 
f 1/1/36 3/3/36 14/14/36 
f 3/3/37 17/17/37 14/14/37 
f 13/31/38 15/25/38 27/30/38 
f 27/30/39 15/25/39 25/27/39 
f 15/25/40 5/5/40 25/27/40 
f 8/8/41 12/12/41 26/28/41 
f 3/3/42 10/10/42 21/21/42 
f 21/21/43 20/20/43 3/3/43 
f 19/19/44 23/23/44 21/21/44 
f 21/21/45 10/10/45 19/19/45 
f 24/24/46 22/22/46 23/23/46 
f 23/23/47 19/19/47 24/24/47 
f 22/22/48 24/24/48 18/29/48 
f 18/18/49 3/3/49 20/20/49 
f 18/18/50 20/20/50 22/22/50 
# 50 faces

