# 3ds Max Wavefront OBJ Exporter v0.97b - (c)2007 guruware
# File Created: 24.04.2019 15:37:16

mtllib 2.mtl

#
# object crystal_a2
#

v  2.1575 -19.9498 -16.8150
v  4.8941 23.1268 -18.1659
v  13.8780 -19.1457 -8.1749
v  10.1494 25.6653 -15.0607
v  15.4121 25.8088 -12.1189
v  13.2743 25.1408 -5.0227
v  -13.0467 28.0381 -10.2755
v  -12.4900 25.3412 -12.2797
v  -18.7721 19.6628 -11.6661
v  -15.3354 25.5367 -6.9996
v  -15.1374 -20.7639 -8.8850
v  -1.3509 -33.7438 1.5365
v  -16.6962 -8.2071 6.1955
v  20.2171 -21.0113 7.3733
v  21.7288 -16.8001 7.6726
v  20.5931 -16.9436 9.7436
v  4.7926 -32.4126 1.2544
v  13.9523 26.1404 4.1815
v  15.7263 12.7028 16.8645
v  -0.7398 -24.0076 13.0492
v  2.8157 -18.2426 15.9069
v  -4.9015 -18.4430 15.2611
v  -1.5786 -0.0792 18.6434
v  -2.8751 18.8884 18.9181
v  3.8722 26.1577 17.6364
v  11.3741 27.4740 11.9927
v  -4.6887 39.8675 7.6380
v  -0.0371 35.9335 13.2916
v  6.7102 32.6056 -7.1110
v  -2.7068 28.2336 17.2257
v  -4.3695 37.2201 -5.5324
v  -3.3105 33.7932 -8.6994
v  -0.3860 25.4377 -16.7061
v  -13.6628 26.0068 12.0372
v  -13.8038 30.8489 4.2879
v  -16.9040 17.6141 7.5662
v  -7.5168 26.0884 18.2599
# 37 vertices

vn 0.5422 0.0107 -0.8402
vn -0.8575 0.2382 -0.4559
vn -0.2564 -0.7516 -0.6078
vn -0.7699 -0.6249 0.1294
vn 0.8238 -0.3075 0.4763
vn 0.4352 -0.7103 -0.5533
vn 0.8319 -0.5545 0.0214
vn 0.9969 0.0013 -0.0784
vn -0.0063 -0.3257 0.9455
vn 0.4403 -0.6031 0.6651
vn 0.4311 -0.0170 0.9022
vn -0.5241 -0.6198 0.5841
vn 0.6431 0.7628 -0.0681
vn 0.2661 0.7335 0.6255
vn 0.4053 0.7403 -0.5364
vn -0.2669 0.6153 -0.7417
vn -0.3768 -0.0183 -0.9261
vn -0.9515 0.2625 0.1601
vn -0.7182 0.6821 -0.1377
vn -0.9938 0.0030 -0.1109
vn -0.6291 -0.0191 0.7771
vn -0.3835 0.7514 0.5369
vn 0.1198 0.3576 0.9262
vn 0.8725 0.4118 0.2631
vn 0.6113 0.7230 -0.3218
vn 0.1102 0.6051 -0.7885
# 26 vertex normals

vt 0.6666 0.7165 0.0000
vt 0.6464 0.9832 0.0000
vt 0.5776 0.7037 0.0000
vt 0.6065 0.9969 0.0000
vt 0.5680 0.9957 0.0000
vt 0.5388 0.8590 0.0000
vt 0.4919 0.8550 0.0000
vt 0.5186 0.5700 0.0000
vt 0.0263 0.9171 0.0000
vt 0.0091 0.9051 0.0000
vt 0.0126 0.8522 0.0000
vt 0.0442 0.8937 0.0000
vt 0.7802 0.6917 0.0000
vt 0.6805 0.5792 0.0000
vt 0.1303 0.6866 0.0000
vt 0.0479 0.6001 0.0000
vt 0.1448 0.5065 0.0000
vt 0.4115 0.5576 0.0000
vt 0.4077 0.5844 0.0000
vt 0.3929 0.5835 0.0000
vt 0.6383 0.5889 0.0000
vt 0.4854 0.4554 0.0000
vt 0.4329 0.8561 0.0000
vt 0.3507 0.7720 0.0000
vt 0.8242 0.6464 0.0000
vt 0.8478 0.6882 0.0000
vt 0.7973 0.6883 0.0000
vt 0.8288 0.8098 0.0000
vt 0.8308 0.5478 0.0000
vt 0.8713 0.5563 0.0000
vt 0.9686 0.6468 0.0000
vt 0.9706 0.6781 0.0000
vt 0.9516 0.8814 0.0000
vt 0.8334 0.9344 0.0000
vt 0.8830 0.9774 0.0000
vt 0.3827 0.8683 0.0000
vt 0.3267 0.8864 0.0000
vt 0.2121 0.5721 0.0000
vt 0.2127 0.6171 0.0000
vt 0.3899 0.9962 0.0000
vt 0.3593 0.9534 0.0000
vt 0.4965 0.9226 0.0000
vt 0.3072 0.9258 0.0000
vt 0.8247 0.4655 0.0000
vt 0.8002 0.5774 0.0000
vt 0.7671 0.5165 0.0000
vt 0.7544 0.5408 0.0000
vt 0.7752 0.6358 0.0000
vt 0.8081 0.6463 0.0000
vt 0.6905 0.5267 0.0000
vt 0.7243 0.6022 0.0000
vt 0.6801 0.5432 0.0000
vt 0.8077 0.9577 0.0000
vt 0.7670 0.9957 0.0000
vt 0.6824 0.9979 0.0000
vt 0.1618 0.8922 0.0000
vt 0.1161 0.9216 0.0000
vt 0.1322 0.8407 0.0000
vt 0.1501 0.9944 0.0000
vt 0.0642 0.9951 0.0000
vt 0.2502 0.7332 0.0000
vt 0.2417 0.8526 0.0000
vt 0.2131 0.8998 0.0000
vt 0.2018 0.9847 0.0000
vt 0.2230 0.9319 0.0000
vt 0.8417 0.9962 0.0000
vt 0.8083 0.9850 0.0000
vt 0.7374 0.6336 0.0000
# 68 texture coords

g crystal_a2
usemtl Material__29
s off
f 1/1/1 2/2/1 3/3/1 
f 2/2/1 4/4/1 3/3/1 
f 4/4/1 5/5/1 3/3/1 
f 5/6/1 6/7/1 3/8/1 
f 7/9/2 8/10/2 9/11/2 
f 9/11/2 10/12/2 7/9/2 
f 11/13/3 1/1/3 12/14/3 
f 13/15/4 11/16/4 12/17/4 
f 14/18/5 15/19/5 16/20/5 
f 3/3/6 17/21/6 1/1/6 
f 1/1/6 17/21/6 12/14/6 
f 15/19/7 14/18/7 3/8/7 
f 3/8/7 14/18/7 17/22/7 
f 3/8/8 6/7/8 15/19/8 
f 6/7/8 18/23/8 15/19/8 
f 18/23/8 19/24/8 15/19/8 
f 20/25/9 21/26/9 22/27/9 
f 22/27/9 21/26/9 23/28/9 
f 12/29/10 17/30/10 20/25/10 
f 17/30/10 14/31/10 20/25/10 
f 20/25/10 14/31/10 21/26/10 
f 14/31/10 16/32/10 21/26/10 
f 15/19/11 19/24/11 16/20/11 
f 16/32/11 19/33/11 21/26/11 
f 21/26/11 19/33/11 23/28/11 
f 23/28/11 19/33/11 24/34/11 
f 24/34/11 19/33/11 25/35/11 
f 19/24/11 26/36/11 25/37/11 
f 20/38/12 22/39/12 13/15/12 
f 13/15/12 12/17/12 20/38/12 
f 27/40/13 28/41/13 29/42/13 
f 28/41/13 26/36/13 29/42/13 
f 26/36/13 18/23/13 29/42/13 
f 18/23/13 6/7/13 29/42/13 
f 30/43/14 25/37/14 26/36/14 
f 26/36/14 28/41/14 30/43/14 
f 27/44/15 29/45/15 31/46/15 
f 31/46/15 29/45/15 32/47/15 
f 32/47/15 29/45/15 4/48/15 
f 29/45/15 5/49/15 4/48/15 
f 31/46/16 32/47/16 7/50/16 
f 33/51/16 8/52/16 32/47/16 
f 32/47/16 8/52/16 7/50/16 
f 11/13/17 9/53/17 1/1/17 
f 9/53/17 8/54/17 1/1/17 
f 8/54/17 33/55/17 1/1/17 
f 33/55/17 2/2/17 1/1/17 
f 34/56/18 35/57/18 10/12/18 
f 10/12/18 36/58/18 34/56/18 
f 27/59/19 31/60/19 35/57/19 
f 10/12/19 35/57/19 7/9/19 
f 7/9/19 35/57/19 31/60/19 
f 11/16/20 13/15/20 9/11/20 
f 10/12/20 9/11/20 36/58/20 
f 9/11/20 13/15/20 36/58/20 
f 22/39/21 23/61/21 13/15/21 
f 13/15/21 23/61/21 36/58/21 
f 23/61/21 24/62/21 36/58/21 
f 36/58/21 24/62/21 34/56/21 
f 34/56/21 24/62/21 37/63/21 
f 35/57/22 34/56/22 27/59/22 
f 27/59/22 34/56/22 28/64/22 
f 28/64/22 34/56/22 30/65/22 
f 34/56/22 37/63/22 30/65/22 
f 30/66/23 37/67/23 24/34/23 
f 24/34/23 25/35/23 30/66/23 
f 19/24/24 18/23/24 26/36/24 
f 29/42/25 6/7/25 5/6/25 
f 2/68/26 33/51/26 32/47/26 
f 32/47/26 4/48/26 2/68/26 
# 70 faces

