# 3ds Max Wavefront OBJ Exporter v0.97b - (c)2007 guruware
# File Created: 21.04.2019 00:59:51

mtllib 2.mtl

#
# object crystal1
#

v  -0.8277 -1.2278 0.2009
v  -0.7575 0.9440 0.2988
v  -0.6944 -1.1152 -0.7716
v  -0.7032 1.0672 -0.0020
v  -0.6657 1.1048 -0.2962
v  -0.7171 0.7563 -0.5637
v  -0.3678 1.0109 0.8100
v  -0.3071 0.8369 0.9259
v  -0.2718 1.1157 0.7958
v  -0.1280 1.0320 0.8578
v  0.1911 -1.9400 -0.2910
v  0.2217 -1.9235 -0.1979
v  -0.3367 -0.9456 1.0625
v  0.7328 -0.9945 0.7140
v  0.1857 -1.1027 -0.9118
v  0.1014 -1.0214 -0.9839
v  0.2928 -0.9444 -0.9619
v  0.2106 -0.8737 -1.0026
v  0.1560 -1.9115 -0.3662
v  -0.4427 1.1583 -0.5421
v  -0.0252 1.1915 -0.6640
v  0.1553 0.8968 -0.8304
v  0.8754 -1.2173 -0.1092
v  0.8514 -0.9938 -0.3531
v  1.0396 -0.9803 0.1678
v  1.0547 -0.5231 -0.0303
v  0.8170 0.8762 0.0429
v  0.2423 1.1895 -0.6836
v  -0.0435 1.9400 0.0647
v  0.1504 1.3186 -0.5402
v  0.0763 1.8824 0.0044
v  -0.0653 1.8733 0.2136
v  0.5020 0.7758 0.7138
# 33 vertices

vn -0.9885 -0.0641 -0.1370
vn -0.9885 -0.0809 -0.1281
vn -0.1918 0.4919 0.8493
vn -0.3133 -0.7770 0.5460
vn 0.1463 -0.7346 0.6625
vn 0.2457 -0.4297 -0.8689
vn -0.6237 -0.7658 -0.1569
vn -0.1235 -0.5821 -0.8037
vn -0.3351 0.0323 -0.9416
vn 0.9103 -0.2621 -0.3204
vn 0.6248 -0.5049 -0.5956
vn 0.7785 0.0715 -0.6236
vn 0.6683 -0.6970 0.2598
vn -0.1045 0.9146 -0.3906
vn 0.5450 0.8062 -0.2303
vn -0.5134 0.8563 -0.0556
vn -0.5335 0.8114 0.2387
vn -0.7512 -0.1438 0.6443
vn 0.2862 0.8461 0.4496
vn 0.2775 -0.0604 0.9588
vn 0.8937 0.0431 0.4466
vn 0.4947 0.7989 0.3422
vn -0.0526 0.8896 -0.4537
vn -0.3832 0.8920 -0.2398
# 24 vertex normals

vt 0.1502 0.4607 0.0000
vt 0.1518 0.1868 0.0000
vt 0.2851 0.4747 0.0000
vt 0.2021 0.1678 0.0000
vt 0.2545 0.1623 0.0000
vt 0.2973 0.2075 0.0000
vt 0.5800 0.1629 0.0000
vt 0.5743 0.1965 0.0000
vt 0.5601 0.1523 0.0000
vt 0.5402 0.1730 0.0000
vt 0.1730 0.6356 0.0000
vt 0.1587 0.6350 0.0000
vt 0.0094 0.4352 0.0000
vt 0.4113 0.4401 0.0000
vt 0.5677 0.4503 0.0000
vt 0.3949 0.6252 0.0000
vt 0.6259 0.1392 0.0000
vt 0.6354 0.1555 0.0000
vt 0.6081 0.1606 0.0000
vt 0.6184 0.1736 0.0000
vt 0.1851 0.6319 0.0000
vt 0.7472 0.1455 0.0000
vt 0.6482 0.0094 0.0000
vt 0.7946 0.4013 0.0000
vt 0.7225 0.4483 0.0000
vt 0.6443 0.4513 0.0000
vt 0.5757 0.4295 0.0000
vt 0.8189 0.1284 0.0000
vt 0.8500 0.1603 0.0000
vt 0.7749 0.1617 0.0000
vt 0.7992 0.2255 0.0000
vt 0.9628 0.1550 0.0000
vt 0.9643 0.1276 0.0000
vt 0.8968 0.0130 0.0000
vt 0.8856 0.0094 0.0000
vt 0.8023 0.4134 0.0000
vt 0.9666 0.4514 0.0000
vt 0.9906 0.4237 0.0000
vt 0.9759 0.1642 0.0000
vt 0.3874 0.6364 0.0000
vt 0.3243 0.5076 0.0000
vt 0.3307 0.4511 0.0000
vt 0.6968 0.6116 0.0000
vt 0.6197 0.4845 0.0000
vt 0.6666 0.6037 0.0000
vt 0.9550 0.4822 0.0000
vt 0.8767 0.5818 0.0000
vt 0.1767 0.0094 0.0000
vt 0.1438 0.0215 0.0000
vt 0.0453 0.1335 0.0000
vt 0.0493 0.1559 0.0000
vt 0.0248 0.1780 0.0000
vt 0.4410 0.0094 0.0000
vt 0.4688 0.0309 0.0000
vt 0.4382 0.2161 0.0000
vt 0.3147 0.1901 0.0000
vt 0.2997 0.3862 0.0000
vt 0.4105 0.0200 0.0000
vt 0.5967 0.4601 0.0000
vt 0.7796 0.4637 0.0000
# 60 texture coords

g crystal1
usemtl Material__25
s off
f 1/1/1 2/2/1 3/3/1 
f 2/2/2 4/4/2 3/3/2 
f 4/4/2 5/5/2 3/3/2 
f 5/5/2 6/6/2 3/3/2 
f 7/7/3 8/8/3 9/9/3 
f 9/9/3 8/8/3 10/10/3 
f 11/11/4 12/12/4 1/1/4 
f 13/13/4 1/1/4 12/12/4 
f 14/14/5 13/15/5 12/16/5 
f 15/17/6 16/18/6 17/19/6 
f 17/19/6 16/18/6 18/20/6 
f 11/11/7 1/1/7 19/21/7 
f 1/1/7 3/3/7 19/21/7 
f 16/18/8 15/17/8 3/22/8 
f 3/22/8 15/17/8 19/23/8 
f 3/22/9 6/24/9 16/18/9 
f 16/18/9 6/24/9 18/20/9 
f 6/24/9 20/25/9 18/20/9 
f 20/25/9 21/26/9 18/20/9 
f 21/26/9 22/27/9 18/20/9 
f 23/28/10 24/29/10 25/30/10 
f 25/30/10 24/29/10 26/31/10 
f 17/32/11 24/29/11 15/33/11 
f 15/33/11 24/29/11 19/34/11 
f 19/34/11 24/29/11 11/35/11 
f 24/29/11 23/28/11 11/35/11 
f 27/36/12 26/31/12 28/37/12 
f 28/37/12 26/31/12 22/38/12 
f 26/31/12 24/29/12 22/38/12 
f 22/38/12 24/29/12 18/39/12 
f 24/29/12 17/32/12 18/39/12 
f 11/40/13 23/41/13 12/16/13 
f 14/14/13 12/16/13 25/42/13 
f 23/41/13 25/42/13 12/16/13 
f 20/25/14 29/43/14 21/26/14 
f 21/26/14 29/43/14 30/44/14 
f 30/44/14 29/43/14 31/45/14 
f 28/37/15 30/46/15 27/36/15 
f 27/36/15 30/46/15 31/47/15 
f 5/5/16 4/4/16 29/48/16 
f 29/48/16 4/4/16 32/49/16 
f 32/49/17 4/4/17 9/50/17 
f 4/4/17 2/2/17 9/50/17 
f 7/51/17 9/50/17 2/2/17 
f 1/1/18 13/13/18 2/2/18 
f 13/13/18 8/52/18 2/2/18 
f 7/51/18 2/2/18 8/52/18 
f 29/53/19 32/54/19 33/55/19 
f 9/9/19 10/10/19 32/54/19 
f 10/10/19 33/55/19 32/54/19 
f 14/14/20 33/55/20 13/15/20 
f 13/15/20 33/55/20 8/8/20 
f 10/10/20 8/8/20 33/55/20 
f 33/55/21 14/14/21 27/56/21 
f 25/42/21 26/57/21 14/14/21 
f 14/14/21 26/57/21 27/56/21 
f 27/56/22 31/58/22 33/55/22 
f 33/55/22 31/58/22 29/53/22 
f 22/27/23 21/26/23 28/59/23 
f 28/59/23 21/26/23 30/44/23 
f 29/43/24 20/25/24 5/60/24 
f 5/60/24 20/25/24 6/24/24 
# 62 faces

