# This file uses centimeters as units for non-parametric coordinates.

mtllib small9.mtl
g default
v 0.060684 1.976012 0.431954
v 0.327445 2.062313 -0.232432
v -0.255947 2.024858 0.316847
v 0.362846 2.071107 0.148446
v 0.029419 2.408044 0.074506
v -0.025301 2.015695 -0.348341
v -0.256991 2.115463 0.001900
v -0.362846 1.906537 0.007102
v 0.124391 -2.408044 -0.010168
v 0.063347 -2.380823 -0.046022
v 0.154697 -2.392477 0.015907
v 0.150851 -2.167096 0.213983
v 0.068064 -1.712357 0.457478
v -0.006482 -1.923452 0.437193
v -0.256537 -1.895212 0.363637
v -0.354503 -1.897416 0.025681
v -0.043401 -2.062413 -0.335895
v -0.033619 -1.941153 -0.457478
v 0.312619 -1.890486 -0.285125
v 0.304515 -2.044106 -0.038744
v 0.318589 -1.853078 0.123163
vt 0.588156 0.934001
vt 0.550123 0.489505
vt 0.583761 0.475546
vt 0.418562 0.908254
vt 0.416067 0.944065
vt 0.374053 0.917951
vt 0.382278 0.464283
vt 0.433935 0.420535
vt 0.458307 0.483913
vt 0.424480 0.487287
vt 0.520290 0.490041
vt 0.534212 0.437147
vt 0.563208 0.909351
vt 0.524073 0.914386
vt 0.488069 0.461695
vt 0.483890 0.492274
vt 0.514445 0.938593
vt 0.470495 0.901840
vt 0.564286 0.989362
vt 0.461523 0.974424
vt 0.570474 0.987918
vt 0.429872 0.981821
vt 0.376215 0.957904
vt 0.438482 0.900354
vt 0.442846 0.981961
vt 0.413236 0.890782
vt 0.606464 0.907600
vt 0.553757 0.987388
vn 0.921834 -0.061032 -0.382749
vn 0.699654 0.359630 -0.617374
vn 0.873065 0.375311 0.311288
vn 0.196361 -0.438306 0.877115
vn 0.370957 -0.542898 0.753427
vn 0.879690 -0.164660 0.446131
vn -0.819261 0.378553 0.430708
vn 0.227493 0.232800 0.945543
vn 0.012245 0.822154 0.569134
vn -0.044145 -0.191262 -0.980546
vn -0.343958 0.053941 -0.937434
vn 0.699654 0.359630 -0.617374
vn -0.385948 0.711798 -0.586846
vn -0.635177 0.735001 -0.237329
vn -0.721630 0.635690 -0.274132
vn -0.044145 -0.191262 -0.980546
vn -0.295307 -0.607629 -0.737280
vn -0.954000 -0.275702 -0.117782
vn -0.954000 -0.275702 -0.117782
vn -0.943048 0.026731 -0.331581
vn -0.343958 0.053941 -0.937434
vn -0.943048 0.026731 -0.331581
vn -0.768693 0.439594 -0.464617
vn -0.505659 0.460115 -0.729796
vn -0.635177 0.735001 -0.237329
vn -0.883684 0.467669 -0.019712
vn -0.819261 0.378553 0.430708
vn 0.164614 -0.683190 -0.711445
vn 0.086863 -0.692373 -0.716292
vn 0.459589 -0.512953 -0.725022
vn 0.164614 -0.683190 -0.711445
vn 0.459589 -0.512953 -0.725022
vn 0.446871 -0.628705 -0.636425
vn 0.781971 -0.577939 0.233471
vn 0.975581 -0.206943 0.073591
vn 0.879690 -0.164660 0.446131
vn 0.196361 -0.438306 0.877115
vn -0.557606 -0.262763 0.787421
vn -0.394708 -0.689829 0.606912
vn 0.370957 -0.542898 0.753427
vn -0.394708 -0.689829 0.606912
vn 0.781971 -0.577939 0.233471
vn 0.196361 -0.438306 0.877115
vn 0.281683 -0.087119 0.955545
vn -0.557606 -0.262763 0.787421
vn 0.227493 0.232800 0.945543
vn -0.819261 0.378553 0.430708
vn -0.557606 -0.262763 0.787421
vn -0.819261 0.378553 0.430708
vn -0.943048 0.026731 -0.331581
vn -0.954000 -0.275702 -0.117782
vn -0.954000 -0.275702 -0.117782
vn -0.267706 -0.843526 -0.465614
vn -0.394708 -0.689829 0.606912
vn 0.879690 -0.164660 0.446131
vn 0.873065 0.375311 0.311288
vn 0.227493 0.232800 0.945543
vn 0.879690 -0.164660 0.446131
vn 0.975581 -0.206943 0.073591
vn 0.921834 -0.061032 -0.382749
vn 0.879690 -0.164660 0.446131
vn 0.921834 -0.061032 -0.382749
vn 0.873065 0.375311 0.311288
vn 0.281683 -0.087119 0.955545
vn 0.196361 -0.438306 0.877115
vn 0.879690 -0.164660 0.446131
vn 0.227493 0.232800 0.945543
vn 0.873065 0.375311 0.311288
vn 0.012245 0.822154 0.569134
vn 0.873065 0.375311 0.311288
vn 0.699654 0.359630 -0.617374
vn 0.744283 0.639081 0.193953
vn 0.699654 0.359630 -0.617374
vn 0.027915 0.565508 -0.824270
vn 0.118360 0.851859 -0.510223
vn 0.921834 -0.061032 -0.382749
vn -0.044145 -0.191262 -0.980546
vn 0.699654 0.359630 -0.617374
vn -0.044145 -0.191262 -0.980546
vn -0.954000 -0.275702 -0.117782
vn -0.343958 0.053941 -0.937434
vn -0.635177 0.735001 -0.237329
vn -0.819261 0.378553 0.430708
vn -0.721630 0.635690 -0.274132
vn -0.267706 -0.843526 -0.465614
vn 0.164614 -0.683190 -0.711445
vn 0.446871 -0.628705 -0.636425
vn -0.954000 -0.275702 -0.117782
vn -0.295307 -0.607629 -0.737280
vn -0.267706 -0.843526 -0.465614
vn 0.446871 -0.628705 -0.636425
vn 0.871377 -0.391655 -0.295481
vn 0.781971 -0.577939 0.233471
vn 0.370957 -0.542898 0.753427
vn 0.781971 -0.577939 0.233471
vn 0.879690 -0.164660 0.446131
vn 0.370957 -0.542898 0.753427
vn 0.196361 -0.438306 0.877115
vn -0.394708 -0.689829 0.606912
vn 0.281683 -0.087119 0.955545
vn 0.227493 0.232800 0.945543
vn -0.557606 -0.262763 0.787421
vn -0.557606 -0.262763 0.787421
vn -0.819261 0.378553 0.430708
vn -0.954000 -0.275702 -0.117782
vn -0.557606 -0.262763 0.787421
vn -0.954000 -0.275702 -0.117782
vn -0.394708 -0.689829 0.606912
vn 0.446871 -0.628705 -0.636425
vn 0.459589 -0.512953 -0.725022
vn 0.871377 -0.391655 -0.295481
vn 0.281683 -0.087119 0.955545
vn 0.879690 -0.164660 0.446131
vn 0.227493 0.232800 0.945543
s off
g crystal_small_002
usemtl crystal_small_003SG
f 19/13/1 2/2/2 4/3/3
f 14/4/4 12/5/5 21/6/6
f 3/9/7 1/10/8 5/8/9
f 18/14/10 6/11/11 2/2/12
f 6/11/13 7/15/14 5/12/15
f 18/14/16 17/17/17 16/18/18
f 16/18/19 8/16/20 6/11/21
f 8/16/22 7/15/23 6/11/24
f 7/15/25 8/16/26 3/9/27
f 17/17/28 18/14/29 19/13/30
f 17/17/31 19/13/32 9/19/33
f 11/22/34 20/23/35 21/6/36
f 14/4/37 15/24/38 9/25/39
f 12/5/40 9/25/41 11/22/42
f 14/4/43 13/26/44 15/24/45
f 1/10/46 3/9/47 15/24/48
f 3/9/49 8/16/50 16/18/51
f 16/18/52 10/20/53 9/25/54
f 21/6/55 4/7/56 1/10/57
f 21/27/58 20/1/59 19/13/60
f 21/27/61 19/13/62 4/3/63
f 13/26/64 14/4/65 21/6/66
f 1/10/67 4/7/68 5/8/69
f 4/3/70 2/2/71 5/12/72
f 2/2/73 6/11/74 5/12/75
f 19/13/76 18/14/77 2/2/78
f 18/14/79 16/18/80 6/11/81
f 7/15/82 3/9/83 5/8/84
f 10/28/85 17/17/86 9/19/87
f 16/18/88 17/17/89 10/20/90
f 9/19/91 20/1/92 11/21/93
f 12/5/94 11/22/95 21/6/96
f 12/5/97 14/4/98 9/25/99
f 13/26/100 1/10/101 15/24/102
f 15/24/103 3/9/104 16/18/105
f 15/24/106 16/18/107 9/25/108
f 9/19/109 19/13/110 20/1/111
f 13/26/112 21/6/113 1/10/114
