# 3ds Max Wavefront OBJ Exporter v0.97b - (c)2007 guruware
# File Created: 21.04.2019 01:00:44

mtllib 3.mtl

#
# object crystal1
#

v  -0.8176 -0.9492 0.1876
v  -0.6019 0.7298 0.2360
v  -0.6788 -0.8622 -0.7374
v  -0.5554 0.8251 -0.0020
v  -0.5249 0.8541 -0.2332
v  -0.5763 0.5847 -0.4515
v  -0.2922 0.7815 0.6389
v  -0.2471 0.6470 0.7363
v  -0.2150 0.8626 0.6250
v  -0.1027 0.7979 0.6760
v  0.0768 -1.4998 -0.0159
v  0.1088 -1.4871 0.0830
v  -0.3308 -0.7310 0.9832
v  0.6669 -0.7689 0.6629
v  0.1562 -0.8525 -0.8690
v  0.0764 -0.7897 -0.9279
v  0.2544 -0.7301 -0.8989
v  0.1772 -0.6755 -0.9289
v  0.0395 -1.4778 -0.0937
v  -0.3486 0.8955 -0.4257
v  -0.0209 0.9211 -0.5207
v  0.1209 0.6933 -0.6596
v  0.8197 -0.9411 -0.1105
v  0.7778 -0.7683 -0.3350
v  0.9524 -0.7579 0.1518
v  0.9229 -0.4044 -0.0303
v  0.6466 0.6774 0.0335
v  0.1887 0.9196 -0.5361
v  -0.0336 1.4998 0.0501
v  0.1165 1.0195 -0.4217
v  0.0590 1.4553 0.0034
v  -0.0505 1.4483 0.1652
v  0.3980 0.5998 0.5693
# 33 vertices

vn -0.9883 -0.0645 -0.1381
vn -0.9888 -0.0663 -0.1339
vn -0.1873 0.5059 0.8420
vn -0.3842 -0.6834 0.6207
vn 0.1771 -0.6310 0.7553
vn 0.2425 -0.3587 -0.9014
vn -0.7298 -0.6543 -0.1982
vn -0.1421 -0.4728 -0.8697
vn -0.3296 0.0311 -0.9436
vn 0.9251 -0.2108 -0.3157
vn 0.6570 -0.4051 -0.6358
vn 0.7771 0.0682 -0.6257
vn 0.7666 -0.5850 0.2647
vn -0.0934 0.9222 -0.3752
vn 0.5408 0.8100 -0.2267
vn -0.4759 0.8778 -0.0546
vn -0.5200 0.8242 0.2242
vn -0.7483 -0.1520 0.6457
vn 0.2895 0.8508 0.4385
vn 0.2851 -0.0567 0.9568
vn 0.8970 0.0495 0.4393
vn 0.4987 0.7999 0.3338
vn -0.0557 0.8980 -0.4365
vn -0.3641 0.9026 -0.2295
# 24 vertex normals

vt 0.1502 0.4607 0.0000
vt 0.1518 0.1868 0.0000
vt 0.2851 0.4747 0.0000
vt 0.2021 0.1678 0.0000
vt 0.2545 0.1623 0.0000
vt 0.2973 0.2075 0.0000
vt 0.5800 0.1629 0.0000
vt 0.5743 0.1965 0.0000
vt 0.5601 0.1523 0.0000
vt 0.5402 0.1730 0.0000
vt 0.1730 0.6356 0.0000
vt 0.1587 0.6350 0.0000
vt 0.0094 0.4352 0.0000
vt 0.4113 0.4401 0.0000
vt 0.5677 0.4503 0.0000
vt 0.3949 0.6252 0.0000
vt 0.6259 0.1392 0.0000
vt 0.6354 0.1555 0.0000
vt 0.6081 0.1606 0.0000
vt 0.6184 0.1736 0.0000
vt 0.1851 0.6319 0.0000
vt 0.7472 0.1455 0.0000
vt 0.6482 0.0094 0.0000
vt 0.7946 0.4013 0.0000
vt 0.7225 0.4483 0.0000
vt 0.6443 0.4513 0.0000
vt 0.5757 0.4295 0.0000
vt 0.8189 0.1284 0.0000
vt 0.8500 0.1603 0.0000
vt 0.7749 0.1617 0.0000
vt 0.7992 0.2255 0.0000
vt 0.9628 0.1550 0.0000
vt 0.9643 0.1276 0.0000
vt 0.8968 0.0130 0.0000
vt 0.8856 0.0094 0.0000
vt 0.8023 0.4134 0.0000
vt 0.9666 0.4514 0.0000
vt 0.9906 0.4237 0.0000
vt 0.9759 0.1642 0.0000
vt 0.3874 0.6364 0.0000
vt 0.3243 0.5076 0.0000
vt 0.3307 0.4511 0.0000
vt 0.6968 0.6116 0.0000
vt 0.6197 0.4845 0.0000
vt 0.6666 0.6037 0.0000
vt 0.9550 0.4822 0.0000
vt 0.8767 0.5818 0.0000
vt 0.1767 0.0094 0.0000
vt 0.1438 0.0215 0.0000
vt 0.0453 0.1335 0.0000
vt 0.0493 0.1559 0.0000
vt 0.0248 0.1780 0.0000
vt 0.4410 0.0094 0.0000
vt 0.4688 0.0309 0.0000
vt 0.4382 0.2161 0.0000
vt 0.3147 0.1901 0.0000
vt 0.2997 0.3862 0.0000
vt 0.4105 0.0200 0.0000
vt 0.5967 0.4601 0.0000
vt 0.7796 0.4637 0.0000
# 60 texture coords

g crystal1
usemtl Material__25
s off
f 1/1/1 2/2/1 3/3/1 
f 2/2/2 4/4/2 3/3/2 
f 4/4/2 5/5/2 3/3/2 
f 5/5/2 6/6/2 3/3/2 
f 7/7/3 8/8/3 9/9/3 
f 9/9/3 8/8/3 10/10/3 
f 11/11/4 12/12/4 1/1/4 
f 13/13/4 1/1/4 12/12/4 
f 14/14/5 13/15/5 12/16/5 
f 15/17/6 16/18/6 17/19/6 
f 17/19/6 16/18/6 18/20/6 
f 11/11/7 1/1/7 19/21/7 
f 1/1/7 3/3/7 19/21/7 
f 16/18/8 15/17/8 3/22/8 
f 3/22/8 15/17/8 19/23/8 
f 3/22/9 6/24/9 16/18/9 
f 16/18/9 6/24/9 18/20/9 
f 6/24/9 20/25/9 18/20/9 
f 20/25/9 21/26/9 18/20/9 
f 21/26/9 22/27/9 18/20/9 
f 23/28/10 24/29/10 25/30/10 
f 25/30/10 24/29/10 26/31/10 
f 17/32/11 24/29/11 15/33/11 
f 15/33/11 24/29/11 19/34/11 
f 19/34/11 24/29/11 11/35/11 
f 24/29/11 23/28/11 11/35/11 
f 27/36/12 26/31/12 28/37/12 
f 28/37/12 26/31/12 22/38/12 
f 26/31/12 24/29/12 22/38/12 
f 22/38/12 24/29/12 18/39/12 
f 24/29/12 17/32/12 18/39/12 
f 11/40/13 23/41/13 12/16/13 
f 14/14/13 12/16/13 25/42/13 
f 23/41/13 25/42/13 12/16/13 
f 20/25/14 29/43/14 21/26/14 
f 21/26/14 29/43/14 30/44/14 
f 30/44/14 29/43/14 31/45/14 
f 28/37/15 30/46/15 27/36/15 
f 27/36/15 30/46/15 31/47/15 
f 5/5/16 4/4/16 29/48/16 
f 29/48/16 4/4/16 32/49/16 
f 32/49/17 4/4/17 9/50/17 
f 4/4/17 2/2/17 9/50/17 
f 7/51/17 9/50/17 2/2/17 
f 1/1/18 13/13/18 2/2/18 
f 13/13/18 8/52/18 2/2/18 
f 7/51/18 2/2/18 8/52/18 
f 29/53/19 32/54/19 33/55/19 
f 9/9/19 10/10/19 32/54/19 
f 10/10/19 33/55/19 32/54/19 
f 14/14/20 33/55/20 13/15/20 
f 13/15/20 33/55/20 8/8/20 
f 10/10/20 8/8/20 33/55/20 
f 33/55/21 14/14/21 27/56/21 
f 25/42/21 26/57/21 14/14/21 
f 14/14/21 26/57/21 27/56/21 
f 27/56/22 31/58/22 33/55/22 
f 33/55/22 31/58/22 29/53/22 
f 22/27/23 21/26/23 28/59/23 
f 28/59/23 21/26/23 30/44/23 
f 29/43/24 20/25/24 5/60/24 
f 5/60/24 20/25/24 6/24/24 
# 62 faces

