# This file uses centimeters as units for non-parametric coordinates.

mtllib small10.mtl
g default
v -0.615732 1.212105 -1.002281
v -0.782797 2.163431 -0.027928
v -0.744074 2.177947 0.010562
v -0.661574 2.120051 0.050442
v 0.921412 0.957631 -0.099569
v 1.046328 0.643561 -0.156933
v 0.266367 1.113931 -0.769659
v 0.645563 0.816780 -0.703762
v 0.363367 0.289655 -1.146908
v 0.113101 -2.047224 -0.205736
v -0.949535 -1.480025 0.569137
v -1.100834 -0.999038 0.632875
v -0.358006 -1.664510 -0.795215
v -0.682435 -1.359808 -0.500408
v -0.511194 -0.909236 -1.059055
v 0.206238 -1.529423 -1.066698
v 0.220645 -1.284086 -1.172569
v 0.945339 -1.426988 -0.499596
v 0.920067 -1.563153 -0.292951
v 1.176479 -1.008635 -0.305258
v -0.066819 -2.177947 -0.057120
v 0.529097 -1.293542 0.977080
v -0.371474 -2.017358 0.337114
v -0.968813 -1.324715 0.714635
v -1.132322 1.443636 0.364356
v -1.114231 1.594612 0.463308
v -1.176479 1.217530 0.581579
v 0.363494 0.738359 1.172569
v -0.366769 0.912638 1.168802
v -0.578888 -1.268585 1.037809
v -0.282711 -1.267709 1.115925
v -0.599143 0.925981 1.107513
vt 0.630181 0.122685
vt 0.581187 0.125483
vt 0.910010 0.119102
vt 0.906592 0.147923
vt 0.886920 0.307279
vt 0.889464 0.320170
vt 0.843069 0.354722
vt 0.704515 0.281509
vt 0.704792 0.249255
vt 0.711079 0.083652
vt 0.711870 0.138040
vt 0.767334 0.276136
vt 0.743988 0.257531
vt 0.768458 0.222979
vt 0.839396 0.366460
vt 0.729713 0.104871
vt 0.782505 0.121291
vt 0.779226 0.133019
vt 0.814882 0.276905
vt 0.621002 0.009221
vt 0.651171 0.018849
vt 0.737747 0.082741
vt 0.581532 0.038632
vt 0.527526 0.114160
vt 0.526747 0.091894
vt 0.561071 0.122780
vt 0.518900 0.144473
vt 0.580309 0.274670
vt 0.540846 0.308367
vt 0.813110 0.113593
vt 0.838049 0.128546
vt 0.896899 0.107748
vt 0.821220 0.060012
vt 0.901802 0.291276
vt 0.814419 0.156042
vt 0.798893 0.066475
vt 0.557911 0.341132
vt 0.602689 0.382990
vt 0.599479 0.385260
vt 0.592126 0.270021
vt 0.541672 0.335375
vt 0.629850 0.252478
vt 0.609977 0.377138
vt 0.826661 0.368795
vt 0.857284 0.065678
vn 0.683312 -0.131675 0.718155
vn 0.496552 0.043227 0.866930
vn -0.052112 0.035067 0.998025
vn -0.982805 0.150384 -0.107137
vn -0.610355 0.684504 0.398648
vn -0.891224 0.441411 -0.104292
vn 0.683312 -0.131675 0.718155
vn 0.984065 -0.116636 -0.134213
vn 0.982245 0.023627 -0.186108
vn 0.982245 0.023627 -0.186108
vn 0.834275 0.489232 0.254239
vn 0.848500 0.302494 0.434218
vn 0.479910 0.616209 -0.624478
vn 0.761037 0.200833 -0.616838
vn 0.386974 0.263796 -0.883551
vn 0.830506 0.405050 -0.382355
vn 0.761037 0.200833 -0.616838
vn 0.479910 0.616209 -0.624478
vn 0.689966 0.711880 -0.131051
vn 0.479910 0.616209 -0.624478
vn 0.213686 0.964961 0.152276
vn 0.848157 -0.318402 -0.423378
vn 0.539236 -0.454858 -0.708751
vn 0.477983 -0.039122 -0.877497
vn 0.477983 -0.039122 -0.877497
vn 0.305467 0.053274 -0.950711
vn 0.982245 0.023627 -0.186108
vn 0.761037 0.200833 -0.616838
vn 0.830506 0.405050 -0.382355
vn 0.982245 0.023627 -0.186108
vn -0.368419 0.347843 -0.862133
vn 0.355469 0.698517 -0.621060
vn 0.213686 0.964961 0.152276
vn 0.247925 0.392933 -0.885515
vn 0.061987 0.239648 -0.968879
vn -0.368419 0.347843 -0.862133
vn 0.819284 -0.498246 0.283769
vn 0.425966 -0.811230 0.400574
vn 0.509027 -0.859969 -0.036676
vn 0.819284 -0.498246 0.283769
vn 0.611930 -0.655957 0.441884
vn 0.425966 -0.811230 0.400574
vn 0.539236 -0.454858 -0.708751
vn 0.848157 -0.318402 -0.423378
vn 0.656132 -0.713115 -0.246898
vn 0.259127 -0.603936 0.753734
vn -0.023941 -0.603428 0.797058
vn 0.000795 -0.762110 0.647447
vn -0.480300 -0.559526 0.675457
vn -0.746358 -0.642432 0.173869
vn -0.452562 -0.839620 0.300376
vn -0.465368 -0.295740 0.834249
vn -0.986396 -0.092178 0.136109
vn -0.811659 -0.263094 0.521527
vn -0.465368 -0.295740 0.834249
vn -0.423822 0.056616 0.903974
vn -0.932503 0.042690 0.358630
vn -0.423822 0.056616 0.903974
vn -0.639355 0.421167 0.643306
vn -0.932503 0.042690 0.358630
vn -0.433738 -0.653143 -0.620705
vn -0.791340 -0.527141 -0.309683
vn -0.706386 -0.125556 -0.696602
vn -0.746358 -0.642432 0.173869
vn -0.949820 -0.276313 -0.146604
vn -0.791340 -0.527141 -0.309683
vn -0.791340 -0.527141 -0.309683
vn -0.433738 -0.653143 -0.620705
vn -0.004907 -0.999773 -0.020718
vn -0.986396 -0.092178 0.136109
vn -0.932503 0.042690 0.358630
vn -0.368419 0.347843 -0.862133
vn -0.932503 0.042690 0.358630
vn -0.982805 0.150384 -0.107137
vn -0.368419 0.347843 -0.862133
vn -0.217627 -0.218700 -0.951214
vn 0.477983 -0.039122 -0.877497
vn 0.097859 -0.465106 -0.879830
vn -0.433738 -0.653143 -0.620705
vn -0.217627 -0.218700 -0.951214
vn 0.097859 -0.465106 -0.879830
vn 0.244579 -0.742700 -0.623360
vn 0.509027 -0.859969 -0.036676
vn -0.004907 -0.999773 -0.020718
vn -0.610355 0.684504 0.398648
vn 0.213686 0.964961 0.152276
vn -0.891224 0.441411 -0.104292
vn -0.639355 0.421167 0.643306
vn -0.423822 0.056616 0.903974
vn 0.049940 0.646538 0.761245
vn -0.982805 0.150384 -0.107137
vn -0.932503 0.042690 0.358630
vn -0.639355 0.421167 0.643306
vn 0.213686 0.964961 0.152276
vn 0.049940 0.646538 0.761245
vn 0.428571 0.701964 0.568836
vn -0.465368 -0.295740 0.834249
vn 0.000795 -0.762110 0.647447
vn -0.023941 -0.603428 0.797058
vn -0.465368 -0.295740 0.834249
vn -0.480300 -0.559526 0.675457
vn 0.000795 -0.762110 0.647447
vn -0.423822 0.056616 0.903974
vn -0.465368 -0.295740 0.834249
vn -0.032704 -0.173977 0.984207
vn -0.032704 -0.173977 0.984207
vn 0.683312 -0.131675 0.718155
vn -0.052112 0.035067 0.998025
vn -0.746358 -0.642432 0.173869
vn -0.811659 -0.263094 0.521527
vn -0.949820 -0.276313 -0.146604
vn -0.368419 0.347843 -0.862133
vn -0.982805 0.150384 -0.107137
vn -0.891224 0.441411 -0.104292
vn 0.984065 -0.116636 -0.134213
vn 0.683312 -0.131675 0.718155
vn 0.819284 -0.498246 0.283769
vn 0.848500 0.302494 0.434218
vn 0.683312 -0.131675 0.718155
vn 0.982245 0.023627 -0.186108
vn 0.487532 0.775401 0.401330
vn 0.689966 0.711880 -0.131051
vn 0.213686 0.964961 0.152276
vn 0.984065 -0.116636 -0.134213
vn 0.848157 -0.318402 -0.423378
vn 0.477983 -0.039122 -0.877497
vn 0.984065 -0.116636 -0.134213
vn 0.477983 -0.039122 -0.877497
vn 0.982245 0.023627 -0.186108
vn 0.982245 0.023627 -0.186108
vn 0.305467 0.053274 -0.950711
vn 0.761037 0.200833 -0.616838
vn 0.479910 0.616209 -0.624478
vn -0.368419 0.347843 -0.862133
vn 0.213686 0.964961 0.152276
vn 0.509027 -0.859969 -0.036676
vn 0.244579 -0.742700 -0.623360
vn 0.656132 -0.713115 -0.246898
vn 0.425966 -0.811230 0.400574
vn 0.259127 -0.603936 0.753734
vn 0.000795 -0.762110 0.647447
vn -0.986396 -0.092178 0.136109
vn -0.465368 -0.295740 0.834249
vn -0.932503 0.042690 0.358630
vn -0.452562 -0.839620 0.300376
vn -0.746358 -0.642432 0.173869
vn -0.791340 -0.527141 -0.309683
vn -0.452562 -0.839620 0.300376
vn -0.791340 -0.527141 -0.309683
vn -0.004907 -0.999773 -0.020718
vn -0.791340 -0.527141 -0.309683
vn -0.949820 -0.276313 -0.146604
vn -0.706386 -0.125556 -0.696602
vn -0.706386 -0.125556 -0.696602
vn -0.986396 -0.092178 0.136109
vn -0.368419 0.347843 -0.862133
vn 0.477983 -0.039122 -0.877497
vn -0.217627 -0.218700 -0.951214
vn 0.305467 0.053274 -0.950711
vn -0.706386 -0.125556 -0.696602
vn -0.368419 0.347843 -0.862133
vn 0.305467 0.053274 -0.950711
vn -0.433738 -0.653143 -0.620705
vn 0.244579 -0.742700 -0.623360
vn -0.004907 -0.999773 -0.020718
vn 0.984065 -0.116636 -0.134213
vn 0.819284 -0.498246 0.283769
vn 0.848157 -0.318402 -0.423378
vn 0.213686 0.964961 0.152276
vn -0.610355 0.684504 0.398648
vn 0.049940 0.646538 0.761245
vn 0.428571 0.701964 0.568836
vn 0.834275 0.489232 0.254239
vn 0.487532 0.775401 0.401330
vn 0.487532 0.775401 0.401330
vn 0.213686 0.964961 0.152276
vn 0.428571 0.701964 0.568836
vn -0.052112 0.035067 0.998025
vn -0.423822 0.056616 0.903974
vn -0.032704 -0.173977 0.984207
s off
g crystal_small_003
usemtl crystal_small_003SG
f 22/1/1 28/42/2 29/40/3
f 25/5/4 26/6/5 2/7/6
f 22/1/7 20/11/8 6/9/9
f 6/9/10 5/8/11 28/42/12
f 7/12/13 8/13/14 9/14/15
f 5/8/16 8/13/17 7/12/18
f 5/8/19 7/12/20 3/15/21
f 18/16/22 16/17/23 17/18/24
f 17/18/25 9/14/26 6/9/27
f 8/13/28 5/8/29 6/9/30
f 1/19/31 2/7/32 3/15/33
f 7/12/34 9/14/35 1/19/36
f 19/10/37 21/20/38 10/21/39
f 19/10/40 22/1/41 21/20/42
f 16/17/43 18/16/44 19/22/45
f 22/1/46 31/2/47 23/23/48
f 24/24/49 11/25/50 23/23/51
f 30/26/52 12/27/53 24/24/54
f 30/26/55 32/28/56 27/29/57
f 32/28/58 26/37/59 27/29/60
f 13/30/61 14/31/62 15/35/63
f 11/32/64 12/4/65 14/31/66
f 14/31/67 13/30/68 21/33/69
f 12/4/70 27/34/71 1/19/72
f 27/34/73 25/5/74 1/19/75
f 15/35/76 17/18/77 16/17/78
f 13/30/79 15/35/80 16/17/81
f 16/17/82 10/36/83 21/33/84
f 26/37/85 3/38/86 2/39/87
f 26/37/88 32/28/89 29/40/90
f 25/41/91 27/29/92 26/37/93
f 3/38/94 29/40/95 28/42/96
f 30/26/97 23/23/98 31/2/99
f 30/26/100 24/24/101 23/23/102
f 32/28/103 30/26/104 31/2/105
f 31/2/106 22/1/107 29/40/108
f 11/32/109 24/3/110 12/4/111
f 1/19/112 25/5/113 2/7/114
f 20/11/115 22/1/116 19/10/117
f 28/42/118 22/1/119 6/9/120
f 4/44/121 5/8/122 3/15/123
f 20/11/124 18/16/125 17/18/126
f 20/11/127 17/18/128 6/9/129
f 6/9/130 9/14/131 8/13/132
f 7/12/133 1/19/134 3/15/135
f 10/36/136 16/17/137 19/22/138
f 21/20/139 22/1/140 23/23/141
f 12/27/142 30/26/143 27/29/144
f 23/45/145 11/32/146 14/31/147
f 23/45/148 14/31/149 21/33/150
f 14/31/151 12/4/152 15/35/153
f 15/35/154 12/4/155 1/19/156
f 17/18/157 15/35/158 9/14/159
f 15/35/160 1/19/161 9/14/162
f 13/30/163 16/17/164 21/33/165
f 20/11/166 19/10/167 18/16/168
f 3/38/169 26/37/170 29/40/171
f 28/42/172 5/8/173 4/43/174
f 4/43/175 3/38/176 28/42/177
f 29/40/178 32/28/179 31/2/180
