# 3ds Max Wavefront OBJ Exporter v0.97b - (c)2007 guruware
# File Created: 24.04.2019 15:38:07

mtllib 3.mtl

#
# object cystal_b1
#

v  -0.6607 -20.7768 18.7669
v  -0.4432 15.8008 18.6052
v  -17.3619 -20.2416 10.1417
v  -7.1254 17.4873 15.1958
v  -13.8159 17.5849 11.9704
v  -17.3786 15.6168 10.2922
v  14.4571 17.2727 13.9414
v  17.1779 14.0557 13.2667
v  15.1624 19.0652 11.7419
v  17.5821 17.3145 8.8287
v  17.8191 -14.9951 10.2170
v  -2.2162 -32.6720 -0.0864
v  18.4045 -17.9640 -6.3281
v  -14.2731 -21.4821 -6.5233
v  -16.2440 -19.9573 -5.6423
v  -14.7526 -18.7780 -9.1270
v  -16.1492 -17.4093 -8.0649
v  -17.9863 17.6992 4.7029
v  -17.5096 17.2755 -6.3086
v  -18.7111 13.6152 -12.0234
v  4.6248 -23.4726 -13.5427
v  -0.0892 -19.6422 -15.2181
v  10.5125 -18.9258 -15.3492
v  6.8104 -10.7717 -18.2707
v  6.4563 11.2094 -18.7669
v  -15.6893 16.6845 -12.8569
v  -0.9144 32.6720 -0.4711
v  -13.5567 19.4973 -9.9131
v  -1.3743 31.1750 -4.5245
v  -0.3457 31.8162 1.7200
v  18.7111 11.0895 -6.1832
# 31 vertices

vn -0.4495 0.0018 0.8933
vn 0.7606 0.4491 0.4689
vn 0.4449 -0.7127 0.5423
vn 0.7002 -0.6980 0.1500
vn -0.7146 -0.5102 -0.4786
vn -0.3217 -0.7300 0.6030
vn -0.7688 -0.6323 -0.0954
vn -0.9998 -0.0174 0.0020
vn 0.0122 -0.3506 -0.9364
vn -0.3283 -0.5935 -0.7348
vn -0.3308 -0.0431 -0.9427
vn 0.5005 -0.7277 -0.4690
vn -0.6521 0.7483 -0.1215
vn -0.1169 0.5794 -0.8066
vn -0.3379 0.7393 0.5825
vn 0.0606 0.7262 0.6849
vn 0.3595 -0.0204 0.9329
vn 0.6757 0.7198 -0.1594
vn 0.9982 0.0008 0.0594
vn 0.7184 0.0037 -0.6957
vn 0.5900 0.6315 -0.5032
vn -0.6813 0.6875 -0.2516
vn -0.5632 0.7553 0.3352
# 23 vertex normals

vt 0.1460 0.1763 0.0000
vt 0.1624 0.4338 0.0000
vt 0.0053 0.1663 0.0000
vt 0.1098 0.4563 0.0000
vt 0.0543 0.4646 0.0000
vt 0.0234 0.4512 0.0000
vt 0.3042 0.4710 0.0000
vt 0.3066 0.4338 0.0000
vt 0.3262 0.4805 0.0000
vt 0.3439 0.4558 0.0000
vt 0.3058 0.1884 0.0000
vt 0.1306 0.0152 0.0000
vt 0.4566 0.1956 0.0000
vt 0.3288 0.1985 0.0000
vt 0.4575 0.0051 0.0000
vt 0.8423 0.1393 0.0000
vt 0.8515 0.1569 0.0000
vt 0.8228 0.1617 0.0000
vt 0.8333 0.1757 0.0000
vt 0.9703 0.1503 0.0000
vt 0.8768 0.0109 0.0000
vt 0.9774 0.4224 0.0000
vt 0.9348 0.4366 0.0000
vt 0.8521 0.4373 0.0000
vt 0.8072 0.4113 0.0000
vt 0.6194 0.1118 0.0000
vt 0.6501 0.1477 0.0000
vt 0.5712 0.1452 0.0000
vt 0.5939 0.2144 0.0000
vt 0.7004 0.0063 0.0000
vt 0.7722 0.1190 0.0000
vt 0.7692 0.1478 0.0000
vt 0.5985 0.3802 0.0000
vt 0.7722 0.4188 0.0000
vt 0.7955 0.3953 0.0000
vt 0.7825 0.1581 0.0000
vt 0.5446 0.1794 0.0000
vt 0.5453 0.1168 0.0000
vt 0.9030 0.6078 0.0000
vt 0.8252 0.4715 0.0000
vt 0.8714 0.5986 0.0000
vt 0.7601 0.4513 0.0000
vt 0.6785 0.5571 0.0000
vt 0.1489 0.6229 0.0000
vt 0.1563 0.6059 0.0000
vt 0.2807 0.4790 0.0000
vt 0.2743 0.4553 0.0000
vt 0.2977 0.4289 0.0000
vt 0.4599 0.6187 0.0000
vt 0.4412 0.6153 0.0000
vt 0.4486 0.4008 0.0000
vt 0.5759 0.4198 0.0000
vt 0.5801 0.2439 0.0000
vt 0.4911 0.6054 0.0000
vt 0.8017 0.4447 0.0000
vt 0.9947 0.4539 0.0000
# 56 texture coords

g cystal_b1
usemtl Material__31
s off
f 1/1/1 2/2/1 3/3/1 
f 2/2/1 4/4/1 3/3/1 
f 4/4/1 5/5/1 3/3/1 
f 5/5/1 6/6/1 3/3/1 
f 7/7/2 8/8/2 9/9/2 
f 9/9/2 8/8/2 10/10/2 
f 11/11/3 1/1/3 12/12/3 
f 13/13/4 11/14/4 12/15/4 
f 14/16/5 15/17/5 16/18/5 
f 16/18/5 15/17/5 17/19/5 
f 1/1/6 3/3/6 12/12/6 
f 15/17/7 14/16/7 3/20/6 
f 3/20/6 14/16/7 12/21/6 
f 3/20/8 6/22/8 15/17/8 
f 15/17/8 6/22/8 17/19/8 
f 6/22/8 18/23/8 17/19/8 
f 18/23/8 19/24/8 17/19/8 
f 19/24/8 20/25/8 17/19/8 
f 21/26/9 22/27/9 23/28/9 
f 23/28/9 22/27/9 24/29/9 
f 12/30/10 14/31/10 21/26/10 
f 21/26/10 14/31/10 22/27/10 
f 14/31/10 16/32/10 22/27/10 
f 25/33/11 24/29/11 26/34/11 
f 26/34/11 24/29/11 20/35/11 
f 24/29/11 22/27/11 20/35/11 
f 20/35/11 22/27/11 17/36/11 
f 22/27/11 16/32/11 17/36/11 
f 23/37/12 13/13/12 21/38/10 
f 21/38/10 13/13/12 12/15/10 
f 18/23/13 27/39/13 19/24/13 
f 19/24/13 27/39/13 28/40/13 
f 28/40/13 27/39/13 29/41/13 
f 25/33/14 26/34/14 28/42/14 
f 28/42/14 29/43/14 25/33/14 
f 27/44/15 5/5/15 4/4/15 
f 4/4/15 30/45/15 27/44/15 
f 30/45/16 4/4/16 9/46/16 
f 4/4/16 2/2/16 9/46/16 
f 7/47/16 9/46/16 2/2/16 
f 1/1/17 11/11/17 2/2/17 
f 11/11/17 8/48/17 2/2/17 
f 7/47/17 2/2/17 8/48/17 
f 27/49/18 30/50/18 31/51/18 
f 9/9/18 10/10/18 30/50/18 
f 10/10/18 31/51/18 30/50/18 
f 13/13/19 31/51/19 11/14/19 
f 11/14/19 31/51/19 8/8/19 
f 10/10/19 8/8/19 31/51/19 
f 25/52/20 31/51/20 24/53/20 
f 13/13/20 23/37/20 31/51/20 
f 31/51/20 23/37/20 24/53/20 
f 31/51/21 25/52/21 29/54/21 
f 29/54/21 27/49/21 31/51/21 
f 20/25/22 19/24/22 28/40/22 
f 28/40/22 26/55/22 20/25/22 
f 27/39/23 18/23/23 6/22/23 
f 6/22/23 5/56/23 27/39/23 
# 58 faces

