# 3ds Max Wavefront OBJ Exporter v0.97b - (c)2007 guruware
# File Created: 24.04.2019 15:38:47

mtllib 4.mtl

#
# object cystal_b2
#

v  1.2312 -23.4149 -12.1999
v  -11.4270 -16.7197 -6.6421
v  -0.4444 17.7251 -21.1422
v  -6.5385 22.0671 -23.9846
v  -11.5800 23.1563 -18.8293
v  -16.9456 16.3992 -18.5031
v  -21.2512 18.8907 14.0171
v  -10.2249 27.5056 2.3764
v  -23.0506 11.4233 11.6280
v  -3.9086 -35.5485 4.3504
v  -15.7544 -20.3624 9.6413
v  -2.5389 -35.4174 9.1541
v  -7.1869 -22.0926 19.2698
v  8.6549 -24.1361 -0.9446
v  9.1321 -23.2510 -2.6645
v  10.2795 -22.5625 0.2160
v  10.3852 -21.7684 -1.2496
v  -3.2055 -33.8401 0.2584
v  23.0506 19.5136 -0.2330
v  19.8160 21.8704 -2.1180
v  2.4151 22.1400 -18.9013
v  2.8413 -25.2945 13.6316
v  6.0104 -23.0652 11.6365
v  0.9726 -22.6499 18.3040
v  4.3165 -17.9072 17.6390
v  6.2471 17.9691 23.9846
v  21.8158 21.4879 7.5063
v  19.3388 23.8047 2.3214
v  -2.5498 35.5485 -1.4784
v  -3.9850 35.4793 -1.3344
v  -11.8386 17.8890 21.9386
# 31 vertices

vn -0.3923 0.0083 -0.9198
vn -0.9129 0.2331 -0.3350
vn -0.8022 -0.5804 -0.1398
vn -0.6238 -0.5793 0.5246
vn 0.7817 -0.5916 -0.1975
vn -0.2590 -0.6844 -0.6815
vn 0.5209 -0.7231 -0.4536
vn 0.6652 -0.0163 -0.7465
vn 0.6664 -0.4203 0.6159
vn 0.6845 -0.6810 0.2601
vn 0.8998 -0.0070 0.4363
vn 0.1570 -0.6869 0.7096
vn 0.6010 0.6709 -0.4344
vn 0.6399 0.5866 0.4964
vn -0.2454 0.4480 -0.8597
vn -0.7081 0.3363 -0.6208
vn -0.5278 0.6910 0.4938
vn -0.7180 -0.0087 0.6960
vn 0.1466 -0.0010 0.9892
vn 0.0794 0.6714 0.7368
vn 0.6523 0.7060 -0.2759
vn 0.0706 0.5042 -0.8607
vn -0.9260 0.0036 -0.3774
# 23 vertex normals

vt 0.1716 0.6080 0.0000
vt 0.2415 0.6580 0.0000
vt 0.1397 0.8522 0.0000
vt 0.1702 0.8857 0.0000
vt 0.2101 0.8842 0.0000
vt 0.2400 0.8483 0.0000
vt 0.3909 0.8533 0.0000
vt 0.3140 0.9340 0.0000
vt 0.3736 0.8126 0.0000
vt 0.2677 0.5322 0.0000
vt 0.3229 0.6301 0.0000
vt 0.2924 0.5218 0.0000
vt 0.3749 0.5870 0.0000
vt 0.5445 0.6076 0.0000
vt 0.5490 0.6166 0.0000
vt 0.5333 0.6168 0.0000
vt 0.5385 0.6240 0.0000
vt 0.2468 0.5445 0.0000
vt 0.6136 0.6172 0.0000
vt 0.5871 0.5316 0.0000
vt 0.6409 0.8558 0.0000
vt 0.4707 0.8616 0.0000
vt 0.4914 0.8748 0.0000
vt 0.6198 0.8792 0.0000
vt 0.7637 0.5648 0.0000
vt 0.7851 0.5775 0.0000
vt 0.7411 0.5844 0.0000
vt 0.7597 0.6116 0.0000
vt 0.8450 0.5691 0.0000
vt 0.8435 0.5541 0.0000
vt 0.7903 0.4798 0.0000
vt 0.7670 0.4811 0.0000
vt 0.7551 0.8114 0.0000
vt 0.8719 0.8408 0.0000
vt 0.9087 0.8222 0.0000
vt 0.8528 0.5732 0.0000
vt 0.7477 0.4974 0.0000
vt 0.6926 0.5819 0.0000
vt 0.4788 0.8962 0.0000
vt 0.5881 0.9924 0.0000
vt 0.8694 0.8757 0.0000
vt 0.7471 0.9715 0.0000
vt 0.2698 0.9928 0.0000
vt 0.2758 0.9869 0.0000
vt 0.7387 0.9722 0.0000
vt 0.6556 0.8221 0.0000
vt 0.4315 0.9091 0.0000
vt 0.4645 0.8223 0.0000
vt 0.4469 0.8947 0.0000
vt 0.6761 0.8863 0.0000
# 50 texture coords

g cystal_b2
usemtl Material__32
s off
f 1/1/1 2/2/1 3/3/1 
f 3/3/1 2/2/1 4/4/1 
f 4/4/1 2/2/1 5/5/1 
f 2/2/1 6/6/1 5/5/1 
f 7/7/2 8/8/2 9/9/2 
f 9/9/2 8/8/2 6/6/2 
f 2/2/3 10/10/3 11/11/3 
f 11/11/3 10/10/3 12/12/3 
f 13/13/4 11/11/4 12/12/4 
f 14/14/5 15/15/5 16/16/5 
f 16/16/5 15/15/5 17/17/5 
f 10/10/6 2/2/6 18/18/6 
f 2/2/6 1/1/6 18/18/6 
f 15/15/7 14/14/7 1/19/7 
f 1/19/7 14/14/7 18/20/7 
f 1/19/8 3/21/8 15/15/8 
f 15/15/8 3/21/8 17/17/8 
f 19/22/8 17/17/8 20/23/8 
f 3/21/8 21/24/8 17/17/8 
f 21/24/8 20/23/8 17/17/8 
f 22/25/9 23/26/9 24/27/9 
f 24/27/9 23/26/9 25/28/9 
f 16/29/10 23/26/10 14/30/10 
f 14/30/10 23/26/10 18/31/10 
f 23/26/10 22/25/10 18/31/10 
f 22/25/10 10/32/10 18/31/10 
f 26/33/11 25/28/11 27/34/11 
f 27/34/11 25/28/11 19/35/11 
f 25/28/11 23/26/11 19/35/11 
f 19/35/11 23/26/11 17/36/11 
f 23/26/11 16/29/11 17/36/11 
f 10/32/12 22/25/12 12/37/12 
f 13/38/12 12/37/12 24/27/12 
f 22/25/12 24/27/12 12/37/12 
f 28/39/13 20/23/13 21/24/13 
f 21/24/13 29/40/13 28/39/13 
f 26/33/14 27/34/14 28/41/14 
f 28/41/14 29/42/14 26/33/14 
f 29/43/15 4/4/15 5/5/15 
f 5/5/15 30/44/15 29/43/15 
f 8/8/16 30/44/16 5/5/16 
f 5/5/16 6/6/16 8/8/16 
f 29/42/17 30/45/17 31/46/17 
f 30/44/17 8/8/17 31/47/17 
f 8/8/17 7/7/17 31/47/17 
f 13/13/18 31/48/18 11/11/18 
f 7/7/18 9/9/18 31/48/18 
f 9/9/18 11/11/18 31/48/18 
f 31/46/19 13/38/19 26/33/19 
f 13/38/19 24/27/19 26/33/19 
f 24/27/19 25/28/19 26/33/19 
f 31/46/20 26/33/20 29/42/20 
f 19/22/21 20/23/21 28/39/21 
f 28/39/21 27/49/21 19/22/21 
f 29/40/22 21/24/22 3/21/22 
f 3/21/22 4/50/22 29/40/22 
f 9/9/23 6/6/23 2/2/23 
f 2/2/23 11/11/23 9/9/23 
# 58 faces

