# 3ds Max Wavefront OBJ Exporter v0.97b - (c)2007 guruware
# File Created: 30.03.2019 19:17:11

mtllib 5.mtl

#
# object Crystal_c1
#

v  1.8405 -11.2101 -8.3934
v  2.9555 -10.1341 -8.4860
v  2.4579 -11.7208 -7.5509
v  3.8244 -11.2221 -6.6426
v  -6.7978 10.3475 -4.5665
v  -1.0413 15.2675 -1.2194
v  3.6866 11.0688 -7.2704
v  1.1518 14.9018 -0.0501
v  7.2748 8.0758 3.3835
v  -5.2446 11.2164 5.5119
v  -6.1157 9.8543 5.4101
v  -4.9996 8.8021 6.6926
v  -5.6882 7.5784 6.4340
v  -2.8384 14.8221 1.3157
v  -6.0618 -6.4419 -4.7661
v  -7.6164 -8.7047 0.3801
v  -6.6190 -8.7345 4.3190
v  -5.9929 -5.8588 8.4860
v  1.8564 13.1644 5.8706
v  0.6952 9.5725 7.8444
v  3.6044 10.4498 6.4464
v  3.1523 3.4308 8.3575
v  3.9032 -10.9384 8.2460
v  3.3392 1.6534 8.3367
v  2.1239 -11.3646 8.2320
v  -3.6081 -11.3839 8.1958
v  4.8040 8.9331 5.8897
v  -4.8907 -12.2631 -1.3850
v  -4.4305 -11.8443 6.8614
v  0.0156 -14.8163 2.0053
v  -0.9251 -15.2675 0.2503
v  3.5234 -11.7581 7.4815
v  -0.8040 -12.8116 -4.7988
v  0.3131 -13.4608 -2.1570
v  -0.6520 -11.2282 -8.2768
v  4.9198 -11.3436 7.1127
v  5.5779 -12.2536 3.0024
v  6.0177 -11.2715 -0.1835
v  7.6164 -9.7456 3.9903
v  4.4000 -11.3514 7.7046
# 40 vertices

vn 0.6548 -0.1188 -0.7464
vn 0.0109 0.7005 -0.7135
vn 0.8681 0.4697 -0.1605
vn -0.6100 0.2638 0.7472
vn -0.6514 0.6493 -0.3925
vn -0.8064 0.4911 0.3294
vn -0.9605 -0.0011 0.2784
vn 0.3460 0.2798 0.8956
vn -0.1861 0.5389 0.8216
vn -0.0784 0.0148 0.9968
vn 0.6792 0.5820 0.4471
vn 0.6477 0.1414 0.7487
vn -0.8384 -0.4988 0.2199
vn -0.0356 -0.4658 0.8842
vn -0.7456 -0.4732 -0.4692
vn -0.0949 -0.3619 -0.9274
vn -0.0135 0.0152 -0.9998
vn 0.9779 -0.1564 0.1388
vn 0.8762 -0.3423 -0.3393
vn 0.9417 -0.0007 -0.3365
vn 0.7590 0.0149 0.6509
vn 0.5835 -0.5059 0.6353
vn 0.2274 -0.1836 0.9563
vn -0.7745 -0.2153 0.5948
vn -0.8840 -0.4547 -0.1089
vn -0.4502 -0.3476 -0.8225
# 26 vertex normals

vt 0.2607 0.0485 0.0000
vt 0.2527 0.0696 0.0000
vt 0.2447 0.0431 0.0000
vt 0.2227 0.0546 0.0000
vt 0.9399 0.3612 0.0000
vt 0.8720 0.4587 0.0000
vt 0.7821 0.3717 0.0000
vt 0.8452 0.4817 0.0000
vt 0.0777 0.3388 0.0000
vt 0.2418 0.3773 0.0000
vt 0.1501 0.4608 0.0000
vt 0.2916 0.3650 0.0000
vt 0.2741 0.3482 0.0000
vt 0.2913 0.3241 0.0000
vt 0.7180 0.4356 0.0000
vt 0.6941 0.4522 0.0000
vt 0.7073 0.4179 0.0000
vt 0.9092 0.4831 0.0000
vt 0.6982 0.4753 0.0000
vt 0.5497 0.4690 0.0000
vt 0.6450 0.5448 0.0000
vt 0.5301 0.2247 0.0000
vt 0.6062 0.1892 0.0000
vt 0.6635 0.1827 0.0000
vt 0.7267 0.2200 0.0000
vt 0.4013 0.3813 0.0000
vt 0.3759 0.3247 0.0000
vt 0.4212 0.3361 0.0000
vt 0.4031 0.2354 0.0000
vt 0.8615 0.5693 0.0000
vt 0.3272 0.4465 0.0000
vt 0.4118 0.0290 0.0000
vt 0.4052 0.2097 0.0000
vt 0.3858 0.0222 0.0000
vt 0.3018 0.0238 0.0000
vt 0.2679 0.1053 0.0000
vt 0.2788 0.3066 0.0000
vt 0.0607 0.4511 0.0000
vt 0.4947 0.3066 0.0000
vt 0.4415 0.3150 0.0000
vt 0.5759 0.1274 0.0000
vt 0.7003 0.1280 0.0000
vt 0.3479 0.5537 0.0000
vt 0.3129 0.6748 0.0000
vt 0.2570 0.6009 0.0000
vt 0.2575 0.6281 0.0000
vt 0.2385 0.5023 0.0000
vt 0.2630 0.4971 0.0000
vt 0.3440 0.5296 0.0000
vt 0.9327 0.1175 0.0000
vt 0.8811 0.0094 0.0000
vt 0.9578 0.0216 0.0000
vt 0.2271 0.6587 0.0000
vt 0.2293 0.7006 0.0000
vt 0.1674 0.7212 0.0000
vt 0.2048 0.7508 0.0000
vt 0.1703 0.7380 0.0000
vt 0.7880 0.0637 0.0000
vt 0.8040 0.0479 0.0000
vt 0.8401 0.0467 0.0000
vt 0.0182 0.0323 0.0000
vt 0.0798 0.0363 0.0000
vt 0.1239 0.0569 0.0000
vt 0.0599 0.0810 0.0000
vt 0.1834 0.5547 0.0000
vt 0.1548 0.5975 0.0000
vt 0.1505 0.7014 0.0000
vt 0.4944 0.0460 0.0000
vt 0.4340 0.0228 0.0000
vt 0.4224 0.0227 0.0000
vt 0.2163 0.4987 0.0000
vt 0.2271 0.4936 0.0000
vt 0.4099 0.0128 0.0000
vt 0.7241 0.1301 0.0000
# 74 texture coords

g Crystal_c1
usemtl C_M
s off
f 1/1/1 2/2/1 3/3/1 
f 3/3/1 2/2/1 4/4/1 
f 5/5/2 6/6/2 7/7/2 
f 7/7/2 6/6/2 8/8/2 
f 9/9/3 7/10/3 8/11/3 
f 10/12/4 11/13/4 12/14/4 
f 12/15/4 11/16/4 13/17/4 
f 5/5/5 14/18/5 6/6/5 
f 11/16/6 10/19/6 5/20/6 
f 5/20/6 10/19/6 14/21/6 
f 5/20/7 15/22/7 11/16/7 
f 11/16/7 15/22/7 13/17/7 
f 15/22/7 16/23/7 13/17/7 
f 16/23/7 17/24/7 13/17/7 
f 17/24/7 18/25/7 13/17/7 
f 19/26/8 20/27/8 21/28/8 
f 21/28/8 20/27/8 22/29/8 
f 6/6/9 14/18/9 19/30/9 
f 14/31/9 10/12/9 19/26/9 
f 19/26/9 10/12/9 20/27/9 
f 10/12/9 12/14/9 20/27/9 
f 23/32/10 24/33/10 25/34/10 
f 25/34/10 24/33/10 26/35/10 
f 26/35/10 24/33/10 18/36/10 
f 18/36/10 24/33/10 13/37/10 
f 24/33/10 22/29/10 13/37/10 
f 13/37/10 22/29/10 12/14/10 
f 22/29/10 20/27/10 12/14/10 
f 6/6/11 19/30/11 8/8/11 
f 8/11/11 19/38/11 9/9/11 
f 19/26/11 21/28/11 9/39/11 
f 21/28/11 27/40/11 9/39/11 
f 24/33/12 27/40/12 21/28/12 
f 21/28/12 22/29/12 24/33/12 
f 16/23/13 28/41/13 17/24/13 
f 17/24/13 28/41/13 29/42/13 
f 29/43/13 28/44/13 30/45/13 
f 28/44/13 31/46/13 30/45/13 
f 32/47/14 25/48/14 30/45/14 
f 29/43/14 30/45/14 26/49/14 
f 25/48/14 26/49/14 30/45/14 
f 15/50/15 33/51/15 28/52/15 
f 31/46/15 28/44/15 34/53/15 
f 28/44/15 33/54/15 34/53/15 
f 34/53/16 33/54/16 3/55/16 
f 35/56/16 1/57/16 33/54/16 
f 33/54/16 1/57/16 3/55/16 
f 7/7/17 2/58/17 5/5/17 
f 2/58/17 1/59/17 5/5/17 
f 1/59/17 35/60/17 5/5/17 
f 35/60/17 15/50/17 5/5/17 
f 36/61/18 37/62/18 38/63/18 
f 38/63/18 39/64/18 36/61/18 
f 31/46/19 34/53/19 37/65/19 
f 37/65/19 34/53/19 38/66/19 
f 3/55/19 4/67/19 34/53/19 
f 4/67/19 38/66/19 34/53/19 
f 7/10/20 9/9/20 2/2/20 
f 2/2/20 9/9/20 4/4/20 
f 4/4/20 9/9/20 38/63/20 
f 9/9/20 39/64/20 38/63/20 
f 27/40/21 24/33/21 9/39/21 
f 9/39/21 24/33/21 39/68/21 
f 39/68/21 24/33/21 36/69/21 
f 36/69/21 24/33/21 40/70/21 
f 24/33/21 23/32/21 40/70/21 
f 31/46/22 37/65/22 30/45/22 
f 37/65/22 36/71/22 30/45/22 
f 36/71/22 40/72/22 30/45/22 
f 40/72/22 32/47/22 30/45/22 
f 32/73/23 40/70/23 23/32/23 
f 23/32/23 25/34/23 32/73/23 
f 18/25/24 17/24/24 29/42/24 
f 29/42/24 26/74/24 18/25/24 
f 28/41/25 16/23/25 15/22/25 
f 15/50/26 35/60/26 33/51/26 
# 76 faces

#
# object crystal1_photo4
#

v  3.3742 -6.5946 7.5940
v  -3.5820 -7.5878 -4.5033
v  -4.0456 6.4689 -5.3908
v  2.9105 7.4622 6.7065
# 4 vertices

vn -0.8670 0.0029 0.4983
# 1 vertex normals

vt 0.0000 0.0000 0.0000
vt 1.0000 0.0000 0.0000
vt 1.0000 1.0000 0.0000
vt 0.0000 1.0000 0.0000
# 4 texture coords

g crystal1_photo4
usemtl photoMtl
s off
f 41/75/27 42/76/27 43/77/27 
f 43/77/27 44/78/27 41/75/27 
# 2 faces

