# 3ds Max Wavefront OBJ Exporter v0.97b - (c)2007 guruware
# File Created: 21.04.2019 01:02:48

mtllib 6.mtl

#
# object mini3
#

v  -0.3880 1.0974 0.1919
v  -0.3309 1.2719 0.0008
v  -0.4594 1.0670 0.0024
v  -0.4121 1.0093 -0.1069
v  0.3652 0.9332 0.0723
v  0.3748 -1.0651 -0.0707
v  0.2496 0.9476 -0.1927
v  0.1296 -1.0106 -0.3538
v  -0.3475 -1.1404 -0.0449
v  -0.1948 -1.1180 -0.4221
v  -0.2111 1.0860 -0.2973
v  0.0304 1.0835 -0.3117
v  -0.2011 1.3832 0.1916
v  -0.2452 1.0458 0.2822
v  -0.0084 1.0737 0.3832
v  0.0474 -0.8866 0.4300
v  -0.1729 -0.8690 0.2536
v  -0.0047 -1.2664 0.3226
v  0.1201 -1.1966 -0.2864
v  -0.1181 -1.3814 -0.0587
v  -0.0572 -1.3758 -0.1659
v  0.0351 -1.4258 -0.0459
v  0.0452 -1.3954 -0.1177
v  0.2448 -1.3179 0.0553
v  0.3445 -1.0073 0.0858
v  0.2627 1.3663 -0.0147
v  0.0563 1.4134 -0.1943
v  0.0556 1.5923 -0.0166
# 28 vertices

vn -0.8243 0.5186 0.2271
vn -0.7137 0.4431 -0.5425
vn 0.9167 0.0329 -0.3981
vn 0.7564 0.0074 -0.6541
vn -0.9254 -0.0387 -0.3770
vn -0.6945 0.0355 -0.7186
vn 0.1878 0.0569 -0.9806
vn -0.0590 0.0173 -0.9981
vn 0.4961 0.0409 -0.8673
vn -0.4358 0.2861 0.8534
vn -0.4045 0.2861 0.8686
vn -0.6260 -0.1314 0.7687
vn 0.7000 -0.2741 -0.6594
vn -0.7498 -0.2082 0.6280
vn -0.2577 -0.9462 -0.1958
vn 0.0062 -0.9215 -0.3884
vn 0.2999 -0.3381 -0.8921
vn 0.9018 -0.3183 0.2923
vn 0.6394 -0.0015 0.7689
vn 0.7629 0.0371 0.6454
vn 0.6808 -0.5758 -0.4527
vn 0.9106 0.1371 -0.3898
vn 0.6660 0.2740 -0.6938
vn 0.6745 -0.2836 0.6816
vn 0.6726 -0.2854 0.6827
vn 0.6134 0.5579 -0.5590
vn -0.6995 0.4454 -0.5588
vn -0.0522 0.3383 -0.9396
vn -0.8118 0.5312 0.2423
vn -0.5226 0.6132 -0.5924
vn -0.5240 0.5993 -0.6052
vn -0.6385 0.7695 -0.0144
vn -0.6264 -0.0353 0.7787
vn -0.3936 0.0107 0.9192
vn -0.5564 -0.0974 0.8252
vn -0.8462 -0.0399 0.5313
vn 0.1609 0.5901 0.7911
vn 0.5184 0.4811 0.7070
vn 0.6743 0.2955 0.6767
vn 0.5720 0.2347 -0.7859
vn -0.6734 -0.6699 -0.3126
vn -0.6712 -0.6155 -0.4131
vn 0.2034 -0.6769 -0.7074
vn 0.1562 -0.6530 -0.7411
vn 0.5385 -0.8007 -0.2624
vn 0.6358 -0.6245 -0.4536
vn 0.2549 -0.8772 0.4069
vn -0.6557 -0.6466 0.3899
vn -0.2874 -0.8900 0.3539
vn -0.9244 -0.0387 -0.3794
vn -0.9315 -0.0549 0.3595
vn 0.9810 -0.0091 0.1936
# 52 vertex normals

vt 0.9367 0.4432 0.0000
vt 0.9060 0.4483 0.0000
vt 0.9053 0.4151 0.0000
vt 0.8904 0.3967 0.0000
vt 0.7749 0.3932 0.0000
vt 0.8014 0.1946 0.0000
vt 0.8149 0.3752 0.0000
vt 0.8320 0.2081 0.0000
vt 0.9008 0.1864 0.0000
vt 0.8594 0.1959 0.0000
vt 0.8578 0.4053 0.0000
vt 0.8444 0.4262 0.0000
vt 0.9272 0.5039 0.0000
vt 0.9510 0.4212 0.0000
vt 0.9844 0.4137 0.0000
vt 0.9815 0.2519 0.0000
vt 0.9425 0.2393 0.0000
vt 0.9334 0.1487 0.0000
vt 0.8326 0.1854 0.0000
vt 0.8584 0.1383 0.0000
vt 0.8532 0.1453 0.0000
vt 0.8496 0.1338 0.0000
vt 0.8485 0.1416 0.0000
vt 0.8049 0.1588 0.0000
vt 0.7764 0.1885 0.0000
vt 0.7213 0.4181 0.0000
vt 0.7276 0.2515 0.0000
vt 0.8144 0.4514 0.0000
vt 0.8405 0.4532 0.0000
vt 0.7653 0.1459 0.0000
vt 0.8427 0.5134 0.0000
vt 0.7741 0.4986 0.0000
# 32 texture coords

g mini3
usemtl Material__25
s off
f 1/1/1 2/2/1 3/3/1 
f 2/2/2 4/4/2 3/3/2 
f 5/5/3 6/6/3 7/7/3 
f 6/6/4 8/8/4 7/7/4 
f 9/9/5 4/4/5 10/10/5 
f 4/4/6 11/11/6 10/10/6 
f 8/8/7 10/10/7 11/11/7 
f 11/11/8 12/12/8 8/8/8 
f 12/12/9 7/7/9 8/8/9 
f 13/13/10 1/1/10 14/14/10 
f 13/13/11 14/14/11 15/15/11 
f 16/16/12 17/17/12 18/18/12 
f 19/19/13 8/8/13 6/6/13 
f 17/17/14 9/9/14 18/18/14 
f 20/20/15 21/21/15 22/22/15 
f 21/21/16 23/23/16 22/22/16 
f 8/8/17 19/19/17 10/10/17 
f 24/24/18 6/6/18 25/25/18 
f 5/5/19 15/26/19 25/25/19 
f 15/26/20 16/27/20 25/25/20 
f 24/24/21 19/19/21 6/6/21 
f 5/5/22 7/7/22 26/28/22 
f 7/7/23 27/29/23 26/28/23 
f 24/24/24 25/25/24 16/27/24 
f 16/27/25 18/30/25 24/24/25 
f 26/28/26 27/29/26 28/31/26 
f 4/4/27 2/2/27 11/11/27 
f 12/12/28 11/11/28 27/29/28 
f 1/1/29 13/13/29 2/2/29 
f 11/11/30 2/2/30 27/29/30 
f 27/29/31 2/2/31 28/31/31 
f 28/31/32 2/2/32 13/13/32 
f 14/14/33 17/17/33 16/16/33 
f 16/16/34 15/15/34 14/14/34 
f 1/1/35 9/9/35 14/14/35 
f 9/9/36 17/17/36 14/14/36 
f 13/32/37 15/26/37 28/31/37 
f 28/31/38 15/26/38 26/28/38 
f 15/26/39 5/5/39 26/28/39 
f 7/7/40 12/12/40 27/29/40 
f 9/9/41 10/10/41 21/21/41 
f 21/21/42 20/20/42 9/9/42 
f 19/19/43 23/23/43 21/21/43 
f 21/21/44 10/10/44 19/19/44 
f 24/24/45 22/22/45 23/23/45 
f 23/23/46 19/19/46 24/24/46 
f 22/22/47 24/24/47 18/30/47 
f 18/18/48 9/9/48 20/20/48 
f 18/18/49 20/20/49 22/22/49 
f 4/4/50 9/9/50 3/3/50 
f 3/3/51 9/9/51 1/1/51 
f 5/5/52 25/25/52 6/6/52 
# 52 faces

