# 3ds Max Wavefront OBJ Exporter v0.97b - (c)2007 guruware
# File Created: 24.04.2019 15:40:15

mtllib 6.mtl

#
# object Crystal_c2
#

v  0.3999 -20.1235 5.5896
v  6.9058 -20.3005 2.2737
v  3.4977 11.1622 15.6004
v  16.9142 10.0205 6.0283
v  9.3031 15.8477 10.8253
v  5.5048 14.9072 13.9352
v  10.9465 12.1682 -13.3268
v  8.5856 19.5975 -2.7221
v  8.4232 6.6610 -11.7197
v  7.6863 -18.3977 -6.7458
v  1.6652 -26.9469 -2.9039
v  1.9997 -19.3745 -10.3647
v  -4.8115 -16.5143 4.2758
v  -9.4340 -15.6756 2.2349
v  -4.8115 -20.5332 1.0665
v  -9.6133 -19.6411 -0.8120
v  -3.1584 14.9702 10.9513
v  -7.9966 14.7375 7.7299
v  -16.9142 8.2777 4.6830
v  -3.0105 -21.1876 -6.5398
v  -8.3602 -19.9272 -6.7385
v  -2.4288 -19.6896 -8.9783
v  -8.0087 -17.0063 -9.7903
v  -9.2594 11.3731 -15.6004
v  -16.3349 14.4103 0.3369
v  2.6736 26.9469 0.8047
v  0.6714 26.1155 -0.0048
v  -8.2535 16.4052 4.4213
v  3.8686 26.4718 1.0520
v  8.9031 11.3077 -14.3085
# 30 vertices

vn 0.5687 0.0083 0.8225
vn 0.9615 0.2331 0.1453
vn 0.8140 -0.5804 -0.0237
vn 0.5061 -0.5793 -0.6389
vn -0.7263 -0.5916 0.3501
vn 0.3903 -0.6844 0.6158
vn -0.4195 -0.7231 0.5488
vn -0.5022 -0.0163 0.8646
vn -0.7762 -0.4203 -0.4699
vn -0.7227 -0.6810 -0.1177
vn -0.9690 -0.0070 -0.2471
vn -0.2960 -0.6869 -0.6638
vn -0.5018 0.6709 0.5460
vn -0.7264 0.5866 -0.3582
vn 0.4126 0.4480 0.7931
vn 0.8182 0.3363 0.4664
vn 0.4182 0.6910 -0.5896
vn 0.5640 -0.0087 -0.8257
vn -0.3418 -0.0010 -0.9398
vn -0.2254 0.6714 -0.7060
vn -0.5838 0.7060 0.4010
vn 0.1032 0.5042 0.8574
vn 0.9829 0.0036 0.1843
# 23 vertex normals

vt 0.0620 0.5794 0.0000
vt 0.1153 0.5838 0.0000
vt 0.0235 0.8181 0.0000
vt 0.1475 0.8172 0.0000
vt 0.0780 0.8534 0.0000
vt 0.0422 0.8458 0.0000
vt 0.8308 0.6739 0.0000
vt 0.9050 0.6183 0.0000
vt 0.8317 0.7132 0.0000
vt 0.9804 0.6972 0.0000
vt 0.8547 0.9030 0.0000
vt 0.9182 0.9258 0.0000
vt 0.8626 0.9816 0.0000
vt 0.8075 0.9175 0.0000
vt 0.4119 0.5036 0.0000
vt 0.3749 0.5102 0.0000
vt 0.4003 0.4676 0.0000
vt 0.3630 0.4756 0.0000
vt 0.1053 0.5118 0.0000
vt 0.4501 0.4755 0.0000
vt 0.4253 0.3992 0.0000
vt 0.5068 0.7106 0.0000
vt 0.4468 0.7365 0.0000
vt 0.4043 0.7353 0.0000
vt 0.3337 0.6903 0.0000
vt 0.5833 0.7047 0.0000
vt 0.6204 0.7215 0.0000
vt 0.5702 0.7251 0.0000
vt 0.6090 0.7486 0.0000
vt 0.5593 0.6487 0.0000
vt 0.6322 0.6681 0.0000
vt 0.6559 0.7032 0.0000
vt 0.6251 0.9576 0.0000
vt 0.7577 0.9438 0.0000
vt 0.7757 0.8901 0.0000
vt 0.6902 0.7232 0.0000
vt 0.5367 0.7284 0.0000
vt 0.4455 0.8584 0.0000
vt 0.4296 0.8523 0.0000
vt 0.3895 0.7583 0.0000
vt 0.2563 0.8559 0.0000
vt 0.3230 0.7446 0.0000
vt 0.0807 0.9729 0.0000
vt 0.0871 0.9657 0.0000
vt 0.1451 0.9313 0.0000
vt 0.9226 0.5466 0.0000
vt 0.9272 0.5551 0.0000
vt 0.8160 0.6721 0.0000
vt 0.4907 0.9573 0.0000
vt 0.3207 0.9728 0.0000
vt 0.4436 0.8617 0.0000
vt 0.5132 0.7442 0.0000
# 52 texture coords

g Crystal_c2
usemtl Material__35
s off
f 1/1/1 2/2/1 3/3/1 
f 4/4/1 5/5/1 2/2/1 
f 5/5/1 6/6/1 2/2/1 
f 6/6/1 3/3/1 2/2/1 
f 7/7/2 8/8/2 9/9/2 
f 9/9/2 8/8/2 4/10/2 
f 10/11/3 2/12/3 11/13/3 
f 12/14/4 10/11/4 11/13/4 
f 13/15/5 14/16/5 15/17/5 
f 15/17/5 14/16/5 16/18/5 
f 2/2/6 1/1/6 11/19/6 
f 13/15/7 15/17/7 1/20/7 
f 1/20/7 15/17/7 11/21/7 
f 1/20/8 3/22/8 13/15/8 
f 3/22/8 17/23/8 13/15/8 
f 17/23/8 18/24/8 13/15/8 
f 18/24/8 19/25/8 13/15/8 
f 19/25/8 14/16/8 13/15/8 
f 20/26/9 21/27/9 22/28/9 
f 22/28/9 21/27/9 23/29/9 
f 11/30/10 15/31/10 20/26/10 
f 20/26/10 15/31/10 21/27/10 
f 15/31/10 16/32/10 21/27/10 
f 24/33/11 23/29/11 25/34/11 
f 25/34/11 23/29/11 19/35/11 
f 23/29/11 21/27/11 19/35/11 
f 19/35/11 21/27/11 14/36/11 
f 21/27/11 16/32/11 14/36/11 
f 20/26/12 22/28/12 12/37/12 
f 12/37/12 11/30/12 20/26/12 
f 26/38/13 27/39/13 17/23/13 
f 17/23/13 27/39/13 18/24/13 
f 28/40/13 18/24/13 27/39/13 
f 24/41/14 25/42/14 28/40/14 
f 28/40/14 27/39/14 24/41/14 
f 26/43/15 6/6/15 5/5/15 
f 5/5/15 29/44/15 26/43/15 
f 8/45/16 29/44/16 5/5/16 
f 5/5/16 4/4/16 8/45/16 
f 26/46/17 29/47/17 30/48/17 
f 30/48/17 29/47/17 7/7/17 
f 8/8/17 7/7/17 29/47/17 
f 7/7/18 9/9/18 30/48/18 
f 30/48/18 9/9/18 12/14/18 
f 9/9/18 10/11/18 12/14/18 
f 30/49/19 12/37/19 24/33/19 
f 12/37/19 22/28/19 24/33/19 
f 22/28/19 23/29/19 24/33/19 
f 30/50/20 24/41/20 27/39/20 
f 27/39/20 26/51/20 30/50/20 
f 19/25/21 18/24/21 28/40/21 
f 28/40/21 25/42/21 19/25/21 
f 26/38/22 17/23/22 3/22/22 
f 3/22/22 6/52/22 26/38/22 
f 9/9/23 4/10/23 2/12/23 
f 2/12/23 10/11/23 9/9/23 
# 56 faces

