# 3ds Max Wavefront OBJ Exporter v0.97b - (c)2007 guruware
# File Created: 24.04.2019 15:42:07

mtllib 7.mtl

#
# object mini1
#

v  -2.9325 -24.8599 3.6720
v  5.1040 -25.0763 -0.4256
v  0.8946 13.7898 16.0370
v  17.4690 12.3794 4.2130
v  8.0654 19.5791 10.1394
v  3.3726 18.4176 13.9810
v  6.0707 -22.7281 -11.5678
v  -1.3707 -33.2896 -6.8210
v  -0.9559 -23.9365 -16.0370
v  -9.3711 -20.4015 2.0488
v  -15.0811 -19.3663 -0.4761
v  -9.3711 -25.3648 -1.9153
v  -12.5886 -23.5072 -4.3501
v  -7.3295 18.4934 10.2945
v  -13.3028 18.2048 6.3160
v  -17.4510 5.7677 -3.4556
v  -7.1456 -26.1728 -11.3117
v  -13.7537 -24.6182 -11.5606
v  -6.4278 -24.3260 -14.3272
v  -13.3209 -21.0111 -15.3300
v  -0.1226 33.2896 -2.2400
v  -2.5971 32.2652 -3.2391
v  -13.6239 20.2681 2.2256
v  1.3526 32.7016 -1.9334
v  7.0734 24.2106 -9.1511
v  -13.9196 14.7384 -8.2818
v  -13.0900 14.7853 -8.3179
v  -12.4696 15.0306 -8.3431
v  -2.3951 21.1302 -8.7579
v  1.0208 21.2059 -8.9022
v  -0.9883 21.0436 -8.8157
v  2.1137 21.3141 -8.9455
# 32 vertices

vn 0.4245 -0.3138 0.8493
vn 0.3820 -0.2367 0.8934
vn 0.6497 -0.2156 0.7290
vn 0.7926 -0.1630 0.5876
vn 0.8045 -0.5914 -0.0552
vn 0.4939 -0.6212 -0.6084
vn -0.4169 -0.5674 0.7101
vn -0.6450 -0.6918 0.3247
vn 0.2988 -0.7218 0.6243
vn -0.5324 -0.5284 0.6613
vn -0.4060 -0.7410 0.5349
vn -0.3928 -0.2448 0.8865
vn -0.6173 -0.1320 0.7756
vn -0.5435 -0.1467 0.8265
vn -0.8316 -0.1440 0.5364
vn -0.3923 0.0717 0.9170
vn -0.1731 -0.8205 -0.5447
vn -0.2317 -0.6895 -0.6862
vn -0.7340 -0.6692 -0.1163
vn -0.2304 -0.9727 0.0292
vn -0.6055 -0.7661 0.2158
vn -0.7329 -0.6446 0.2177
vn -0.2547 -0.7012 -0.6659
vn -0.4985 0.6888 0.5263
vn -0.4159 0.7062 0.5730
vn -0.5745 0.7120 0.4038
vn 0.2868 0.7307 0.6196
vn 0.7613 0.6383 0.1141
vn 0.9489 -0.3151 0.0156
vn -0.9931 -0.0028 -0.1174
vn -0.9888 -0.1058 -0.1055
vn -0.9671 0.1886 0.1705
vn -0.9445 0.3010 -0.1317
vn -0.0709 0.8835 -0.4629
vn -0.3441 0.8258 -0.4467
vn -0.6150 0.5262 -0.5872
vn 0.0844 0.4781 -0.8742
vn -0.3153 0.4822 -0.8174
vn 0.7953 0.0142 -0.6061
vn -0.2410 0.6570 0.7143
vn -0.0720 0.0528 -0.9960
vn 0.3328 0.1241 -0.9348
vn -0.1337 0.1539 -0.9790
vn -0.2826 0.1016 -0.9538
vn 0.1999 0.1872 -0.9618
vn -0.8703 0.0812 -0.4859
# 46 vertex normals

vt 0.3228 0.3956 0.0000
vt 0.3667 0.3941 0.0000
vt 0.2913 0.5937 0.0000
vt 0.0526 0.5719 0.0000
vt 0.0156 0.6215 0.0000
vt 0.0339 0.3740 0.0000
vt 0.3132 0.6395 0.0000
vt 0.2975 0.6215 0.0000
vt 0.0892 0.3819 0.0000
vt 0.0912 0.3204 0.0000
vt 0.1270 0.3679 0.0000
vt 0.2883 0.4060 0.0000
vt 0.2582 0.4029 0.0000
vt 0.2784 0.3762 0.0000
vt 0.2522 0.3791 0.0000
vt 0.3176 0.3325 0.0000
vt 0.2537 0.5930 0.0000
vt 0.2324 0.5757 0.0000
vt 0.2184 0.5039 0.0000
vt 0.1540 0.3440 0.0000
vt 0.2122 0.3593 0.0000
vt 0.1540 0.3616 0.0000
vt 0.1892 0.3751 0.0000
vt 0.2539 0.3371 0.0000
vt 0.1639 0.6528 0.0000
vt 0.1682 0.6391 0.0000
vt 0.2149 0.5764 0.0000
vt 0.1637 0.6561 0.0000
vt 0.1241 0.6062 0.0000
vt 0.1912 0.5390 0.0000
vt 0.1883 0.5399 0.0000
vt 0.1863 0.5416 0.0000
vt 0.1542 0.5811 0.0000
vt 0.1426 0.5857 0.0000
vt 0.1492 0.5824 0.0000
vt 0.1390 0.5876 0.0000
# 36 texture coords

g mini1
usemtl Material__36
s off
f 1/1/1 2/2/1 3/3/1 
f 4/4/2 5/5/2 2/6/2 
f 5/7/3 6/8/3 2/2/3 
f 6/8/4 3/3/4 2/2/4 
f 7/9/5 2/6/5 8/10/5 
f 9/11/6 7/9/6 8/10/6 
f 10/12/7 11/13/7 12/14/7 
f 12/14/8 11/13/8 13/15/8 
f 2/2/9 1/1/9 8/16/9 
f 10/12/10 12/14/10 1/1/10 
f 1/1/11 12/14/11 8/16/11 
f 1/1/12 3/3/12 10/12/12 
f 3/3/13 14/17/13 10/12/13 
f 14/17/14 15/18/14 10/12/14 
f 15/18/15 16/19/15 10/12/15 
f 16/19/16 11/13/16 10/12/16 
f 17/20/17 18/21/17 19/22/17 
f 19/22/18 18/21/18 20/23/18 
f 8/16/19 12/14/19 17/24/19 
f 17/24/20 12/14/20 18/21/20 
f 12/14/21 13/15/21 18/21/21 
f 18/21/22 13/15/22 11/13/22 
f 17/20/23 19/22/23 9/11/23 
f 9/11/23 8/10/23 17/20/23 
f 21/25/24 22/26/24 14/17/24 
f 14/17/25 22/26/25 15/18/25 
f 23/27/26 15/18/26 22/26/26 
f 21/25/27 6/8/27 5/7/27 
f 5/7/27 24/28/27 21/25/27 
f 25/29/28 24/28/28 5/5/28 
f 5/5/28 4/4/28 25/29/28 
f 2/6/29 7/9/29 4/4/29 
f 18/21/30 11/13/30 20/23/30 
f 11/13/31 16/19/31 20/23/31 
f 23/27/32 16/19/32 15/18/32 
f 16/19/33 23/27/33 26/30/33 
f 27/31/34 26/30/34 23/27/34 
f 28/32/35 27/31/35 23/27/35 
f 23/27/36 22/26/36 29/33/36 
f 29/33/36 28/32/36 23/27/36 
f 30/34/37 31/35/37 29/33/37 
f 30/34/37 29/33/37 22/26/37 
f 30/34/37 22/26/37 21/25/37 
f 30/34/37 21/25/37 24/28/37 
f 30/34/37 24/28/37 32/36/37 
f 24/28/38 25/29/38 32/36/38 
f 25/29/39 4/4/39 7/9/39 
f 21/25/40 14/17/40 3/3/40 
f 3/3/40 6/8/40 21/25/40 
f 32/36/41 25/29/41 7/9/41 
f 7/9/42 9/11/42 29/33/42 
f 7/9/42 29/33/42 31/35/42 
f 7/9/42 31/35/42 30/34/42 
f 7/9/42 30/34/42 32/36/42 
f 28/32/43 29/33/43 9/11/43 
f 19/22/44 27/31/44 28/32/44 
f 28/32/44 9/11/44 19/22/44 
f 20/23/45 26/30/45 27/31/45 
f 27/31/45 19/22/45 20/23/45 
f 16/19/46 26/30/46 20/23/46 
# 60 faces

