# 3ds Max Wavefront OBJ Exporter v0.97b - (c)2007 guruware
# File Created: 21.04.2019 01:03:22

mtllib 7.mtl

#
# object mini001
#

v  -0.3568 1.2937 0.1683
v  -0.3054 1.4995 -0.0036
v  -0.4210 1.2579 -0.0021
v  -0.3785 1.1899 -0.1004
v  0.3205 1.1002 0.0607
v  0.3292 -1.2557 -0.0679
v  0.2165 1.1172 -0.1776
v  0.1086 -1.1914 -0.3224
v  -0.3204 -1.3445 -0.0447
v  -0.1831 -1.3180 -0.3839
v  -0.1977 1.2803 -0.2717
v  0.0194 1.2774 -0.2845
v  -0.1888 1.6307 0.1680
v  -0.2284 1.2329 0.2495
v  -0.0155 1.2658 0.3403
v  0.0348 -1.0453 0.3824
v  -0.1634 -1.0245 0.2237
v  -0.0121 -1.4930 0.2858
v  0.1002 -1.4107 -0.2619
v  -0.1141 -1.6286 -0.0571
v  -0.0594 -1.6220 -0.1535
v  0.0237 -1.6809 -0.0455
v  0.0328 -1.6451 -0.1101
v  0.2122 -1.5538 0.0454
v  0.3019 -1.1876 0.0729
v  0.2284 1.6108 -0.0175
v  0.0427 1.6663 -0.1790
v  0.0421 1.7344 -0.0192
# 28 vertices

vn -0.8750 0.4199 0.2410
vn -0.7449 0.3528 -0.5662
vn 0.9169 0.0251 -0.3982
vn 0.7564 0.0057 -0.6541
vn -0.9257 -0.0295 -0.3771
vn -0.6947 0.0271 -0.7188
vn 0.1879 0.0434 -0.9812
vn -0.0590 0.0132 -0.9982
vn 0.4962 0.0312 -0.8676
vn -0.4434 0.2220 0.8684
vn -0.4116 0.2221 0.8839
vn -0.6283 -0.1006 0.7715
vn 0.7113 -0.2125 -0.6700
vn -0.7567 -0.1603 0.6338
vn -0.3258 -0.9125 -0.2475
vn 0.0077 -0.8752 -0.4836
vn 0.3073 -0.2643 -0.9142
vn 0.9215 -0.2481 0.2987
vn 0.6394 -0.0011 0.7689
vn 0.7632 0.0283 0.6456
vn 0.7335 -0.4733 -0.4878
vn 0.9142 0.1050 -0.3914
vn 0.6767 0.2123 -0.7050
vn 0.6862 -0.2200 0.6934
vn 0.6844 -0.2215 0.6947
vn 0.5234 0.7847 -0.3320
vn -0.7305 0.3548 -0.5835
vn -0.0535 0.2644 -0.9629
vn -0.8644 0.4315 0.2580
vn -0.5693 0.5095 -0.6452
vn -0.5384 0.7746 -0.3319
vn -0.5513 0.8000 -0.2366
vn -0.6265 -0.0269 0.7789
vn -0.3936 0.0082 0.9192
vn -0.5576 -0.0745 0.8268
vn -0.8465 -0.0304 0.5315
vn 0.3737 0.5353 0.7575
vn 0.3527 0.5420 0.7628
vn 0.6870 0.2296 0.6894
vn 0.5787 0.1811 -0.7952
vn -0.7472 -0.5669 -0.3468
vn -0.7317 -0.5117 -0.4503
vn 0.2262 -0.5743 -0.7868
vn 0.1724 -0.5494 -0.8176
vn 0.6294 -0.7139 -0.3067
vn 0.6950 -0.5207 -0.4959
vn 0.3095 -0.8125 0.4941
vn -0.7218 -0.5429 0.4292
vn -0.3515 -0.8302 0.4327
vn -0.9247 -0.0295 -0.3795
vn -0.9321 -0.0419 0.3597
vn 0.9810 -0.0069 0.1936
# 52 vertex normals

vt 0.9367 0.4432 0.0000
vt 0.9060 0.4483 0.0000
vt 0.9053 0.4151 0.0000
vt 0.8904 0.3967 0.0000
vt 0.7749 0.3932 0.0000
vt 0.8014 0.1946 0.0000
vt 0.8149 0.3752 0.0000
vt 0.8320 0.2081 0.0000
vt 0.9008 0.1864 0.0000
vt 0.8594 0.1959 0.0000
vt 0.8578 0.4053 0.0000
vt 0.8444 0.4262 0.0000
vt 0.9272 0.5039 0.0000
vt 0.9510 0.4212 0.0000
vt 0.9844 0.4137 0.0000
vt 0.9815 0.2519 0.0000
vt 0.9425 0.2393 0.0000
vt 0.9334 0.1487 0.0000
vt 0.8326 0.1854 0.0000
vt 0.8584 0.1383 0.0000
vt 0.8532 0.1453 0.0000
vt 0.8496 0.1338 0.0000
vt 0.8485 0.1416 0.0000
vt 0.8049 0.1588 0.0000
vt 0.7764 0.1885 0.0000
vt 0.7213 0.4181 0.0000
vt 0.7276 0.2515 0.0000
vt 0.8144 0.4514 0.0000
vt 0.8405 0.4532 0.0000
vt 0.7653 0.1459 0.0000
vt 0.8427 0.5134 0.0000
vt 0.7741 0.4986 0.0000
# 32 texture coords

g mini001
usemtl Material__25
s off
f 1/1/1 2/2/1 3/3/1 
f 2/2/2 4/4/2 3/3/2 
f 5/5/3 6/6/3 7/7/3 
f 6/6/4 8/8/4 7/7/4 
f 9/9/5 4/4/5 10/10/5 
f 4/4/6 11/11/6 10/10/6 
f 8/8/7 10/10/7 11/11/7 
f 11/11/8 12/12/8 8/8/8 
f 12/12/9 7/7/9 8/8/9 
f 13/13/10 1/1/10 14/14/10 
f 13/13/11 14/14/11 15/15/11 
f 16/16/12 17/17/12 18/18/12 
f 19/19/13 8/8/13 6/6/13 
f 17/17/14 9/9/14 18/18/14 
f 20/20/15 21/21/15 22/22/15 
f 21/21/16 23/23/16 22/22/16 
f 8/8/17 19/19/17 10/10/17 
f 24/24/18 6/6/18 25/25/18 
f 5/5/19 15/26/19 25/25/19 
f 15/26/20 16/27/20 25/25/20 
f 24/24/21 19/19/21 6/6/21 
f 5/5/22 7/7/22 26/28/22 
f 7/7/23 27/29/23 26/28/23 
f 24/24/24 25/25/24 16/27/24 
f 16/27/25 18/30/25 24/24/25 
f 26/28/26 27/29/26 28/31/26 
f 4/4/27 2/2/27 11/11/27 
f 12/12/28 11/11/28 27/29/28 
f 1/1/29 13/13/29 2/2/29 
f 11/11/30 2/2/30 27/29/30 
f 27/29/31 2/2/31 28/31/31 
f 28/31/32 2/2/32 13/13/32 
f 14/14/33 17/17/33 16/16/33 
f 16/16/34 15/15/34 14/14/34 
f 1/1/35 9/9/35 14/14/35 
f 9/9/36 17/17/36 14/14/36 
f 13/32/37 15/26/37 28/31/37 
f 28/31/38 15/26/38 26/28/38 
f 15/26/39 5/5/39 26/28/39 
f 7/7/40 12/12/40 27/29/40 
f 9/9/41 10/10/41 21/21/41 
f 21/21/42 20/20/42 9/9/42 
f 19/19/43 23/23/43 21/21/43 
f 21/21/44 10/10/44 19/19/44 
f 24/24/45 22/22/45 23/23/45 
f 23/23/46 19/19/46 24/24/46 
f 22/22/47 24/24/47 18/30/47 
f 18/18/48 9/9/48 20/20/48 
f 18/18/49 20/20/49 22/22/49 
f 4/4/50 9/9/50 3/3/50 
f 3/3/51 9/9/51 1/1/51 
f 5/5/52 25/25/52 6/6/52 
# 52 faces

