# 3ds Max Wavefront OBJ Exporter v0.97b - (c)2007 guruware
# File Created: 21.04.2019 01:03:47

mtllib 8.mtl

#
# object mini3
#

v  -0.3078 1.1158 0.1696
v  -0.2634 1.2933 -0.0029
v  -0.3631 1.0849 -0.0014
v  -0.3264 1.0263 -0.1001
v  0.2764 0.9489 0.0616
v  0.2839 -1.0830 -0.0586
v  0.1868 0.9636 -0.1775
v  0.0937 -1.0276 -0.2781
v  -0.2763 -1.1596 -0.0385
v  -0.1579 -1.1368 -0.3311
v  -0.1706 1.1043 -0.2719
v  0.0168 1.1017 -0.2848
v  -0.1628 1.4064 0.1692
v  -0.1970 1.0634 0.2510
v  -0.0134 1.0917 0.3421
v  0.0300 -0.9016 0.3298
v  -0.1409 -0.8836 0.1930
v  -0.0105 -1.2877 0.2465
v  0.0864 -1.2167 -0.2259
v  -0.0984 -1.4046 -0.0492
v  -0.0512 -1.3989 -0.1324
v  0.0204 -1.4498 -0.0393
v  0.0283 -1.4189 -0.0950
v  0.1830 -1.3401 0.0392
v  0.2604 -1.0243 0.0628
v  0.1970 1.3893 -0.0169
v  0.0368 1.4372 -0.1789
v  0.0363 1.4959 -0.0186
# 28 vertices

vn -0.8817 0.4231 0.2088
vn -0.7782 0.3685 -0.5085
vn 0.9365 0.0241 -0.3498
vn 0.7554 -0.0022 -0.6552
vn -0.9256 -0.0318 -0.3772
vn -0.7436 0.0135 -0.6685
vn 0.1949 0.0270 -0.9805
vn -0.0689 -0.0056 -0.9976
vn 0.5436 0.0170 -0.8392
vn -0.4947 0.2478 0.8330
vn -0.4613 0.2489 0.8516
vn -0.6283 -0.1006 0.7715
vn 0.7113 -0.2125 -0.6700
vn -0.7567 -0.1603 0.6338
vn -0.3258 -0.9125 -0.2475
vn 0.0077 -0.8752 -0.4836
vn 0.3073 -0.2643 -0.9142
vn 0.9215 -0.2481 0.2987
vn 0.6942 -0.0052 0.7197
vn 0.7598 0.0125 0.6500
vn 0.7335 -0.4733 -0.4878
vn 0.9331 0.1071 -0.3434
vn 0.7254 0.2276 -0.6496
vn 0.6862 -0.2200 0.6934
vn 0.6844 -0.2215 0.6947
vn 0.5311 0.7963 -0.2896
vn -0.7653 0.3717 -0.5256
vn -0.0615 0.3037 -0.9508
vn -0.8720 0.4353 0.2238
vn -0.6030 0.5396 -0.5875
vn -0.5463 0.7860 -0.2895
vn -0.5554 0.8060 -0.2049
vn -0.6271 -0.0412 0.7778
vn -0.4428 -0.0152 0.8965
vn -0.6146 -0.0803 0.7847
vn -0.8408 -0.0403 0.5399
vn 0.4053 0.5805 0.7062
vn 0.3829 0.5885 0.7120
vn 0.7340 0.2454 0.6333
vn 0.6333 0.1982 -0.7481
vn -0.7472 -0.5669 -0.3468
vn -0.7317 -0.5117 -0.4503
vn 0.2262 -0.5743 -0.7868
vn 0.1724 -0.5494 -0.8176
vn 0.6294 -0.7139 -0.3067
vn 0.6950 -0.5207 -0.4959
vn 0.3095 -0.8125 0.4941
vn -0.7218 -0.5429 0.4292
vn -0.3515 -0.8302 0.4327
vn -0.9427 -0.0310 -0.3321
vn -0.9483 -0.0419 0.3145
vn 0.9810 -0.0079 0.1941
# 52 vertex normals

vt 0.9367 0.4432 0.0000
vt 0.9060 0.4483 0.0000
vt 0.9053 0.4151 0.0000
vt 0.8904 0.3967 0.0000
vt 0.7749 0.3932 0.0000
vt 0.8014 0.1946 0.0000
vt 0.8149 0.3752 0.0000
vt 0.8320 0.2081 0.0000
vt 0.9008 0.1864 0.0000
vt 0.8594 0.1959 0.0000
vt 0.8578 0.4053 0.0000
vt 0.8444 0.4262 0.0000
vt 0.9272 0.5039 0.0000
vt 0.9510 0.4212 0.0000
vt 0.9844 0.4137 0.0000
vt 0.9815 0.2519 0.0000
vt 0.9425 0.2393 0.0000
vt 0.9334 0.1487 0.0000
vt 0.8326 0.1854 0.0000
vt 0.8584 0.1383 0.0000
vt 0.8532 0.1453 0.0000
vt 0.8496 0.1338 0.0000
vt 0.8485 0.1416 0.0000
vt 0.8049 0.1588 0.0000
vt 0.7764 0.1885 0.0000
vt 0.7213 0.4181 0.0000
vt 0.7276 0.2515 0.0000
vt 0.8144 0.4514 0.0000
vt 0.8405 0.4532 0.0000
vt 0.7653 0.1459 0.0000
vt 0.8427 0.5134 0.0000
vt 0.7741 0.4986 0.0000
# 32 texture coords

g mini3
usemtl Material__25
s off
f 1/1/1 2/2/1 3/3/1 
f 2/2/2 4/4/2 3/3/2 
f 5/5/3 6/6/3 7/7/3 
f 6/6/4 8/8/4 7/7/4 
f 9/9/5 4/4/5 10/10/5 
f 4/4/6 11/11/6 10/10/6 
f 8/8/7 10/10/7 11/11/7 
f 11/11/8 12/12/8 8/8/8 
f 12/12/9 7/7/9 8/8/9 
f 13/13/10 1/1/10 14/14/10 
f 13/13/11 14/14/11 15/15/11 
f 16/16/12 17/17/12 18/18/12 
f 19/19/13 8/8/13 6/6/13 
f 17/17/14 9/9/14 18/18/14 
f 20/20/15 21/21/15 22/22/15 
f 21/21/16 23/23/16 22/22/16 
f 8/8/17 19/19/17 10/10/17 
f 24/24/18 6/6/18 25/25/18 
f 5/5/19 15/26/19 25/25/19 
f 15/26/20 16/27/20 25/25/20 
f 24/24/21 19/19/21 6/6/21 
f 5/5/22 7/7/22 26/28/22 
f 7/7/23 27/29/23 26/28/23 
f 24/24/24 25/25/24 16/27/24 
f 16/27/25 18/30/25 24/24/25 
f 26/28/26 27/29/26 28/31/26 
f 4/4/27 2/2/27 11/11/27 
f 12/12/28 11/11/28 27/29/28 
f 1/1/29 13/13/29 2/2/29 
f 11/11/30 2/2/30 27/29/30 
f 27/29/31 2/2/31 28/31/31 
f 28/31/32 2/2/32 13/13/32 
f 14/14/33 17/17/33 16/16/33 
f 16/16/34 15/15/34 14/14/34 
f 1/1/35 9/9/35 14/14/35 
f 9/9/36 17/17/36 14/14/36 
f 13/32/37 15/26/37 28/31/37 
f 28/31/38 15/26/38 26/28/38 
f 15/26/39 5/5/39 26/28/39 
f 7/7/40 12/12/40 27/29/40 
f 9/9/41 10/10/41 21/21/41 
f 21/21/42 20/20/42 9/9/42 
f 19/19/43 23/23/43 21/21/43 
f 21/21/44 10/10/44 19/19/44 
f 24/24/45 22/22/45 23/23/45 
f 23/23/46 19/19/46 24/24/46 
f 22/22/47 24/24/47 18/30/47 
f 18/18/48 9/9/48 20/20/48 
f 18/18/49 20/20/49 22/22/49 
f 4/4/50 9/9/50 3/3/50 
f 3/3/51 9/9/51 1/1/51 
f 5/5/52 25/25/52 6/6/52 
# 52 faces

