# 3ds Max Wavefront OBJ Exporter v0.97b - (c)2007 guruware
# File Created: 21.04.2019 01:04:16

mtllib 9.mtl

#
# object mini001
#

v  -0.1766 0.7748 0.1663
v  -0.2287 0.8300 -0.0552
v  -0.2298 -0.8334 -0.0373
v  -0.2623 0.5062 -0.1743
v  0.3824 0.4438 0.0239
v  0.2624 -0.7715 -0.0566
v  0.2865 0.4556 -0.2692
v  0.0953 -0.7268 -0.2683
v  -0.1258 -0.8150 -0.3194
v  -0.0956 0.5692 -0.3849
v  0.0166 0.7088 -0.4007
v  0.0340 1.0406 0.2443
v  -0.1302 0.6302 0.2560
v  -0.0403 0.7815 0.2649
v  0.0393 -0.6250 0.3179
v  -0.1400 -0.6105 0.2170
v  0.0037 -0.9369 0.2376
v  0.0888 -0.8795 -0.2179
v  -0.0064 -1.2032 0.0015
v  -0.0560 -1.1773 -0.0629
v  0.0239 -1.2137 -0.0449
v  -0.0320 -1.1727 -0.1278
v  0.0106 -1.1888 -0.1046
v  0.1738 -0.9792 0.0376
v  0.2417 -0.7716 0.1299
v  0.0725 0.5591 0.3677
v  0.3365 0.8523 -0.1574
v  0.1262 0.8935 -0.3352
v  0.1217 1.2137 -0.0744
# 29 vertices

vn -0.9745 0.0026 0.2245
vn -0.8226 0.0028 0.5687
vn 0.9990 -0.0105 -0.0444
vn 0.9633 -0.0434 -0.2647
vn 0.8940 -0.0316 -0.4470
vn 0.5943 -0.0569 -0.8022
vn -0.9401 -0.0363 -0.3389
vn 0.8943 -0.0002 0.4475
vn -0.7353 -0.0423 -0.6764
vn -0.5462 -0.0366 -0.8368
vn 0.1766 -0.0027 0.9843
vn -0.6781 0.1641 0.7164
vn -0.9568 -0.1445 0.2521
vn 0.9201 -0.1038 -0.3776
vn -0.8426 -0.1431 0.5191
vn -0.3562 -0.6038 0.7132
vn -0.9079 -0.3990 0.1285
vn 0.8915 -0.4511 0.0419
vn -0.5193 -0.4538 -0.7242
vn 0.7620 -0.3175 -0.5644
vn 0.3360 -0.2252 -0.9145
vn 0.9959 -0.0857 0.0290
vn 0.9995 -0.0165 0.0262
vn 0.9541 -0.0001 0.2995
vn 0.9288 0.0000 0.3706
vn 0.9347 -0.2117 -0.2856
vn 0.9925 -0.1128 0.0474
vn 0.5565 0.0009 -0.8308
vn 0.9641 -0.2493 0.0918
vn 0.4976 0.5127 -0.6997
vn -0.7289 0.3572 -0.5841
vn -0.8819 0.4612 0.0982
vn -0.8596 0.4101 0.3049
vn -0.7045 0.3574 -0.6131
vn -0.6953 0.4316 -0.5747
vn -0.8005 0.5884 0.1141
vn -0.9738 -0.0168 0.2270
vn -0.9028 -0.0212 0.4296
vn -0.9453 -0.0034 0.3262
vn -0.5768 0.1097 0.8095
vn 0.9214 0.1282 0.3669
vn 0.6158 0.2453 0.7487
vn 0.7943 0.0793 0.6024
vn -0.5748 0.1035 0.8118
vn -0.8904 0.0517 0.4521
vn 0.8157 -0.0869 -0.5720
vn -0.8886 -0.3129 -0.3355
vn 0.3070 -0.3138 -0.8985
vn 0.9364 -0.1997 -0.2886
vn 0.7240 -0.4321 0.5377
vn -0.8416 -0.3285 0.4288
# 51 vertex normals

vt 0.9367 0.4432 0.0000
vt 0.9060 0.4483 0.0000
vt 0.9008 0.1864 0.0000
vt 0.8904 0.3967 0.0000
vt 0.7749 0.3932 0.0000
vt 0.8014 0.1946 0.0000
vt 0.8149 0.3752 0.0000
vt 0.8320 0.2081 0.0000
vt 0.8594 0.1959 0.0000
vt 0.8578 0.4053 0.0000
vt 0.8444 0.4262 0.0000
vt 0.9272 0.5039 0.0000
vt 0.9510 0.4212 0.0000
vt 0.9489 0.4513 0.0000
vt 0.9815 0.2519 0.0000
vt 0.9425 0.2393 0.0000
vt 0.9334 0.1487 0.0000
vt 0.8326 0.1854 0.0000
vt 0.8530 0.1268 0.0000
vt 0.8584 0.1383 0.0000
vt 0.8496 0.1338 0.0000
vt 0.8532 0.1453 0.0000
vt 0.8485 0.1416 0.0000
vt 0.8049 0.1588 0.0000
vt 0.7764 0.1885 0.0000
vt 0.7213 0.4181 0.0000
vt 0.7276 0.2515 0.0000
vt 0.8144 0.4514 0.0000
vt 0.8405 0.4532 0.0000
vt 0.7653 0.1459 0.0000
vt 0.8427 0.5134 0.0000
vt 0.9844 0.4137 0.0000
vt 0.7741 0.4986 0.0000
# 33 texture coords

g mini001
usemtl Material__25
s off
f 1/1/1 2/2/1 3/3/1 
f 2/2/2 4/4/2 3/3/2 
f 5/5/3 6/6/4 7/7/5 
f 6/6/4 8/8/6 7/7/5 
f 3/3/7 4/4/8 9/9/9 
f 4/4/8 10/10/10 9/9/9 
f 9/9/9 10/10/10 8/8/6 
f 10/10/10 11/11/11 8/8/6 
f 11/11/11 7/7/5 8/8/6 
f 12/12/12 1/1/12 13/13/12 
f 13/13/12 14/14/12 12/12/12 
f 15/15/13 16/16/13 17/17/13 
f 18/18/14 8/8/14 6/6/14 
f 16/16/15 3/3/15 17/17/15 
f 19/19/16 20/20/17 21/21/18 
f 20/20/17 22/22/19 21/21/18 
f 22/22/19 23/23/20 21/21/18 
f 8/8/21 18/18/21 9/9/21 
f 24/24/22 6/6/22 25/25/22 
f 6/6/23 5/5/23 25/25/23 
f 5/5/24 26/26/24 25/25/24 
f 26/26/25 15/27/25 25/25/25 
f 24/24/26 18/18/26 6/6/26 
f 5/5/27 7/7/27 27/28/27 
f 7/7/28 28/29/28 27/28/28 
f 24/24/29 25/25/29 15/27/29 
f 15/27/29 17/30/29 24/24/29 
f 27/28/30 28/29/30 29/31/30 
f 4/4/31 2/2/31 10/10/31 
f 11/11/32 10/10/32 28/29/32 
f 1/1/33 12/12/33 2/2/33 
f 10/10/34 2/2/34 28/29/34 
f 28/29/35 2/2/35 29/31/35 
f 29/31/36 2/2/36 12/12/36 
f 15/15/37 13/13/37 16/16/37 
f 1/1/38 3/3/38 13/13/38 
f 3/3/39 16/16/39 13/13/39 
f 14/14/40 26/32/40 12/12/40 
f 12/33/41 26/26/41 29/31/41 
f 29/31/42 26/26/42 27/28/42 
f 26/26/43 5/5/43 27/28/43 
f 14/14/44 13/13/44 26/32/44 
f 13/13/45 15/15/45 26/32/45 
f 7/7/46 11/11/46 28/29/46 
f 3/3/47 9/9/47 22/22/19 
f 22/22/19 20/20/17 3/3/47 
f 18/18/48 23/23/20 22/22/19 
f 22/22/19 9/9/48 18/18/48 
f 24/24/49 21/21/18 23/23/20 
f 23/23/20 18/18/49 24/24/49 
f 17/30/50 19/19/16 21/21/18 
f 21/21/18 24/24/50 17/30/50 
f 17/17/51 3/3/51 20/20/17 
f 20/20/17 19/19/16 17/17/51 
# 54 faces

