# 3ds Max Wavefront OBJ Exporter v0.97b - (c)2007 guruware
# File Created: 30.03.2019 18:43:26

mtllib mini3.mtl

#
# object mini3
#

v  -0.9693 4.8906 0.9464
v  -1.2701 5.2387 -0.3174
v  -1.2775 -5.2604 -0.2147
v  -1.3694 3.1953 -0.9551
v  1.1506 2.8012 0.1300
v  0.9460 -4.8698 -0.3221
v  1.0111 2.2425 -1.4547
v  0.3865 -4.5873 -1.5150
v  -0.6904 -5.1439 -1.8314
v  -0.4761 3.5929 -2.1248
v  0.1492 4.4739 -2.2561
v  0.1566 6.5681 1.4704
v  -0.7002 3.9775 1.4245
v  -0.2564 4.9329 1.5095
v  0.2861 -2.4365 2.2561
v  -0.7387 -3.0395 1.2408
v  -0.0305 -5.9134 1.3958
v  0.3661 -5.5514 -1.2653
v  -0.0449 -7.5943 0.0097
v  -0.3566 -7.4310 -0.3929
v  0.1507 -7.6610 -0.2834
v  -0.2099 -7.4019 -0.7971
v  0.0543 -7.5038 -0.6556
v  0.7519 -6.1804 0.2232
v  0.9020 -4.8704 0.7393
v  0.3793 3.5291 2.0276
v  1.3694 5.3798 -0.9090
v  0.6801 5.6396 -1.9518
v  0.7682 7.6610 -0.4697
# 29 vertices

vn -0.9726 0.0030 0.2323
vn -0.9891 0.0021 0.1471
vn 0.9966 -0.0219 -0.0800
vn 0.9246 -0.0681 -0.3748
vn 0.8660 -0.0411 -0.4984
vn 0.6156 -0.0621 -0.7856
vn -0.9382 -0.0403 -0.3436
vn -0.8158 -0.0057 -0.5783
vn -0.7070 -0.0483 -0.7056
vn -0.4760 -0.0440 -0.8783
vn 0.2786 -0.0710 -0.9578
vn -0.6155 0.1900 0.7649
vn -0.6610 -0.1229 0.7403
vn 0.8845 -0.1344 -0.4467
vn -0.8114 -0.1698 0.5594
vn -0.3158 -0.6140 0.7234
vn -0.9024 -0.4126 0.1240
vn 0.9012 -0.4320 0.0342
vn -0.4887 -0.4596 -0.7416
vn 0.7617 -0.3153 -0.5660
vn 0.3854 -0.2390 -0.8913
vn 0.9907 -0.1297 0.0410
vn 0.9987 -0.0291 0.0414
vn 0.9264 -0.0001 0.3766
vn 0.9265 -0.0001 0.3763
vn 0.8948 -0.2779 -0.3493
vn 0.9932 -0.1046 -0.0506
vn 0.8343 0.0006 -0.5513
vn 0.7302 -0.2536 0.6344
vn 0.8271 0.3084 -0.4699
vn -0.8102 0.2101 -0.5472
vn -0.7525 0.4645 -0.4669
vn -0.8294 0.4558 0.3230
vn -0.6333 0.4131 -0.6544
vn -0.6189 0.4818 -0.6203
vn -0.7554 0.6434 0.1243
vn -0.6993 -0.0149 0.7147
vn -0.8907 -0.0249 0.4539
vn -0.9357 -0.0041 0.3527
vn -0.4357 0.1313 0.8904
vn 0.9208 0.1346 0.3661
vn 0.9007 0.1595 0.4042
vn 0.9328 0.0638 0.3547
vn -0.4432 0.1269 0.8874
vn -0.4743 0.0411 0.8794
vn 0.5922 -0.0599 -0.8036
vn -0.8747 -0.3430 -0.3424
vn 0.3440 -0.3295 -0.8792
vn 0.9059 -0.2512 -0.3409
vn 0.6817 -0.4690 0.5616
vn -0.8000 -0.3777 0.4663
# 51 vertex normals

vt 0.9367 0.4432 0.0000
vt 0.9060 0.4483 0.0000
vt 0.9008 0.1864 0.0000
vt 0.8904 0.3967 0.0000
vt 0.7749 0.3932 0.0000
vt 0.8014 0.1946 0.0000
vt 0.8149 0.3752 0.0000
vt 0.8320 0.2081 0.0000
vt 0.8594 0.1959 0.0000
vt 0.8578 0.4053 0.0000
vt 0.8444 0.4262 0.0000
vt 0.9272 0.5039 0.0000
vt 0.9510 0.4212 0.0000
vt 0.9489 0.4513 0.0000
vt 0.9815 0.2519 0.0000
vt 0.9425 0.2393 0.0000
vt 0.9334 0.1487 0.0000
vt 0.8326 0.1854 0.0000
vt 0.8530 0.1268 0.0000
vt 0.8584 0.1383 0.0000
vt 0.8496 0.1338 0.0000
vt 0.8532 0.1453 0.0000
vt 0.8485 0.1416 0.0000
vt 0.8049 0.1588 0.0000
vt 0.7764 0.1885 0.0000
vt 0.7213 0.4181 0.0000
vt 0.7276 0.2515 0.0000
vt 0.8144 0.4514 0.0000
vt 0.8405 0.4532 0.0000
vt 0.7653 0.1459 0.0000
vt 0.8427 0.5134 0.0000
vt 0.9844 0.4137 0.0000
vt 0.7741 0.4986 0.0000
# 33 texture coords

g mini3
usemtl mini_M
s off
f 1/1/1 2/2/1 3/3/1 
f 2/2/2 4/4/2 3/3/2 
f 5/5/3 6/6/4 7/7/5 
f 6/6/4 8/8/6 7/7/5 
f 3/3/7 4/4/8 9/9/9 
f 4/4/8 10/10/10 9/9/9 
f 9/9/9 10/10/10 8/8/6 
f 10/10/10 11/11/11 8/8/6 
f 11/11/11 7/7/5 8/8/6 
f 12/12/12 1/1/12 13/13/12 
f 13/13/12 14/14/12 12/12/12 
f 15/15/13 16/16/13 17/17/13 
f 18/18/14 8/8/14 6/6/14 
f 16/16/15 3/3/15 17/17/15 
f 19/19/16 20/20/17 21/21/18 
f 20/20/17 22/22/19 21/21/18 
f 22/22/19 23/23/20 21/21/18 
f 8/8/21 18/18/21 9/9/21 
f 24/24/22 6/6/22 25/25/22 
f 6/6/23 5/5/23 25/25/23 
f 5/5/24 26/26/24 25/25/24 
f 26/26/25 15/27/25 25/25/25 
f 24/24/26 18/18/26 6/6/26 
f 5/5/27 7/7/27 27/28/27 
f 7/7/28 28/29/28 27/28/28 
f 24/24/29 25/25/29 15/27/29 
f 15/27/29 17/30/29 24/24/29 
f 27/28/30 28/29/30 29/31/30 
f 4/4/31 2/2/31 10/10/31 
f 11/11/32 10/10/32 28/29/32 
f 1/1/33 12/12/33 2/2/33 
f 10/10/34 2/2/34 28/29/34 
f 28/29/35 2/2/35 29/31/35 
f 29/31/36 2/2/36 12/12/36 
f 15/15/37 13/13/37 16/16/37 
f 1/1/38 3/3/38 13/13/38 
f 3/3/39 16/16/39 13/13/39 
f 14/14/40 26/32/40 12/12/40 
f 12/33/41 26/26/41 29/31/41 
f 29/31/42 26/26/42 27/28/42 
f 26/26/43 5/5/43 27/28/43 
f 14/14/44 13/13/44 26/32/44 
f 13/13/45 15/15/45 26/32/45 
f 7/7/46 11/11/46 28/29/46 
f 3/3/47 9/9/47 22/22/19 
f 22/22/19 20/20/17 3/3/47 
f 18/18/48 23/23/20 22/22/19 
f 22/22/19 9/9/48 18/18/48 
f 24/24/49 21/21/18 23/23/20 
f 23/23/20 18/18/49 24/24/49 
f 17/30/50 19/19/16 21/21/18 
f 21/21/18 24/24/50 17/30/50 
f 17/17/51 3/3/51 20/20/17 
f 20/20/17 19/19/16 17/17/51 
# 54 faces

