# 3ds Max Wavefront OBJ Exporter v0.97b - (c)2007 guruware
# File Created: 30.03.2019 18:42:51

mtllib mini2.mtl

#
# object mini2
#

v  -1.6442 -3.7191 0.0346
v  -1.6352 -3.7754 0.2482
v  -1.9705 -2.1464 0.6519
v  -1.9477 -2.1098 -0.3471
v  0.7362 -4.5147 2.7519
v  -1.2050 0.7232 2.3118
v  0.1363 -5.7929 0.6970
v  0.9263 0.5973 -2.7519
v  0.8876 -3.4184 -2.3708
v  -1.1136 0.8312 -2.5741
v  0.1001 -5.6060 -1.0474
v  1.1259 3.5557 1.1343
v  1.6112 1.2444 1.2875
v  1.8317 3.3751 0.6472
v  1.9237 5.7929 0.4208
v  1.6184 -3.8831 0.5306
v  1.1884 3.5510 0.3385
v  1.9705 5.7894 -0.1761
v  1.2112 3.5294 -2.0109
v  1.8942 4.4311 -0.1943
v  0.9013 1.5724 -2.1000
v  1.7115 3.4284 -2.2243
# 22 vertices

vn -0.9808 -0.1933 -0.0260
vn -0.8592 -0.2826 0.4265
vn -0.0971 -0.0931 -0.9909
vn -0.5331 -0.2891 -0.7951
vn 0.5838 0.1131 0.8040
vn 0.7839 -0.6154 -0.0823
vn 0.8335 -0.4729 -0.2857
vn 0.3083 0.1726 0.9355
vn 0.7879 -0.5990 0.1426
vn 0.9732 -0.0323 0.2278
vn 0.9331 -0.0512 0.3560
vn -0.9448 0.3274 -0.0122
vn 0.9426 -0.0485 -0.3303
vn -0.3731 0.1011 -0.9223
vn -0.0076 0.8968 -0.4423
vn -0.7610 0.6487 -0.0043
vn -0.7837 0.6178 -0.0652
vn -0.9466 0.3133 -0.0762
vn 0.9989 -0.0299 0.0366
vn 0.9989 -0.0352 0.0300
vn 0.9953 -0.0570 0.0785
vn 0.9818 -0.0778 -0.1734
vn 0.4330 0.0476 -0.9001
vn 0.1421 0.2295 -0.9629
vn -0.7468 -0.6619 -0.0650
vn -0.5458 -0.3057 0.7802
vn -0.9644 0.2643 -0.0122
vn -0.7094 -0.2865 -0.6440
# 28 vertex normals

vt 0.0971 0.2000 0.0000
vt 0.0893 0.1940 0.0000
vt 0.1222 0.1705 0.0000
vt 0.1321 0.1858 0.0000
vt 0.0481 0.0875 0.0000
vt 0.1814 0.1060 0.0000
vt 0.0156 0.1464 0.0000
vt 0.2463 0.1902 0.0000
vt 0.1812 0.2741 0.0000
vt 0.2225 0.1698 0.0000
vt 0.1208 0.2857 0.0000
vt 0.2781 0.0596 0.0000
vt 0.2074 0.0444 0.0000
vt 0.2809 0.0336 0.0000
vt 0.3534 0.0622 0.0000
vt 0.0959 0.3126 0.0000
vt 0.2052 0.3486 0.0000
vt 0.0422 0.0277 0.0000
vt 0.2915 0.0773 0.0000
vt 0.3653 0.0758 0.0000
vt 0.3117 0.1354 0.0000
vt 0.3721 0.1350 0.0000
vt 0.2722 0.1738 0.0000
vt 0.3173 0.1456 0.0000
vt 0.3200 0.0156 0.0000
# 25 texture coords

g mini2
usemtl mini_M
s off
f 1/1/1 2/2/1 3/3/1 
f 3/3/1 4/4/1 1/1/1 
f 5/5/2 6/6/2 7/7/2 
f 8/8/3 9/9/3 10/10/3 
f 10/10/4 9/9/4 11/11/4 
f 12/12/5 13/13/5 14/14/5 
f 14/14/5 15/15/5 12/12/5 
f 7/16/6 11/11/6 16/17/6 
f 11/11/7 9/9/7 16/17/7 
f 5/5/8 13/13/8 12/12/8 
f 12/12/8 6/6/8 5/5/8 
f 7/7/9 16/18/9 5/5/9 
f 14/14/10 13/13/10 16/18/10 
f 16/18/11 13/13/11 5/5/11 
f 17/19/12 18/20/12 19/21/12 
f 18/20/13 20/22/13 19/21/13 
f 21/23/14 19/21/14 22/24/14 
f 19/21/15 20/22/15 22/24/15 
f 6/6/16 17/19/16 19/21/16 
f 19/21/16 10/10/16 6/6/16 
f 6/6/17 12/12/17 17/19/17 
f 17/19/18 12/12/18 18/20/18 
f 12/12/18 15/15/18 18/20/18 
f 16/18/19 20/25/19 14/14/19 
f 14/14/20 20/25/20 15/15/20 
f 20/25/21 18/20/21 15/15/21 
f 16/17/22 9/9/22 22/24/22 
f 22/24/22 20/22/22 16/17/22 
f 8/8/23 21/23/23 22/24/23 
f 22/24/23 9/9/23 8/8/23 
f 21/23/24 8/8/24 10/10/24 
f 10/10/24 19/21/24 21/23/24 
f 2/2/25 1/1/25 11/11/25 
f 11/11/25 7/16/25 2/2/25 
f 6/6/26 3/3/26 2/2/26 
f 2/2/26 7/7/26 6/6/26 
f 4/4/27 3/3/27 6/6/27 
f 6/6/27 10/10/27 4/4/27 
f 10/10/28 11/11/28 1/1/28 
f 1/1/28 4/4/28 10/10/28 
# 40 faces

