# 3ds Max Wavefront OBJ Exporter v0.97b - (c)2007 guruware
# File Created: 19.04.2019 01:56:40

mtllib 5.mtl

#
# object crystal_small_002
#

v  312.6190 -1722.7521 -306.6060
v  327.4450 1761.4370 -250.4430
v  362.8460 1769.1880 155.5120
v  -6.4820 -1751.8101 463.2710
v  150.8510 -1966.5691 225.3640
v  318.5890 -1689.7791 128.5650
v  -255.9470 1728.4219 335.0010
v  60.6840 1685.3669 457.6870
v  29.4190 2066.1812 76.7040
v  -33.6190 -1767.4120 -490.3060
v  -25.3010 1720.3461 -373.9840
v  -256.9910 1808.2860 -0.6830
v  -43.4010 -1874.2970 -360.7180
v  -354.5030 -1728.8600 24.6640
v  -362.8460 1624.1290 4.8620
v  124.3910 -2178.9529 -13.5450
v  154.6970 -2165.2310 14.2470
v  304.5150 -1858.1599 -44.0030
v  -256.5370 -1726.9180 384.8720
v  68.0640 -1565.7400 484.8910
v  63.3470 -2154.9580 -51.7600
# 21 vertices

vn 0.9218 -0.0610 -0.3827
vn 0.6997 0.3596 -0.6174
vn 0.8731 0.3753 0.3113
vn 0.1964 -0.4383 0.8771
vn 0.3710 -0.5429 0.7534
vn 0.8797 -0.1647 0.4461
vn -0.8193 0.3786 0.4307
vn 0.2275 0.2328 0.9455
vn 0.0122 0.8222 0.5691
vn -0.0441 -0.1913 -0.9805
vn -0.3440 0.0539 -0.9374
vn -0.3859 0.7118 -0.5868
vn -0.6352 0.7350 -0.2373
vn -0.7216 0.6357 -0.2741
vn -0.2953 -0.6076 -0.7373
vn -0.9540 -0.2757 -0.1178
vn -0.9430 0.0267 -0.3316
vn -0.7687 0.4396 -0.4646
vn -0.5057 0.4601 -0.7298
vn -0.8837 0.4677 -0.0197
vn 0.1646 -0.6832 -0.7114
vn 0.0869 -0.6924 -0.7163
vn 0.4596 -0.5130 -0.7250
vn 0.4469 -0.6287 -0.6364
vn 0.7820 -0.5779 0.2335
vn 0.9756 -0.2069 0.0736
vn -0.5576 -0.2628 0.7874
vn -0.3947 -0.6898 0.6069
vn 0.2817 -0.0871 0.9555
vn -0.2677 -0.8435 -0.4656
vn 0.7443 0.6391 0.1940
vn 0.0279 0.5655 -0.8243
vn 0.1184 0.8519 -0.5102
vn 0.8714 -0.3917 -0.2955
# 34 vertex normals

vt 0.5632 0.9094 0.0000
vt 0.5501 0.4895 0.0000
vt 0.5838 0.4755 0.0000
vt 0.4186 0.9083 0.0000
vt 0.4161 0.9441 0.0000
vt 0.3741 0.9180 0.0000
vt 0.4583 0.4839 0.0000
vt 0.4245 0.4873 0.0000
vt 0.4339 0.4205 0.0000
vt 0.5241 0.9144 0.0000
vt 0.5203 0.4900 0.0000
vt 0.4881 0.4617 0.0000
vt 0.5342 0.4371 0.0000
vt 0.5144 0.9386 0.0000
vt 0.4705 0.9018 0.0000
vt 0.4839 0.4923 0.0000
vt 0.5643 0.9894 0.0000
vt 0.4299 0.9818 0.0000
vt 0.3762 0.9579 0.0000
vt 0.4385 0.9004 0.0000
vt 0.4428 0.9820 0.0000
vt 0.4132 0.8908 0.0000
vt 0.4615 0.9744 0.0000
vt 0.3823 0.4643 0.0000
vt 0.6065 0.9076 0.0000
vt 0.5882 0.9340 0.0000
vt 0.5538 0.9874 0.0000
vt 0.5705 0.9879 0.0000
# 28 texture coords

g crystal_small_002
usemtl crystal_small_003SG
s off
f 1/1/1 2/2/2 3/3/3 
f 4/4/4 5/5/5 6/6/6 
f 7/7/7 8/8/8 9/9/9 
f 10/10/10 11/11/11 2/2/2 
f 11/11/12 12/12/13 9/13/14 
f 10/10/10 13/14/15 14/15/16 
f 14/15/16 15/16/17 11/11/11 
f 15/16/17 12/12/18 11/11/19 
f 12/12/13 15/16/20 7/7/7 
f 13/14/21 10/10/22 1/1/23 
f 13/14/21 1/1/23 16/17/24 
f 17/18/25 18/19/26 6/6/6 
f 4/4/4 19/20/27 16/21/28 
f 5/5/5 16/21/28 17/18/25 
f 4/4/4 20/22/29 19/20/27 
f 8/8/8 7/7/7 19/20/27 
f 7/7/7 15/16/17 14/15/16 
f 14/15/16 21/23/30 16/21/28 
f 6/6/6 3/24/3 8/8/8 
f 6/25/6 18/26/26 1/1/1 
f 6/25/6 1/1/1 3/3/3 
f 20/22/29 4/4/4 6/6/6 
f 8/8/8 3/24/3 9/9/9 
f 3/3/3 2/2/2 9/13/31 
f 2/2/2 11/11/32 9/13/33 
f 1/1/1 10/10/10 2/2/2 
f 10/10/10 14/15/16 11/11/11 
f 12/12/13 7/7/7 9/9/14 
f 21/27/30 13/14/21 16/17/24 
f 14/15/16 13/14/15 21/23/30 
f 16/17/24 18/26/34 17/28/25 
f 5/5/5 17/18/25 6/6/6 
f 5/5/5 4/4/4 16/21/28 
f 20/22/29 8/8/8 19/20/27 
f 19/20/27 7/7/7 14/15/16 
f 19/20/27 14/15/16 16/21/28 
f 16/17/24 1/1/23 18/26/34 
f 20/22/29 6/6/6 8/8/8 
# 38 faces

