# 3ds Max Wavefront OBJ Exporter v0.97b - (c)2007 guruware
# File Created: 21.04.2019 00:51:53

mtllib 6.mtl

#
# object crystal_small_001
#

v  0.5709 1.3595 -0.2977
v  0.4554 -1.3728 -0.2738
v  0.0844 -1.4024 -0.5398
v  0.0446 -1.9434 0.0255
v  -0.0979 -1.8753 0.0248
v  -0.6303 -1.3173 0.1686
v  -0.5810 -1.5027 -0.2957
v  0.7067 1.1599 0.3591
v  0.4501 -1.2161 0.2481
v  0.4034 -1.4414 0.2048
v  -0.0073 -1.5515 0.3796
v  0.1053 -1.3396 0.4675
v  -0.0396 -0.9195 0.5532
v  0.5076 1.4316 0.3942
v  -0.0831 1.5042 0.5081
v  -0.0903 1.0745 0.6317
v  -0.1806 -1.3000 0.4447
v  0.6308 1.4273 0.1066
v  -0.0530 1.9318 0.0223
v  0.0314 1.8443 0.1180
v  0.0000 1.3165 -0.4678
v  -0.1089 1.7086 -0.2899
v  -0.1543 1.8345 -0.1924
v  -0.2261 1.4015 -0.4228
v  -0.3951 1.4970 -0.3384
v  -0.4631 1.1892 -0.3812
v  -0.4276 1.6004 0.1099
v  -0.5604 1.1139 0.2108
v  -0.4215 1.4224 0.3484
# 29 vertices

vn 0.8348 0.1623 -0.5261
vn 0.8775 -0.3284 -0.3495
vn 0.1175 -0.4480 -0.8863
vn 0.2455 -0.9687 0.0361
vn -0.5517 -0.8217 0.1432
vn -0.8024 -0.2319 0.5500
vn -0.7884 -0.2989 -0.5377
vn 0.9147 0.1238 0.3847
vn 0.7707 -0.0263 0.6366
vn 0.9096 -0.3584 0.2102
vn -0.0092 -0.6195 0.7849
vn 0.4308 -0.1654 0.8872
vn -0.0094 -0.1921 0.9813
vn 0.6558 -0.3347 0.6766
vn 0.6175 -0.5639 0.5484
vn 0.6302 0.3321 0.7018
vn 0.2420 0.4358 0.8669
vn -0.0238 0.0353 0.9991
vn -0.0085 -0.0019 1.0000
vn -0.5598 -0.3778 0.7375
vn -0.2477 -0.4441 0.8611
vn 0.8749 0.4843 0.0066
vn 0.5862 0.7696 -0.2532
vn 0.2008 0.9043 0.3767
vn 0.7530 0.6191 -0.2232
vn 0.5315 0.5515 -0.6429
vn 0.2729 0.5316 -0.8018
vn 0.2967 0.7082 -0.6406
vn -0.1641 0.7862 -0.5959
vn 0.0255 0.9948 -0.0982
vn -0.1761 0.4971 -0.8497
vn -0.6802 0.5967 -0.4257
vn -0.6133 0.1479 -0.7758
vn 0.0166 0.0682 -0.9975
vn -0.7994 0.5752 0.1733
vn -0.9689 0.2463 -0.0236
vn -0.9579 0.0315 0.2855
vn -0.9411 0.2434 -0.2348
vn -0.8039 0.0683 -0.5908
vn -0.6155 0.5069 0.6035
vn -0.0278 0.6786 0.7339
vn -0.2980 0.2226 0.9283
vn 0.7077 -0.7062 0.0217
vn 0.5411 0.6848 0.4882
# 44 vertex normals

vt 0.9234 0.8646 0.0000
vt 0.8975 0.5504 0.0000
vt 0.9439 0.5344 0.0000
vt 0.6188 0.5296 0.0000
vt 0.6870 0.4627 0.0000
vt 0.6980 0.4838 0.0000
vt 0.7280 0.5574 0.0000
vt 0.6812 0.5448 0.0000
vt 0.8531 0.8463 0.0000
vt 0.8461 0.5633 0.0000
vt 0.8486 0.5443 0.0000
vt 0.8071 0.5114 0.0000
vt 0.8049 0.5428 0.0000
vt 0.7884 0.5889 0.0000
vt 0.8637 0.4788 0.0000
vt 0.8442 0.8692 0.0000
vt 0.7918 0.8995 0.0000
vt 0.7887 0.8707 0.0000
vt 0.7715 0.5419 0.0000
vt 0.7609 0.4966 0.0000
vt 0.8774 0.8681 0.0000
vt 0.8834 0.9578 0.0000
vt 0.8580 0.9422 0.0000
vt 0.9754 0.8714 0.0000
vt 0.9473 0.9343 0.0000
vt 0.9264 0.9555 0.0000
vt 0.6332 0.8764 0.0000
vt 0.6674 0.8790 0.0000
vt 0.6812 0.9303 0.0000
vt 0.6647 0.8516 0.0000
vt 0.6137 0.8671 0.0000
vt 0.7214 0.8862 0.0000
vt 0.7300 0.8420 0.0000
vt 0.7139 0.9450 0.0000
vt 0.7463 0.8717 0.0000
vt 0.7377 0.9454 0.0000
vt 0.9896 0.8983 0.0000
vt 0.6584 0.9219 0.0000
# 38 texture coords

g crystal_small_001
usemtl crystal_small_003SG
s off
f 1/1/1 2/2/2 3/3/3 
f 3/4/3 4/5/4 5/6/5 
f 6/7/6 7/8/7 5/6/5 
f 8/9/8 9/10/9 2/2/2 
f 9/10/9 10/11/10 2/2/2 
f 11/12/11 12/13/12 13/14/13 
f 9/10/14 12/13/12 11/12/11 
f 10/11/15 11/12/11 4/15/4 
f 14/16/16 15/17/17 16/18/18 
f 16/18/18 13/14/19 9/10/9 
f 17/19/20 6/7/6 5/6/5 
f 11/20/11 5/6/5 4/5/4 
f 17/19/20 11/12/21 13/14/13 
f 18/21/22 19/22/23 20/23/24 
f 18/21/22 1/1/25 19/22/23 
f 1/1/26 21/24/27 22/25/28 
f 22/25/28 23/26/29 19/22/30 
f 24/27/31 25/28/32 23/29/29 
f 24/27/31 26/30/33 25/28/32 
f 21/31/34 3/4/3 7/8/7 
f 27/32/35 25/28/36 28/33/37 
f 25/28/32 27/32/35 19/34/30 
f 25/28/38 26/30/39 28/33/37 
f 7/8/7 6/7/6 28/33/37 
f 6/7/6 13/14/19 16/18/18 
f 6/7/6 17/19/20 13/14/19 
f 29/35/40 15/17/41 20/36/24 
f 27/32/35 20/36/24 19/34/30 
f 29/35/40 16/18/42 15/17/41 
f 24/37/31 22/25/28 21/24/27 
f 21/24/34 1/1/1 3/3/3 
f 7/8/7 3/4/3 5/6/5 
f 3/3/3 2/2/2 4/15/4 
f 2/2/2 10/11/10 4/15/43 
f 8/9/8 1/1/1 18/21/22 
f 1/1/1 8/9/8 2/2/2 
f 10/11/15 9/10/14 11/12/11 
f 8/9/8 14/16/16 16/18/18 
f 8/9/8 16/18/18 9/10/9 
f 9/10/9 13/14/19 12/13/12 
f 11/20/11 17/19/20 5/6/5 
f 14/16/44 18/21/22 20/23/24 
f 20/23/24 15/17/41 14/16/44 
f 19/22/23 1/1/26 22/25/28 
f 22/38/28 24/27/31 23/29/29 
f 24/27/31 21/31/34 26/30/33 
f 26/30/39 21/31/34 7/8/7 
f 29/35/40 27/32/35 28/33/37 
f 23/29/29 25/28/32 19/34/30 
f 26/30/39 7/8/7 28/33/37 
f 29/35/40 28/33/37 16/18/42 
f 28/33/37 6/7/6 16/18/18 
f 27/32/35 29/35/40 20/36/24 
f 8/9/8 18/21/22 14/16/16 
# 54 faces

