# 3ds Max Wavefront OBJ Exporter v0.97b - (c)2007 guruware
# File Created: 19.04.2019 01:57:52

mtllib 8.mtl

#
# object crystal_small_003
#

v  529.0970 -1293.5420 1184.3170
v  624.5250 738.3590 1172.5690
v  -366.7690 912.6380 1168.8020
v  -1026.8160 1443.6360 364.3560
v  -1008.7250 1594.6119 463.3080
v  -178.9640 1943.7319 -27.9280
v  1176.4790 -1008.6350 -305.2580
v  1307.3590 643.5610 -156.9330
v  1182.4430 957.6310 -99.5690
v  527.3980 1113.9309 -769.6589
v  906.5940 816.7800 -703.7620
v  624.3980 289.6550 -1146.9081
v  -140.2410 1958.2480 10.5620
v  945.3390 -1426.9880 -499.5960
v  206.2380 -1529.4231 -1066.6980
v  220.6450 -1284.0859 -1172.5690
v  -615.7320 1212.1050 -1002.2810
v  920.0670 -1563.1531 -292.9510
v  -66.8190 -2177.9470 -57.1200
v  113.1010 -2047.2240 -205.7360
v  -282.7110 -1267.7090 1323.1619
v  -371.4740 -2017.3579 337.1140
v  -1185.5020 -1324.7150 714.6350
v  -1166.2240 -1480.0250 569.1370
v  -578.8880 -1268.5850 1245.0460
v  -1317.5231 -999.0380 632.8750
v  -599.1430 925.9810 1107.5129
v  -1070.9730 1217.5300 581.5790
v  -358.0060 -1664.5100 -795.2150
v  -682.4350 -1359.8081 -500.4080
v  -511.1940 -909.2360 -1059.0551
v  -57.7410 1900.3521 50.4420
# 32 vertices

vn 0.6833 -0.1317 0.7182
vn 0.4966 0.0432 0.8669
vn -0.0521 0.0351 0.9980
vn -0.9828 0.1504 -0.1071
vn -0.6104 0.6845 0.3986
vn -0.8912 0.4414 -0.1043
vn 0.9841 -0.1166 -0.1342
vn 0.9822 0.0236 -0.1861
vn 0.8343 0.4892 0.2542
vn 0.8485 0.3025 0.4342
vn 0.4799 0.6162 -0.6245
vn 0.7610 0.2008 -0.6168
vn 0.3870 0.2638 -0.8836
vn 0.8305 0.4051 -0.3824
vn 0.6900 0.7119 -0.1311
vn 0.2137 0.9650 0.1523
vn 0.8482 -0.3184 -0.4234
vn 0.5392 -0.4549 -0.7088
vn 0.4780 -0.0391 -0.8775
vn 0.3055 0.0533 -0.9507
vn -0.3684 0.3478 -0.8621
vn 0.3555 0.6985 -0.6211
vn 0.2479 0.3929 -0.8855
vn 0.0620 0.2396 -0.9689
vn 0.8193 -0.4982 0.2838
vn 0.4260 -0.8112 0.4006
vn 0.5090 -0.8600 -0.0367
vn 0.6119 -0.6560 0.4419
vn 0.6561 -0.7131 -0.2469
vn 0.2591 -0.6039 0.7537
vn -0.0239 -0.6034 0.7971
vn 0.0008 -0.7621 0.6474
vn -0.4803 -0.5595 0.6755
vn -0.7464 -0.6424 0.1739
vn -0.4526 -0.8396 0.3004
vn -0.4654 -0.2957 0.8342
vn -0.9864 -0.0922 0.1361
vn -0.8117 -0.2631 0.5215
vn -0.4238 0.0566 0.9040
vn -0.9325 0.0427 0.3586
vn -0.6394 0.4212 0.6433
vn -0.4337 -0.6531 -0.6207
vn -0.7913 -0.5271 -0.3097
vn -0.7064 -0.1256 -0.6966
vn -0.9498 -0.2763 -0.1466
vn -0.0049 -0.9998 -0.0207
vn -0.2176 -0.2187 -0.9512
vn 0.0979 -0.4651 -0.8798
vn 0.2446 -0.7427 -0.6234
vn 0.0499 0.6465 0.7612
vn 0.4286 0.7020 0.5688
vn -0.0327 -0.1740 0.9842
vn 0.4875 0.7754 0.4013
# 53 vertex normals

vt 0.6302 0.1227 0.0000
vt 0.6298 0.2525 0.0000
vt 0.5921 0.2700 0.0000
vt 0.8869 0.3073 0.0000
vt 0.8895 0.3202 0.0000
vt 0.8431 0.3547 0.0000
vt 0.7119 0.1380 0.0000
vt 0.7048 0.2493 0.0000
vt 0.7045 0.2815 0.0000
vt 0.7673 0.2761 0.0000
vt 0.7440 0.2575 0.0000
vt 0.7685 0.2230 0.0000
vt 0.8394 0.3665 0.0000
vt 0.7297 0.1049 0.0000
vt 0.7825 0.1213 0.0000
vt 0.7792 0.1330 0.0000
vt 0.8149 0.2769 0.0000
vt 0.7111 0.0837 0.0000
vt 0.6210 0.0092 0.0000
vt 0.6512 0.0188 0.0000
vt 0.7377 0.0827 0.0000
vt 0.5812 0.1255 0.0000
vt 0.5815 0.0386 0.0000
vt 0.5275 0.1142 0.0000
vt 0.5267 0.0919 0.0000
vt 0.5611 0.1228 0.0000
vt 0.5189 0.1445 0.0000
vt 0.5803 0.2747 0.0000
vt 0.5408 0.3084 0.0000
vt 0.5579 0.3411 0.0000
vt 0.8131 0.1136 0.0000
vt 0.8380 0.1285 0.0000
vt 0.8144 0.1560 0.0000
vt 0.8969 0.1077 0.0000
vt 0.9066 0.1479 0.0000
vt 0.8212 0.0600 0.0000
vt 0.9018 0.2913 0.0000
vt 0.7989 0.0665 0.0000
vt 0.6027 0.3830 0.0000
vt 0.5995 0.3853 0.0000
vt 0.5417 0.3354 0.0000
vt 0.9100 0.1191 0.0000
vt 0.8267 0.3688 0.0000
vt 0.8573 0.0657 0.0000
vt 0.6100 0.3771 0.0000
# 45 texture coords

g crystal_small_003
usemtl crystal_small_003SG
s off
f 1/1/1 2/2/2 3/3/3 
f 4/4/4 5/5/5 6/6/6 
f 1/1/1 7/7/7 8/8/8 
f 8/8/8 9/9/9 2/2/10 
f 10/10/11 11/11/12 12/12/13 
f 9/9/14 11/11/12 10/10/11 
f 9/9/15 10/10/11 13/13/16 
f 14/14/17 15/15/18 16/16/19 
f 16/16/19 12/12/20 8/8/8 
f 11/11/12 9/9/14 8/8/8 
f 17/17/21 6/6/22 13/13/16 
f 10/10/23 12/12/24 17/17/21 
f 18/18/25 19/19/26 20/20/27 
f 18/18/25 1/1/28 19/19/26 
f 15/15/18 14/14/17 18/21/29 
f 1/1/30 21/22/31 22/23/32 
f 23/24/33 24/25/34 22/23/35 
f 25/26/36 26/27/37 23/24/38 
f 25/26/36 27/28/39 28/29/40 
f 27/28/39 5/30/41 28/29/40 
f 29/31/42 30/32/43 31/33/44 
f 24/34/34 26/35/45 30/32/43 
f 30/32/43 29/31/42 19/36/46 
f 26/35/37 28/37/40 17/17/21 
f 28/37/40 4/4/4 17/17/21 
f 31/33/47 16/16/19 15/15/48 
f 29/31/42 31/33/47 15/15/48 
f 15/15/49 20/38/27 19/36/46 
f 5/30/5 13/39/16 6/40/6 
f 5/30/41 27/28/39 3/3/50 
f 4/41/4 28/29/40 5/30/41 
f 13/39/16 3/3/50 2/2/51 
f 25/26/36 22/23/32 21/22/31 
f 25/26/36 23/24/33 22/23/32 
f 27/28/39 25/26/36 21/22/52 
f 21/22/52 1/1/1 3/3/3 
f 24/34/34 23/42/38 26/35/45 
f 17/17/21 4/4/4 6/6/6 
f 7/7/7 1/1/1 18/18/25 
f 2/2/10 1/1/1 8/8/8 
f 32/43/53 9/9/15 13/13/16 
f 7/7/7 14/14/17 16/16/19 
f 7/7/7 16/16/19 8/8/8 
f 8/8/8 12/12/20 11/11/12 
f 10/10/11 17/17/21 13/13/16 
f 20/38/27 15/15/49 18/21/29 
f 19/19/26 1/1/30 22/23/32 
f 26/27/37 25/26/36 28/29/40 
f 22/44/35 24/34/34 30/32/43 
f 22/44/35 30/32/43 19/36/46 
f 30/32/43 26/35/45 31/33/44 
f 31/33/44 26/35/37 17/17/21 
f 16/16/19 31/33/47 12/12/20 
f 31/33/44 17/17/21 12/12/20 
f 29/31/42 15/15/49 19/36/46 
f 7/7/7 18/18/25 14/14/17 
f 13/39/16 5/30/5 3/3/50 
f 2/2/51 9/9/9 32/45/53 
f 32/45/53 13/39/16 2/2/51 
f 3/3/3 27/28/39 21/22/52 
# 60 faces

